<mxfile host="app.diagrams.net" agent="Mozilla/5.0 (X11; Linux x86_64) AppleWebKit/537.36 (KHTML, like Gecko) Chrome/131.0.0.0 Safari/537.36" version="25.0.3">
  <diagram name="Page-1" id="kcGT8CUB0GJEn7gM3PKK">
    <mxGraphModel dx="1195" dy="785" grid="1" gridSize="10" guides="1" tooltips="1" connect="1" arrows="1" fold="1" page="1" pageScale="1" pageWidth="827" pageHeight="1169" math="0" shadow="0">
      <root>
        <mxCell id="0" />
        <mxCell id="1" parent="0" />
        <mxCell id="sqDV4bE9PQli710Vu9U6-24" value="" style="rounded=0;whiteSpace=wrap;html=1;strokeColor=none;fillColor=#fef8fe;" vertex="1" parent="1">
          <mxGeometry x="499" y="60.5" width="280" height="400" as="geometry" />
        </mxCell>
        <mxCell id="sqDV4bE9PQli710Vu9U6-25" value="" style="shape=offPageConnector;whiteSpace=wrap;html=1;rotation=-90;size=0.375;strokeColor=none;fillColor=#fcd4fc;" vertex="1" parent="1">
          <mxGeometry x="300" y="217.21999999999997" width="400" height="86.57" as="geometry" />
        </mxCell>
        <mxCell id="sqDV4bE9PQli710Vu9U6-11" value="" style="rounded=0;whiteSpace=wrap;html=1;strokeColor=none;fillColor=#fff2e6;" vertex="1" parent="1">
          <mxGeometry x="299" y="60.5" width="201" height="400" as="geometry" />
        </mxCell>
        <mxCell id="sqDV4bE9PQli710Vu9U6-13" value="" style="shape=offPageConnector;whiteSpace=wrap;html=1;rotation=-90;size=0.375;strokeColor=none;fillColor=#FFD9B3;" vertex="1" parent="1">
          <mxGeometry x="97.22000000000003" y="217.21999999999997" width="400" height="86.57" as="geometry" />
        </mxCell>
        <mxCell id="sqDV4bE9PQli710Vu9U6-1" value="" style="rounded=0;whiteSpace=wrap;html=1;strokeColor=none;fillColor=#edf4fe;" vertex="1" parent="1">
          <mxGeometry x="20" y="60.5" width="280" height="400" as="geometry" />
        </mxCell>
        <mxCell id="HKPMc-exNPZEN2zycEb5-54" value="" style="rounded=1;whiteSpace=wrap;html=1;fillColor=#dbe8fc;opacity=60;strokeColor=none;" parent="1" vertex="1">
          <mxGeometry x="33.370000000000005" y="298.5" width="252.86" height="154" as="geometry" />
        </mxCell>
        <mxCell id="sqDV4bE9PQli710Vu9U6-2" value="" style="rounded=0;whiteSpace=wrap;html=1;strokeColor=none;fillColor=#c9dcfa;" vertex="1" parent="1">
          <mxGeometry x="20" y="20" width="280" height="40.5" as="geometry" />
        </mxCell>
        <mxCell id="HKPMc-exNPZEN2zycEb5-34" value="Read article and define scope of reproduction" style="text;html=1;align=left;verticalAlign=middle;whiteSpace=wrap;rounded=0;fontSize=12;flipV=0;" parent="1" vertex="1">
          <mxGeometry x="90" y="184.4" width="160.06" height="30" as="geometry" />
        </mxCell>
        <mxCell id="HKPMc-exNPZEN2zycEb5-42" value="Inform authors" style="text;html=1;align=left;verticalAlign=middle;whiteSpace=wrap;rounded=0;fontSize=12;flipV=0;" parent="1" vertex="1">
          <mxGeometry x="90" y="74.32" width="100" height="30" as="geometry" />
        </mxCell>
        <mxCell id="HKPMc-exNPZEN2zycEb5-45" value="" style="shape=image;imageAspect=0;aspect=fixed;verticalLabelPosition=bottom;verticalAlign=top;image=data:image/png,iVBORw0KGgoAAAANSUhEUgAAAgAAAAFyCAMAAAC0pJKfAAAApVBMVEUAAAAAAAAAAAAAAAAAAAAAAAAAAAAAAAAAAAAAAAAAAAAAAAAAAAAAAAAAAAAAAAAAAAAAAAAAAAAAAAAAAAAAAAAAAAAAAAAAAAAAAAAAAAAAAAAAAAAAAAAAAAAAAAAAAAAAAAAAAAAAAAAAAAAAAAAAAAAAAAAAAAAAAAAAAAAAAAAAAAAAAAAAAAAAAAAAAAAAAAAAAAAAAAAAAAAAAAAAAABU/knhAAAANnRSTlMAAgUHCw8TGB4gJSwyNzxDSE1SV1xiZ2xxdHyCh42Sl5yhpquwtru/xcrO1Nnd4OTn6u70+PzHZFBrAAAOJklEQVR42u3d6ZLiOBYF4AuYJYEkIdn3NQGT7LbP+z/aRPT0THdVpYxABmxxvr8d1RVxdQp0JSHJa0tlsymh15SqTrY+4G8nVYbgBTV2+L9dg/V4MfklfrHKsyavpLjHb/ZFVuV15Pf4w56fAS8jtcIPVpwKvooWftRiZV5D5oAfHTKszUv4hEKdtXkJMyjMWJuXsIfCnrV5BQ6UHFbnBeShxKWAV1CA0hurwwAQA0AMADEAxAAQA0AMADEAxAAQA0AMADEAxAAQA0AMADEAxAAQA0AMADEAxAAQA0AMADEAxAAQA0AMADEAxAAQA0AMADEAxAAQA0AMADEAxAAQA0AMADEAxAAQA0AMADEAxAAQA0AMADEAxAAQA0AMADEAxAAQA0AMADEAxAAQA0AMADEAxAAQA0AMADEAxAAQA0AMADEAxAAQA0AMADEAxAAQA0AMADEADAADwAAwAAwAA8AAMAAMAAPAADAADAADwAAwAAwAA8AAsDoMADEAxAAQA0AMADEAxAAQA0AMADEAxAAQA0AMADEAxAAQA0AMADEAxADQ3RVak9XGXfQ/0vENQPqjv3A3q0mrwPGKWOUL/3PsZeMZAKd3xN+CrwrHLELZKf7tUItjAKoH/Ns0y3GLytsWv+nFLwC9AL/ackYRkfwef5im4xWA9AR/2Oc5dlFIu/jBMhunADhf+IGb5uhFoIcfbQrxCUB+gx91OXrmcmf87FCOSwBKB/zsnOP4GetCxavGIwAfZ6h0OH7GXCgFzTgEoOlDyeX4mXIChOg/PwB9hAgcjqChd4Sapp8bgPQUod45goZqCLfMPjMA2SXC1TiCdw4AvgvPC0BhAwbgziq45FB+VgBKB1zCPSFTeVzkVZ8TgKqHi7gabGyHi4LWMwLQDHDRjuNnbAgNg8cHoA8NQ46fsWIADbPMYwOQnkJDUOT4mZtAxyr3yABkl9Ax4ehFIHeEju+3xwWg8A0dR+4FRaLiQ8ex/KgAlA/Q4bMHjEjVgw6v9pgA1Dzo8Kocuai8n6AjaD0iAK0AOk7cBoj2WKiWQeruARjgZzwSele5NbTMM/cNQGYGLWvO/yKWmZtX3jwAuZVuDjliUUsNTT97zQPw9g0twxTH6w7aZrMv8wCUj5pzUY6VCfP+q2YSAPO/nmcADJn/E2wbBMD0A+hY5jiZM/8SNgiA0RTkm+2fkeim4QYBMGhCVmz/DEXfiJsHQH8ZYsb2z1CES3HFGwJguhDJ0TEW/WK8eQDeT2z/EtkOfl4dAO7+xYj5hnzQMQ6Afvt3YPsXNfMjORilDAOg3/7xYrCHyi6hZe6YBcCZQ8uSV0I9WHqq2w4aBEC7/ZvyMpjH60PLrnh7AIpbaOlzNJ6hqdkOVvQDcFv71+RYxPqwqF+/LQCfHnSc2f7Fvh3s3hKAjmb7V+I4PE9ho9sOXhuA1AhaNmz/EtEOLpzrAuAs2P7Z1Q66+WsCkHfZ/tnXDuoHoLhj+5cgTV+zHdQNQOUEHT7bv5j4OGu2g3oBqPvQcf5g5eOidICWrk4AugF07Nn+JbAdHKcvBSA1hpYNr39KaDsYGgDt9u+Ld8DGTHqi2w6GBUC3/Zuw/YufHrTsq1Cq7qGlx2rHUcOHDh9Kmv+DBmud6HZQje1fwpX2MMH2L/HyG9yZy/Yv1pwv3IjtX6ZcbzWqBYvbQXPjtCRbodps1cuZH+rWWPr4y35QtPSZMXNdSbTicI+/+MvGbxmo7/GPYJKTJKv7uAu/LkmWmwT4x74u/3Bm+NWxIklWOeMOzgkvyhG/mjnyt+wav/M/2Q7+ZleSJPv08bt1Vv6SXuFP/ockWd5l+/eLDx9/WqVDLlw45SXJnAUitXAkyfIn9YUWpQA/mkmipcaI0CgliTbFj4KSiCyg/I/J1g0QkaAryVZSlWIhUgigMBIRtoOK9i9ZRlAICtKBylGSrnJCBE4VSbojVDqygFJJkq64g7FdUZKuBKWFbKHUlsTLu9z9E2lDaScelGaSfM7CgvbP1AxKnvhQOogFUiPD9s8CByj5cobBAxqWt4NBR2zwBrWzbKDWECt8eriJ9ylWaEBtIxOoTWx9de613n0bhw5xE2rfYoniFlfbFsUS31BrShEhcva/Omf/u2/ZAGpFkSPUamILZ46rzB2xRRUIXe2dQ21g/6tz9r/71ofaXEQ6UFuJRToBNAVtscgSah0RKUPNS4tFPj284LtvqTPUyiKS9qD2bvsj5PY/+126+A98CbW2WKW4fb1nv5tQW12cJMxsf4Tc/me/x1AbXGwTdrY/Qm7/s9+bi21+LoBa/rUeIR+IbZwAarnLS4Wfdj9Cbv+7bxWobeW/Ji/2FGLNe6Fnv7tQm8p/taC2Egu9H1/n2e851No6nWLK6kfI7X/2ew+1d521opLNj5Db/+x3Dmp+Wme1uClWSg8C/EswSIuVqlBba73HPRZLleYB/hYsSq94e+ZI/qcGtY1YK9+eubu9O20VxFoLrSOfeaj5vBU5yQ5QK2pOFVnF5MpD7azbLLKMyVWD2lJ3uYhltHMOONBdMGYZ7ZwDfupuGfFpRDvngG+6vx3g7ehWzgFP8m9TqHVZSBvXAZe6VwhgzkImVVd7o/8dajsWMqnm2kd9Mj7UcqxkQm31L3/YcBZonyzUzvKrCWeB9qlccdSrxVmgfdpQG8qvypwF2mdyxfU/ac4C7bO55qify1mgbdL+NYd9x5wF2qYMNVeEs0DbNcOPenIWaLsh1FoinAXabhV+0I+zQNudoRQ4IpwFWq4QfgUoZ4G2q0FtJsJZoO164R/pnAXabgG1qghngbbbX7z5hzvCNstB7SjCWaDtPqD2JcJZoO06OgdCeS7QXlOo1UU4C7Td5tIPw7kWaLVM+GEAzgJtV4ba+oY/s2dJrTwMoD8LzLOm1lwS3hIFF2o11jRRXKiVb0lNnzW15UBokBGFFtSWLKotc8Dvm/7UmUW1ZQ44velzA0VWNe7M13RcqDVY1bgzX9UdQ23Eqsad+emeBtRcljXuzHd2S1Dz06yrFXPAuailzrw02AIG+3pLbghawODGnwHUFqyrLY8FqtWgdmRhk6Jy8+m+PLgUZPkFkfPbD5M3WdmEWNw+lZvz5QALHG8/3dnl2fDkKyJE9vafE6DA2iZC0+D9DyfgfpDV9wPOTJYQJqxtImxNlvPGPBqcdHmEqMgFDa4EJF3D6B3QN/ANwYSbmG3qH7gdkHA7s2M9c6h5PBMQf28wa+Q64I+EE61lOIsrI8SQ9U30RsBJLkud+Y5skqU90x95L9gI2no3EDqioQOeC0uwIUKURUMZPByeYFvjLi515o5gcpUQYmk+jUSHNY61HkL0zJ+bw5o1jjUXISoRHCjBG4scY0VEsZC7R4geq5zUb4Av0TQB14IS6juSHr6OMBWWObbKCFMWTbkAPBhm3yrQKRXJg2Pwsix0TGVOCDEVbV1wKSCJ6gjTEG0lcBqYREuECHKibwceC0meYhDZEt4I4KWRiTNCZAs4HwhVZrFjKOdFN2ipI8DXA2xaBcROrjJGmIAHg+Inc0SExzk/EGrGesdOB1Eu4KZOCBOUWPCYcY4Ic0xJlN8B+GLFY6aLUGO5UgXgWkCCZE+IeAtvi1Df/JVYrAwRan9TU8EdgcQo+gg1kKsVAoTyeD44Rr4QriTXW4HzwKT4RLjN7RdN8OLIBMgdEa5tcLpA7cz1wDi/FG5+hmeIC1x2Aon4AsDEaHuZ7wjFXOGMC97Nrhrg1ZGxll7jgo3pT83VPL4j83Rj3G+27uKSI38p9mRtXHJIm58yVdvmOAbPVA1wSVdultriog0T8ETvHmDeA6o1cJnLH4o8TfmMi4ZiILUFPwPiq3TCRX5eTNShYct9oacon3DZSIykNtBw4DnxJ6h6uMzLi5kP6PDqHI9Ha/rQ0BdTX9Ay4r7AQ6VH0HHKRnzWRM3l3uAD5dfQ0hJzA+jxWhyXR6mdoBL9yU1nD01Lfgg8RHYCTRWJQhW6vF6Gw3N3tQM0TSUaM2jbsx24s+ICuk656I6c6XOrHKT7yQ19aKtLVKq4xrrGgboPp3eGvrlEZ4SrfDcdjlbkcv0zrnDISXQyLq5zGrAjiFZp4uEawYdE6e2Ma62a3CeOitNY40r9h508UfPmDWbAXLo69XCtZUoi1sUt/GWb3wUmnNrkjOvtchK5MW60G9fzHMlblDpfPm5xLkn00l+43W7aLnO/8Arpcnt+wo2CqtyDs4YRfzNpf/Cz4CKn3BytPRhoyn1kXZg7r6e9RqXAj4M/pQqV5mCxDWCoK/eS2yAqwcFdjHvNz0qp4MhLy+RLH/X2YLra+ohEX+4n5+IO/ON2s14uZpPRcDDo93u9rs16vV5/MBiOJvOvlfu99xCxvtyTswLFWk/uKzNjjWMsaMvdDVjm2PI+5QHqHisdT8d3eYjyjrWOI7cgD5Kds9rxM87I4zT5NRAz57o8VJH9YKysCvJorTPLHhdeJyWPl+eSQEx8vclzVFwW//n2n/I0qcaeA/BcXt+RZ0q3GIEn8sd5ebZ0a8uBeA5/8iZxkPpcczAezxsWJDbKU64MPda+m5NYybY3HJVHCRa1lMRPacAJ4SN89/ISV+8D7hTe135Ylngr9dYBx+k+vgdlSYLc55itYdTOi1ZBEiRfH218Dls0zl+995Qkj1PpzLb8PjASbCatUkoSzKm0RssjR/J6njtuvTtih2y50ZuuDvw40OFvv0btakEslHmrNLqj2WrL0yR/8vbr+ajXqBRS8gLS+VLls9npD8ezxdLdbPfHsx/gdQT++bj/dldfs/Gw127U3t94sZZIKpPN5nJ5u+WyWScdl3/k/wFNPZRiNTwCOQAAAABJRU5ErkJggg==;" parent="1" vertex="1">
          <mxGeometry x="37.11999999999995" y="128" width="41.52" height="30" as="geometry" />
        </mxCell>
        <mxCell id="HKPMc-exNPZEN2zycEb5-46" value="Create repository from template, upload model code, start logbook for progress/troubleshooting/timings." style="text;html=1;align=left;verticalAlign=middle;whiteSpace=wrap;rounded=0;fontSize=12;flipV=0;" parent="1" vertex="1">
          <mxGeometry x="90" y="128" width="207.02" height="30" as="geometry" />
        </mxCell>
        <mxCell id="HKPMc-exNPZEN2zycEb5-47" value="" style="shape=image;imageAspect=0;aspect=fixed;verticalLabelPosition=bottom;verticalAlign=top;image=data:image/png,iVBORw0KGgoAAAANSUhEUgAAAgAAAAFICAMAAAARRbZUAAAAq1BMVEUAAAAAAAAAAAAAAAAAAAAAAAAAAAAAAAAAAAAAAAAAAAAAAAAAAAAAAAAAAAAAAAAAAAAAAAAAAAAAAAAAAAAAAAAAAAAAAAAAAAAAAAAAAAAAAAAAAAAAAAAAAAAAAAAAAAAAAAAAAAAAAAAAAAAAAAAAAAAAAAAAAAAAAAAAAAAAAAAAAAAAAAAAAAAAAAAAAAAAAAAAAAAAAAAAAAAAAAAAAAAAAAAAAAA0NbREAAAAOHRSTlMAAwYKDRAVGBsgJCktMTU5PkJHS1BYXmNobHF4fYGGio+VmZ6kqa+0ub7CxsrQ1tvg5Ofr7vL2+s4qTAUAABcCSURBVHja7NxbUiJBFEXRhIKWh28UVFBBBBRRsATqzH9k/WWEj/vRYZA3od1rCJ6IAqzMHX6stNeolQOSK9cae6XgLGtPlpKKWa/GAinVerNC0nLSzoKjTq53Rb/CDKlU+oXe5Z3gpTLWR/MmS6TRnOujcSW4yKb67G2fLVLYf9Nn0yx4GOmrRZU1/FUX+moUHJzruyFz+Bvqu/MQXWkuAx8C7poyzEshtpYsAwbxNpCl5fDgseQM4i2XknwYL2Sqs4ivukyLEFlDthMm8XUiWyPE1ZGtxSS+WrJ1Qlz3PAG2+wkwCnHl4jvAVqjLlkf/8cmvgO2Qy9YMMV3KNmIQbyPZLkNMY9kuGMTbhWzjEFFpKVuDQbw1ZFuWQjwHsr2yh79X2Q5CPFey3TOHv3vZrkI8E9nazOGvLdskRFNe8V+A7VGXbVUOsRzJNmeNFOayHYVYerLdMUYKd7L1QiyPsp0zRgrnsj2GSLK1bHuMkcKebOvM+QXUC1uk8eL8avZa4kDgNhnIdh3imMp2xhRpnMk2DVFkhWxcC0mkKltRCTGcyjZjiVRmsp2GGG5lu2UID+knmXEedNu0PB/K1UKmgj5AMpVCpqLq+JXziR3SeXL8YdaX7YYZ0rmRrR8275kbAbtzO+A5bNwf2dYZM6STrWX74/fqiRU8pH9BeydbjxE8pD+iMZftmBFSOvY6pFWTbUUsNKnySraa0xHUBzZI68HpoPZQti4TpNWVbehThtEhE6R1KNvC6yIaEzhIf12zI9uYBVIby9bxuYfGAB7S39fMJVEI3Ur7suWUYWjFUIahFUMZhlYMZRhaMZRhaMVQhqEVQxmGVsyPlCjD7GYrpkQZhlbMJnQpw+xmK6ZLGYZWzAaUKcPsbCuGMgytGMowtGIow9CKoQzzO1sxWcQyzDN/9x1oxVCGoRVDGYZWDGUYWjGUYWjFUIahFUMZhlYMZRhaMZRhaMX8swFlmN1uxQwow9CKoQxDK4YyDK0YyjC0YijD0IqhDEMrhjIMrRjKMLRiKMPQiqEMQyuGMgytGMowtGIow9CKoQxDK4YyDK0YyjC0YijD0IqhDEMrhjIMrZjwQBnmv2nFUIb55a2YMmUYWjGUYWjFUIahFUMZhlZMqjJMpdZoHhweHR0e7Nf/snNvyYkCARSGGzDKbTTEqIBiREQhgCgIffa/snmYp6RSJTQ2FzPfDpqqfqLPP/m/K/hGnCj6v6+jqfKoB62Y7YOiI6Ppwt75UZpTfFFe48BzVm+KQH4xQXlbOV4QX0t8QfM08nf2Yjri1orhX4aRZtb+M8M9NPE37wr5dZT3jZ9Q3JN97q2ZxKEVw7cMo668hKKG22ljSOSXkIzN6YYaaOKtVA6tGD5lGMX0M7Cg0dYQyZMTjW1EwSLzTaVhK4Z/GUYwPs5oojiuxuRpjVfHAk2cPwyBtRXDvwwjGPsczdHQmpAnNLFCiubyvSGwtGK4l2Gmbo5HocFyRJ7KaBlQPEruThlaMVx/K43tBI9VeDPyNGZegcdK7DFDK4ZXGWZ6oOAgMSXyBCQzAQf0MGVoxXAow4iLCLzctjIZOHl7Ay/RQqzRiuFThpHMC3iinkYGTPMoeLqYUvVWDIcyjGRfwZ2vkYHSfHB3tSXGVkzzMoxoZmjFQSUDpB7QiswUGVoxzcswwiJFW6g7JgMzdinaki6Ex7ZilAojs1mMNhVrkQyIuC7QpnjGNOlkL8NMPLQtnZPBmKdomzdhaMWwbswEu0AHjjIZBPmIDhS2wLDpZCrD6DGArs7Yc+y3o7lYr9GKYS/DiA5FZyKN9JwWoTPUEau2YtjLMHqCLpW20O/rX6JLiV6lFcNehmE/4C0JfddZ25a5Mi177bh+mORgEcikt+QAHSttoXErRsjxM5VMQtRVxp79/ueF/GSkz619XKCefE56ap6DWXlNPoOjfzj4/jGIzhkFo3ByrxXDXoYxMtRy3i81gdwjaEs3QR07kfSQuAODIj44S0OVyDfCWJ9bH8eUoq7MuNOKYS7DrCmqu7jvL6S60dsuRWWRTHpHjlBTfnLuP4cW9aUbl6iDrpu1Yk742Q2VRbZG6lOtEBVlr6RnXjPUcfGWap1nxE5IUd0Nf9m7s+XkdSUKwMtMwcwQyAAJIWGeCZPW+z/ZudoXZ1fbMsQ2atf+HuCvyo8tq1vSkmweMRnmbzZ9/w/75laMxLzBKW+GkZnFewU3K3bHR0Z3f1ZMk39xGlXxN5XhL6MYeXCGN2JU12mviDt57b/uu2zCbsD7rXo5/J3XXTCCWR6OyM9S2+zqdWeG9xvAbsE7mWkDcamNDa3WJTihtGYkh88yYvA0OPBei3uTYezMj484lUdX2ux8OMDfMYpl10NMvO6KFvdnxbR4DzP2Ebfyt6HFoYqHqxxoZyZ1xKq54F3asPnkHaYVJMEf0+JYxYNVj1FGxwpi15jzDp+wWfFm2xaS0lgz3KmGh6qd0hgdZe0Nb7a6NRnG7vTmIUG9I0Odqnig6ok2syoS0/ulxc1ZMR3eaFJCsoo/tq+Ay+P/to0kFb4Mb9NBuCFvcnhG8tp7hvn18SD+L8Od+55rG1CGCLfhLSYFpCH/zTC7Eh6itHNhE6M3uPIGG2syTHTnniMr7ZsCHqCwYahjF+mobii5Kyumy+jWPtLztGCIuYfUeXOGmpXc3InQRZgRI/vOIU3ekCG+kbpvhrm8Ik3dM6MaIcyWEV1fkLbuhcHekbJ3htlWkK7KlhFtEaLEiH7rSF91z0CmjVS1DUOM80hbfsqIStZkGLut79yy28lHivyTe5tVPhlNz/Zds1sUHVx43+SRmtyGwc5tPMaroYV1vrRjFNMcHsX7YaBvNyaA+woepXNhBDtLMozV2MMDfVnGtjT0GGxTwuM0L4ygbEmGsRjhsT4Y5OwjFf6ZgZYFPFLjTLsXBBk7/fvbn4C1hxR4awaa5fBY9TOtxghyoNUPHm/IIB9IwYfDvz/QuNDmgAA+rSYeHDBiAFNH4mrG5d8faF9p41uSYZzpud/+rdrmkLDclkEWObiga2jxakmGsZTaDsgtGeDjgTOQAtzwTosJZEeGOzzBFcUdZdcKElW5MsCuCFeMGO4IUZXhLjVYuNCLXSJRy9tb0e6tVLN618jRhUvahrLeQ1pA1xYcUtwz1DskU4Yawi0Dyn4LSEzh19JccUX9yjAzSzKMZOHBMVPKvh7QgfiGY14Y5uSJyTBhjiW4prCn6OojIf6Vsk0OrpkwTF1MhgnTgXuahqJJ2v+pZx/OKR4Yoi8mw4QYwUUflDWQiAYD9OCglmGw+Y3JMNs83GFfllkgEQvKJnDS8LasmCaDmQbcVL1S1EQCmpQdinBSfn9TVszA9gHQ9BFYptkDeoajWgw2uCUZ5lCAW+xLM830BoApnPXDQItbkmGe4a4mRXPEbk7R+QnOKp6iZ8W0Is4YtdS7NUTjeYimRtk7HPbGQK3Im8pNFS4rX++4IqvYev2aLnfHiyF5Pe5Wk+Frq3jPFoSdB4d528hZMSvbDFDZPPBagsyr96cHig7Tft2DrHSlqAOntRlkFTUZ5lyE2/LH6DtDir3piaFO017hhnJjAcctImbFdBjkA657p+TXw7/kIoZsXmfdHP7F+6WoAcc1GKQTrWt0LsB1uUOU7Qv+8MjIjkM/Um7CDM6bMcAw2kgxgPve7MVLfWIoiJzsOKeoBufVonUCdpYBQOEQYMr4R23GO8xq+EfZWJ4xhUPALtKRkCE06IcOXuXxn2/jHFDUhrvsSxhRkkFMGRoULxTshHsc77ypckfJBiqsKNpGeQDG0OGLknoMt5xuasGbpXpQ4TnCA+BTVocOPiVDe4aenRl4GFJyykEFb0+Rb98OtoEWCwr2T0vGYPm0p+QLSgwo6ts/E2/QokvJmbE4U1SBEiVjawaXKboUoEXuyLStoMaMorLtWPAYenwxbW9Qo2s7JDylqAM9GkyZKUGN3Dl8L5N3VjXLlR2YrjkUGYffJd2k6AeaDP/7AgTrUNQMX+vuQJM601WGIrlL6FL/gpJLDqr8Mk0bqDKlZBF6JmgGXcZM0ydUeQ07H9Sg6A269JimFlQpU9QI6wP70KVomJ5rDrrsQrrBE0r20GbD21w2k2H//X3wNVlfeaMllPmmZBLycEygzYjRmWW/7v3fXvGl4Q0+kIkP5C5kR/gbkNlJwK4vtPFK/R0j60CZcvDe8CZFNWhTZjTLDgI8rxhRCdr8BraC3iwJAhnrBm87CPG8ZRQHqDMLHOdHlKyhz5xW53cPgaJvIZxBnQ9KRoH/bT/QZ0ibRRlW/lJ5G0jWDVzS2geNDZmbBZo+IukbWvSgTiWo2M8ZSlrQp8pQvw1E1PxluDrU8a4UmBx8ip6gT45h1k+I7GnNUAXos6PER4uSKzT6ZbBpPq4LCskjFJpR0gpsEWm0YqBvL74LCrmBQiNKeuhTModGkzhjTkZqq0BZn5I+Rvb0a/114Fe8G42/kZkaaYSJykJX1o/3B/tmgAEUalMywZySPjR6ifeuO29C2RsUqlEyx4qSF2jUoWSZi/tysh4UeqJkhS0lHWjUoGBbxN2KGfrfyVOyxYGSJjSqxh50+0xJAxoZCg44ZuhP9Cnoxr+EUoVGZwpOOFNSg0ZlCnrx104VaHSi4IxLhp7xEgUv8dcVPjQ6UnCBydCfWKDgNf4DFeXsrJQYMEODXDGlB+ApOyMAYTL0CXj6bwS49QEwuFJSh0Z+SnOASnaqAINLhsrASkpVQDU7fYALTpS0oFEtpT5AHQrlKDnBkrWuSiv2vm0nO33SEiUH7Ch5hUbd2AezVnZejwolO6wpGUCj19ibmrXsvB5NStaYU/IFjQax12xl2+uh/2TIhJIJNBpRkMcf5LPzerxRMsEXJStoNBPrnD+5ZOb1GFLyhQElv9BoG3/SyZ6CdXa2TA/QoygHhS7xj2WrzBwMWVPyghZFlaxUupMk3ps81Ans+PkUdbPSBxom8eWsZqUPRB+eoeQD+rwnULO/UtLLyNtB4wF7SqbQ54eCdhLHKYYZeTu4D0wK3mdlmlNOInlqDnXGgWnBI/1H4EMyjy9JVBY8QJ0NJaPArxw70KaRyEnuTTY2heVN4KpGMys5SH0KxskMnd1szAHZDH42ltBmSsF7MpOnLygzCE4Kxc5yX4Tqbc+tZF6dNZRZULILy9VoZWE/mCngjwrG8u9qvjNmEjLIcZiFQW6LP9tS0s3EFOA97MaQLXRZJhR4+pOFlJghRQ2hftZ6/KFgEgq6eMlCXPQmNBF8kYUglF5SZxx9iqoZSNJfCF9PtYXgNLH39KB/teydoX9DgyLzBD0K18Suvx7rj9JcUtQIvzuY7+q/AL0EQ8ir2vOhePaE4VNrt2Oe3A3fJaO9V96naCpMdLUGxZQNBaskI4gPnsYaQC6RSpSNoMVHkgc4BsrXS2uUlawx2+c8dPAOSX6mqxRNlV+ouBI+EloDQ5+TnajvVFdJ+TOtccA+dbeDl8lO0z6puRXwSpkf5aqFNjSoJ1yoVSk65jWel5JnyG+ULaDBJOnha6u4Wd6OFHleuiquBH1DST/xQnrn6b1O81oSWumCmdodz6aE2JSM2tz4OmVTIQxHaV5YxST/6M7UDgFTyp6FSlrpGYhJCn2ajtY6uUZG7GN+kDr3BtZMYp1a+/ux9xRmZsgl7NOVso2ncqlzgFgNqLIQaFB2fZKnUgozsboUXYqIVfFC0amo8irNsTxdlB0LcFdun9LVft8aF8y6N91+vaTCv/GDIlNJqdagqcJZ+QNly5taRjQNuKp6pWiaXj210vJ22Dv8GwbY5uAmb5XeBf91apsHVgLn9ZZFVT3rXm+UzdKsqM5lPfWR3ASyDwGmDhdVLpTV02yqcqZrGZgbS79LssvDPd463V9kpuojUD6TN/dIl6puTP9kuhPzqqHsUoV7FgywtEWKawkObBnKxkjImAE2ObimzyBNW60jO1fglvKRssv/2rXTJWVxMArAJwIibm23iq22C9ruC6gs5/6vbKrmz1c1VQRUCOg3zx1kT94TEzkxg5cplbRCxlhBxgoZ56ShTCr7Ap4sP4zTR6kYLmOEFqQmjPWLMnEYw9MKKK0xbKJMVowzSW7iS1QDvou5rPQYx62iPMZ8fHl0yRfY57oRi/nAsmGcvYay+IoYp4tEa8YKOyiHVsAYgYVcWQHjrFASDZ9x1k8VEEi/iTKoXxhnVNzzilOUgumRT1WtB4x3baB4NY9xDkJ5+VE++9TTj4w1QCpbxvMsFM10GSdsqEmgS1wT1naMtU1fRY7nWihW9VTwEhwxno2CVdYkn44t+5Tw6ihS7cxYu4JjVjKyUSixzuYRt2RZ7wGWx1i3GpSo3VjSU6CyYrwl0tPPlLi1UZTmhfG6UKRLiTEKo20Yz9Vxh2ZIibCHYnz6jDeDMjNKzAWKoe9IZlWrtik1QhEGEePtBJQRO0qsNRTBPDHL66lDKacC1cSUEhdTcbFF4mhCvaZHCeeRuFXqUINa1S0lwjaUaoeUuHxAtW5AiX0Fd6t6lLp2oFLLo4wNxfqUCb+h1pgyXhUPaAaUin4ElBmGlJlCuSmllhrUMdaUCZoPp4pyewtqmBtKrVCAFaXOLajS9igTfeFBNhP4NlTo3Si1q6AAlR2lorGACmIcMa/jccwkGwt5M1eUOxkohHGi3L6B/NX3lBvjCTMmCYYCuRr4lHPNAnNJufCngnyJUUi5GZ6yYKJTB/lpH5jAs4pNJuTOHeSpfWSCBZ4jlky2spCP2pJJLvVi/yYV1zmA4URMsBRQMQPCeRXZMyYBpYoPp1H3mCSc6MhDZeQz//EHhMMUgmkV2dJ/fDL7/V/9KUDexjqyJmyXiRyRafYlF8xqyI45uTHZuYbC1c5Mdh3pGQ//mclmmdcZ5aLfFrLRWIRM4VhFCVSPTMGfmsiK9u0yhXEuOazcwdbwrEp/x1S2OkpB3zKNcNlGFqypzxSiQV5Zk5zvtPGM5vzGdJYVlERlyXROQwPPqfQ2EdMIunmGcXLetIXHNCdnpjVGiYyZUrjqaXiU+HBuTMdrIWPmgXdwna6G+1S+5memFvRQKr2AaQWrnoH7VT7nF6Z1MJE5bcm7hNufTw3paJ3xJuAdvCZKpukxvWg/bgncofG9DiihJov+Dnmn6Oh8f+iQ0dqD+SHifTYGSsfY8C7BdvJlpFoco9WV9wi/lefOcu528WN3GmYFf4hqo9MfO1s3ooSCnFVBLCtx2czsTi2mOdUPe7K6v4O8NnJjrPiM4Oq5p+Pp7F0DPs77QEl9eHxI5O7Xi+noe2D3+317MBxPndXeDfmQlYE8DQIqoKCBShaIesEAObP2LJJvo9Rsn2qp/6QnRiELs6mh5GobFiYcCahQ37EYNxsvwL6xGLv6m7dxaeAlGMv3Xx2GE1Gx4wdexseRikWOAbWaW6p0HQi8EDG4UqVtE+p1T1QlmOh4MfokoCqnLgohbJcqhHMTL8ich1TBtQWA950CoVPDi6o5oeLhV0/YJ+bJn9Xwwmozn3k62QKF+9oyL97IwIszRh7zsv1COTTmPnOw7Qm8AdHbMgf+vIHy0AYHZus6q+Nt1GdXZusw0FAyjYnLrASrrsBbEd1VwKy4kwZKqT1zMxn9voY3pPUzmQPurI0Sa/0c+YzLoqfhbWm9xYXPOP60UHrV/uLMR/ibURNvrzna+HzEedGv4lWY/dk+5B3c32FL4C8hWsNfl3cI97O+iVcjGvZ0fY6Y4Lp3hh0dfx29M3T2VyaIzuup3RB4XcL6HEwW64N7i8g/gstp+zsb9lo6/mp6qzec/W5Pl4D8I7q5h/ViMvi0BN6IVq1Z9Ubdskxd4H//IXTT+rd7alWV1+B/AKd2zKpKugoMAAAAAElFTkSuQmCC;" parent="1" vertex="1">
          <mxGeometry x="37.219999999999956" y="183" width="41.32" height="26.46" as="geometry" />
        </mxCell>
        <mxCell id="HKPMc-exNPZEN2zycEb5-49" value="" style="shape=image;imageAspect=0;aspect=fixed;verticalLabelPosition=bottom;verticalAlign=top;image=data:image/png,iVBORw0KGgoAAAANSUhEUgAAAgAAAAGwCAMAAADohC0gAAAAsVBMVEUAAAAAAAAAAAAAAAAAAAAAAAAAAAAAAAAAAAAAAAAAAAAAAAAAAAAAAAAAAAAAAAAAAAAAAAAAAAAAAAAAAAAAAAAAAAAAAAAAAAAAAAAAAAAAAAAAAAAAAAAAAAAAAAAAAAAAAAAAAAAAAAAAAAAAAAAAAAAAAAAAAAAAAAAAAAAAAAAAAAAAAAAAAAAAAAAAAAAAAAAAAAAAAAAAAAAAAAAAAAAAAAAAAAAAAAAAAAAk2wLSAAAAOnRSTlMAAwUICw8TFhofJSsyOD1BRUhMUFZbXmFlaGxxdnqCh42Ump+jqK2zuL3CxsnLzc/U2Nvf4unu8/b6Gub6FQAAEgFJREFUeNrsnd1O4lAYRTflvxQQrQGRIohUwGEELIWe93+wSZrMjLEyfvE41HO6170338US1k4OIEXDaQ+C4NrlIQpJcxDGKmXt8xoFo3wx2ahXLBu8SXFwh48H9YaI/weKQeVyulPvsa3wONbTGi2P6hRT3sdqqv59pP5Fwo8B1lLyglWiPiLgoaykfv2wVxJWvJV1OJ3xWknZ81520UhDj5yEJ7Mx9Mg58Gw2hh45z7ychaEnC0NAsUKPnA4PaGvo4bdAhp6P6fKOpoceCoChhwJg6KEAGHooAIYeCoChhwJg6KEAGHooAIYeCoChhwIwPvRQAAw9FABDDwXA0EMBWE259zv0UADFw71dHFUKBVA4qlfTF5VCARQPb7RMVAoFUDhq/myvUiiAwlFqj58SlUIBFI5Gfx6rFAqgcDjdu2d1RnYhBfB9aN6EB3VOkrtqRAF8l9Az2aqv4bgIFonI8y3cUACWhZ7tpFf2IyVg3wccCsCm0HMIb5qAu1ASZjWAArAo9DzfdR0ATiByyaYDUADWhJ543m8gpbNRAo6BA1AAloSep3G7BKTUZkrCwgUoACtCz37m1/CHvsgokQ+AAjA/9CSrwCvhL62V6K+mVYACMD70RPd+Fa8pjxMlYO0BFIDpoWc5auENvZ0ScBiWAArA6NCzm15W8JbGXEkIGwAFcG4qXxh6HocuspSGsRKw6wGgAIwNPZvJRRnv4a1lu08FoABMDT3hoHFKMBPp7gMKwMzQsx53HJxCtvvEAwAUgImh5+G6jtM05bsPBWB66MnijMS7DwVgfOjJIt99QAGYHnqy1O7Fuw8FYHToySLfffY+AArArNAjQb77gAIwPfSkfHb3oQAMCj0i5LvPbQmgAIwPPTq7DwXwn6ifKfR8fvd5uQRAAZgSeuR4P8S7DwVgcOjR330oAJNDj/7uQwGYEnrkNB/Fuw8FkMs77PqhR3/32XYBCiC/d9j1Q4/+7kMB5PAOuyT0NCFAe/ehAPJ7h10/9OjvPhRAvu+wy0OPHHepJEyrAAWQyzvs+qFHf/f52QYoAH2agzDOMfRkuZDvPhRAbu+w64ce/d2HAtB/hz2/0KO/+1AABoce/d2HAjA49OjvPhSAMaFHzpV896EAcg896fNcn0B796kDFEDOoSee9+v4WpzRQbr7UAD5hp70eS4NdHcfCiDHH9yLZn4NGujvPhRAbqEnWY48nOJXe2e2nFiSBFG/l33Rina0gEqiKO0LIMj//7CxeeixGetpr1An3CSj/bz2Uxtup6rCb0ZEcRLT+3DKz/8vAA16vsnneFAHoZreRwJIMuhZTofdzSnqemntfSSAiEFP1B52ECrqfUr8Lc7+QgAa9Nj3sG+SlrH36QASQI6DHk5xbu99JICqBz1tEKrufSSATAc98b3PYw9YtwD2Nejhe9gJlfc+BSABZDzoie99JICcBz3xvY8EkOOgh7Nj7H1qgASQeNCTtveRALIc9HCObb3PMQAJIOGgJ33vIwEkG/Sk7n1edwAJIOWgJ33vIwHkOOjhtO7MvY8EkHLQk773kQA2NOhpwEDy3kcCSDjoSd/7SABkPVcGg57Y3kcCANAYjD8TDHoS9z53LUACIHvYEwx6UvQ+/gXA97DnN+jh7LwGA8vrGpBAAE73sPNBj8Pexy4A/wf3+KDHZe9jF4D7Pex80OOg9/EngM75xMGgJ7L38S0AvofdwaAnqve5LIEEAvC2h50Mehz0Pv4E0EhwcM9X7xMvAP8H97a+9xnVgTQC8H9wz2/vEy8A/wf3suh9zgsQ/AmgneDgXgo6E3Pvk1QA/g/u+e994gXg/+Ce/97HLgDvB/fS0xwHC7+6QAIB+D2456D38SeAutNBT3zv0wSSCECDHpe9j10AGvQ47H3sAnjUoMdl72MXgAY9qXuf2QBAMgFo0LMxeo/m3iehADToSdv7PPWBlALQoGdDHH6ae5+kAtCgx2PvYxeABj0Je5+PfQCJBaBBj8veJ14A6Qc9HWRKw977pBeABj0pex83AmhVNOhR77ONAmhevlQy6FHvs50COF94H/TY2Xs39z5eBFDeVTDo8dX7/OwAfgTww/mgx05xZu99/AjgZKODHvU+2y6A2nxjgx71Pq4FwAc96n0yEQAmGxj0qPfJRwD4dDvosVMO7b2PNwFgtc5Bj3qfDAQQEYAZW8+l3idLAeBzLeu51PvkKgBMzAf3PNKdBgu3TcCpAHBiWs/lk9rVMhh42wHcCoAPgvgedvU+uQrAroD7El5p/TD3Pv4EYC+DJjX8GfU+jgQAlJNAmNbxP6j38SYAoKAOeGjAG/Ubc+/jRQCcYhwIz00AgHqfvAXAuQmEtxb+eb3PfQvwJQDOFW1BOvBCEdH7OBAAYRgIsy58sPNi7n1cCoBnjTDvqfdxIADO8Yr9laiP7Dmy9T4nALwKgDNYsonornqfyjmteCHI/hf7g3EfGVPaex/fAuDs0gQM1Ps4EACnv2CT0WP1Pg4EwOnNA+EMORLR+7gUAKc7C4QhsqP3YO59JAAA6HwEwpV6HwcC4LTeAuFGvY8DAXCaz4EwLpALbXvvIwH8N42HQPhRqPdxIABKfRoIk9JP77O6rgESwJ+oUXlOa+p9HAiAUt4Hwq+6j97nFEBWAjhAZRS3gfDUVO/jQACcUSC8trLvfXYBCYByHQjv7ax7n+VlCUgA4FwGwmcXW0jT3vtIAL/nPBBmvWx7nyMAEoCFEzZJn/fV+zgQAOeIJWCxo97HgQA4B/RDwb3sep+LApAAvsMe/UzsMLPepw1IAN9kh34mdpRT73MAQAL4Nv05S8ApktN/zqr34ZQfEQJI8pnYRfLeZ2XtfSSAzXwmpt7HgQA4bf6ZmHofBwLgtF4CYazex4EAOI3H7ftMbPfN3PtIANHUf/F9cup9HAiAUvsZCD9rqJbTubn3kQCq+UxMvY9HAdj3yT02tq33ee4DEkB1++RemqiGgw9z7yMBVLpPrq3eJwMB5L1Prriw9z4SwCa44Pvk1Ps4EADn1PCZWNre56EHSAAOPxM7mpl7HwlgkxzyfXJpe58fTUACSPqZ2IF6H5cCsH8mNlDv41IA9s/EjtP0PtMuIAFURG8WCOfqfRwIgNP9DITLynufcQOQAKqk8x4I1+p9XArAvk9uVGHv83VRABJA5TSfAuG2QCzte3PvIwGkoP4QCHeleh+XArDvk6tV0Pvc1AEJIAG2s6PqfRwIgFLe8bOj6n18CsC+T069jwMBcEb87Kh6H48CsH8m9t7ZTO9zVQISwJYw5Pvk1Ps4EADnnJ8dVe/jUwD2s6PqfTwKwH52dLGr3selAOz75PbV+/gVgP3saHzvM2kDEkAM23l2tLhYmHsfCSCGdGdHV2fqfVwKIP7saH1k7n0kgBjS75OL7X0kAAOZ7ZPr2HsfCSAHmi/fOTtaXpp7HwnARF775Oy9DySAbKhPjfvkmrfm3kcCMJLTPjl77wMJwEo+++TsvQ8kAEKmn4nVrs29jwSQJeNAeD2y9T7DApAAMuUmECJ6H+cCeIIbLkMUnwcAJICcuQgES+8jAWQK3ydn7X0kgKzh++Q4izMAEoAD2D453vtIAA4g++QI73uABOAAuk+O9z4SgAPYPjne+0gAzujOgpH5EQAJwAFknxxh3AAkAI+038PvedkBJACntF5NvY8E4Jbm0+97HwnAM/zs6GMJSAAU55+JTWoSAJxTTvk+OQnAO1e8/2tIAO4DQHluSgDeA8B5a0sA3gPA+ehIAN4DwJl1JQDvAeDMexKA9wBwFn0JwHsAOF+7EoD3AHCW+xKA9wBwlgMJwHsAOKtjCcB9ADhnEoD7AHCG8MjJXwhAAfgzVxKA+wBwbiQA9wHgjAsJwHsAOHelBOA9AJxJKQF4DwBnWpMAvAdgxs+O1iUA7wH43T45CcB5AIBRILy2JADvAcB1ILy3JQDvAcAlPzsqAXgPAD87OutJAN4DgBO2TWzelwC8BwADenh2RwJwGwDb2dE9CcBrAIxnRw8lAO8B4PvkVkcSgPcA8H1yq1MJwGUA7PvkLiQAnwGwnx11JYBDBeCPANjPjkoA3gOAFj87KgG4DID97OhtIQF4DIB9n9x9KQH4DID97KgE4DMA9rOjEoDzAKD4EQiPDQnAYwDsZ0dfmhKA9wDghu+TkwC8BwBXfJ+cBOA9ALjg++QkAO8B4GdH5z0JwHsAcMQ/E5MAvAeAnx392pUAvAeAnx1dHkgATgNg/UxsIAH4DID5M7FjCcB7ANCbBcK5BOAyAPazo0MJwHsA0HkPhGsJwHsA0HoLhJEE4DIA9rOjt4UE4DwAqD/wfXK5COAZCgAJAKE+5WdHJQDnAUA54WdHJQDnAUD5m31yEoDzACCjfXKFBLCBAACjQHhrSQDeAwC+T64jAXgPAIZ8n5wE4DkAln1yEoD3AOCY75OTAPwGwLZPTgJwGwDbPrl9CcBrAKz75CQApwEw75OTALwHAL3t3SdXvEsAmwqAfZ+cBOAzAPZ9chKAzwDY98lJAN4DgCbfJ1dIAB4DYN8n96OQAHwGwL5PTgLwGQD7PjkJwGcA7PvkJADnAUBxy/fJSQAuA2DfJ9eSAHwGwL5PTgLwGQD7PjkJwHsAuANmXQnAQwB4OcyY9yUA1wE4XAbOYkcCcBEAvk2Snh2VANwG4CoYWB5IAD4DUIyDidWRBOCyC7gPRlYn2CzHEkD1AWj8CnbOJQBvAWi/hu9wKQE4CABfH8i5lgAcBICvkOWMJAA/Adj/Ct/ntpAAHASAvhHm3JcSgIsADAOBMalJAA4CMAqMGd8nJwHkHoDyLjDG/L8/NCSAvANQnwbGFcA/FHxuSgA5B6D1FAirM8s+OQkg3wDw2wHLgWWf3EdHAsg1AHz8s9i1/Tth1pUA8gzA3sK8Je48EOY9CSDHAAyWgfDWsc+KFn0JIL8AXATGY/M7cfnalQByC8B1YPysf3efnASQVQCKW97zlN/eJzeQADIKQG3yd7r+/oKeHZUAsglA8yEwLsg+OcKZBJBJADpvgbA8ovvkCEMJIIsA8PPBi72IfXISQAYB4I//5v2ofXISQOoARD7+e+/E7pOTANIGIO7x31Mrfp+cBLDNAbgKjGkd8WdHSwkgZQBiHv/dlevYJzetSQAJAxDx+G+0tn1yEsBWBqDxy/jYK/7sqASQPAD88V/8JHccCK8tCSB5APjjv/g27yYQ3tsSwJYFoD9f9+qnS352VAJIHgD++C/+SuwF/6BMAkgcAPvjv9f2BjZKzfsSwNYEYBgYvxogMI742dFIAbzoJ15TAEaBcV/b0FbBrz0JIF0A7I//CkSwx8+OSgDJAmB//EeIPzsqASQKgP3xXyx9fnZUAkgbgM57iHJ0/NlRCSBlAPrzCvY+8xnjpQSQJAD2x3/xtKlmbiSAJAGwP/6Lp0V7prEEkCYAF4Hx0MT6aD7xfXISQIIAXFew4Mt8dlQCqDoAxW0VSx7tZ0clgIoCEPX4b3NnR6d1CaCaAEQ8/ouk+MHPjkoAlQTA8vhvgI1Q8LOjTQmgigBEPf7b8NlRCaCCAEQ9/tv02VEJoIIARDz+i8C4T04C2HgA4h7/xXO2ovvkJIBNByDi8V8k9n1yXAAD/bIRAeDcldgQ9n1yEkC6AIwQS/z9meWBBJAqAENUxO6CTiEkgCQBWB2jAkz75CSABAH42keF8H1y5xLARgJQ1fgn/jOxoQRQcQA+u6gY/jXqlQRQaQBeWqicFi2kHiSACgPwq4EE8M/EJIDqAnBfQxIa5KMECaC6AIwLJKI+lQDSB+AK6ahNJIDEAVidIiXlnQSQNADLQ6SluJUAEgZgsYPkjCSAZAGY9YD0XEsAiQLw1sZWcCkBJAnAQxNbwrkEkCAAkxq2hpOVBFB1AG4LbBGDlQRQbQCusV0cLCWACgOwOse2sfslAVQWgOUA28fOQgJYM0Py+G8L6c8lgPVyRL7+2ka6MwlgrXTJ47+tpPMhAayVN3KvZytpv0kA6+SUPP7bTlovEsAaKZ7/dLezxHbTeJQA1kh3nuDx39r3ye3rh6TYL8FfIQHR++Ru9TNG0LoPf/B5gAiSfSb2s9SvGEV//BFCWPw8KZELl6vwH0b6/eOptRvIiu7dMvyb1aSvX++fSf1geDU8bHr8X/sX5XNQD+pwiykAAAAASUVORK5CYII=;" parent="1" vertex="1">
          <mxGeometry x="40.09999999999995" y="74.32" width="35.56" height="30" as="geometry" />
        </mxCell>
        <mxCell id="HKPMc-exNPZEN2zycEb5-59" value="Max. 40h" style="text;html=1;align=center;verticalAlign=middle;whiteSpace=wrap;rounded=0;fontSize=12;" parent="1" vertex="1">
          <mxGeometry x="238.3399999999999" y="431.15999999999997" width="67.02" height="30" as="geometry" />
        </mxCell>
        <mxCell id="HKPMc-exNPZEN2zycEb5-61" value="Build environment with required packages" style="text;html=1;align=left;verticalAlign=middle;whiteSpace=wrap;rounded=0;fontSize=12;flipV=0;" parent="1" vertex="1">
          <mxGeometry x="90" y="229" width="141.12" height="45" as="geometry" />
        </mxCell>
        <mxCell id="HKPMc-exNPZEN2zycEb5-62" value="" style="shape=image;imageAspect=0;aspect=fixed;verticalLabelPosition=bottom;verticalAlign=top;image=data:image/png,iVBORw0KGgoAAAANSUhEUgAAAfoAAAIACAMAAABdKl6ZAAAAt1BMVEUAAAAAAAAAAAAAAAAAAAAAAAAAAAAAAAAAAAAAAAAAAAAAAAAAAAAAAAAAAAAAAAAAAAAAAAAAAAAAAAAAAAAAAAAAAAAAAAAAAAAAAAAAAAAAAAAAAAAAAAAAAAAAAAAAAAAAAAAAAAAAAAAAAAAAAAAAAAAAAAAAAAAAAAAAAAAAAAAAAAAAAAAAAAAAAAAAAAAAAAAAAAAAAAAAAAAAAAAAAAAAAAAAAAAAAAAAAAAAAAAAAABa5Z9DAAAAPHRSTlMABAYJDBIWGh4iJSktMjY6PkFESE1QVVldYGRnbHF1eXx/hIiQlZugpaqvtLi7xMjM0NTY3uLm6u/z+PxUG7kwAAAc/0lEQVR42uzb6XKiQBDA8UYOVwWJiqjxVjyiggeIHP3+z7UftmpTphKa7A4aYH4PwIceqqbqX9NQUNLICaKrs5n39Spw5VGzAnwXufvVpKtJfC6F19rF+Jng9LYctusVPqFiqgzOmCz27PWs11T4rApFmfmYVnjZWWND5fdAEajrCL/vdtwuXls1gc8vtwwb/0fk2uupqcl8kDkjDV1kIzjvlqNOQ+QzzYXqMkDWfGczH7zwKPCjNbcRZiZyDzwK/EyCeUTGeBTIA3ni4UPFV3s96+s8CjxZfRXik4SXPY8CT9Pex8gWjwLF6LUYb3uT1d6NkAk6Dk97TR4FMqfMfSQEy1/wR1XvzzfONUYCoyhg8SiQHXUTIcEdSfCB2OiMlrtzgJ/gUaAovdY24EvCIkYC4yhg8ijAgjRykRCtVfha+4L3eBTIhV90r/XnStIH3vAejwK5oL/FSDgPKvA1cRYi4YFRoMujQDpC74iEeNeCJIaHd3gUyAN5ekVCaNUgSX2P/4JHgadq0L3Wm8iQRFpEyEL2UcDgUeCv9h4pjilAIvOKOeI72/ngpW2oUGbi6wUJ0VaDZA0bWTrYboQP4U8kKKnq4oaE25JKZpIVI0NHHQCEWut1sT36mLWbAWWk0b32MhSBMPCRoWv//rdSjbG1u4SYmbgPZSN0baQcOkDRHGQonIvwKaXZm61tL0b2ojqUijT26F7bAIq8ipGdeFOFZJV6e7h8O92QpU3ZliUJ/kwGijC8IUOOBmlJWpfdS4FA4L323alfAZJ+QoY8E76B6UuBGpRCpX+ie60ONGWDDAVTEdJj/FJAgxKQ6WXJwKoBTRgHyE68UoAFWTOnq4Mb8aP/qEEvS3pjCVJoXZAhWwWmhFpr8J0o0ISC6xyQYncFSKG6RYZcAzIiqcaIiAIlOHpxmLLX0irTENkJxgJkTWkOA0ygl7zXLqqQSsdFdiJLhgcwfUyi/2bvXnfTBoIoAB8HnAQICeF+p9xvwRACGPC8/3P1RyvFVdodm92OFHu/R/CRLJadM0ZSFfmy5L6dQSS5NRm0LkDA45oojdE7dY9PoIxoMkYv5fcVCHB6F2KUkEBZvix5mRYQUf1A5vgdBwKKO2K9InFykwsxjgMXIWKX8texCwHZcUC81yQut2NsG070h3glc1Y5SKgcKIpy6sqSyxdE1jyRObtXSLhfUDTl9JUlI3vyyJxTCyLaZ4qokszldnxZUvZS/jrKQkLBo8gqtiz5d22fzFk8QsLd8ErRVdNSlpwXEcPz1uzEpYgS8xT8c9Kid0fxypK8+1lgdOJShDsjtbm7o7AavrvSKVZZkud0z2YnLkU0fFL6KAMJi754IaVgXUYspXezE5cicm/cz8wMgG2ionf2pLYZhFbUC1/Ke0WIcPoXUvKegC/R1/G9VaMWz6f9WtEVvZQ/1CHj+Z2Uzh384iUq+ukNndOnLHMpLzdxqY8vgC0f8NfoG/jeNrfuHhh3Kvk7hOVWZEwwu4eM2pGUjlUgmdF7WgEdvcWo9Wv9RGZ4FZ+41PewIqVgkv3nw2qmInp+/cT8ID9xqY87hu6KCNvY6DXITVzqXy9d+g4U0bds9EYFUxci+LGxtxxgoxezLkBI+YOUTg188UZhbRu9/MSlPndOajMXX61t9P+H33UgpOWT0r4EsNF3bPTCE5f68htSug7vkLroh7XeZL2/kLxVHkLuflxJycvjH1YU1k1U9E2N1rGWXV/q+5Uve1I6t4H0Rh/ePqG5hUjrhsA8fmBwcQ8b/Z/Fc2YBiVH+bjnuVAoZ8QIlHSpQWVJYL1nR84uoFtuT4GLSUbucc6QKlME4Axu9UqZQ7Y6Xu7Pcgur5sPny8L8LlNsiGAsK6yc5en4XWe8k+8EaZmRIo0B56Tqw0cfxQXLCI0P1omu0QLl6BGz0sZyJIXAg0C9QnmqIYk5hg5RHH5AGkQMBX6AMplncEP2PdEfvkgaRAwFfoHx/AWz0saPPkwaBAwFfoLwOHEQ1o7BhuqN/Jg0SBwJuYnCTB2z0t0RfoW/Nb2pMro/SHX2TdGwG4RsCeXMXNvpbo++Rjsnvv4elvmT9tUBpo785+hHpGCHEfW6YfQnwBUq96Mfpjn5KMbHHIydf7ghcEHhPiG9io/+0IB09Zkm9xkuAL1Da6PWifyMdXbCcnMZLgClQakY/SXf0O9LRinNLWO8bmhk7VnGjsY3+04F0NBDL5+crfVLgC5Q2egPRn0lHDQrcqADzEuAKlPrRT1MdvUNaKtD1+NpSvAT4AiXwk70z+2kiiuLw6SxWFoUQEJAQAcUY4hJJ41P//8euiKyyVlYRSiml7cz4QEIbW0baGZY79/se+3i//M459965aSfMoP6GZ8lADEpIWP0jk43/LvR9QIn6cNT3JQPxUkImPjg+/eHzt9sfUKI+LPUDyUD0y/1gzfo8oAzAdLKZ91qrH04GolfuibdtH1CiPkT148lAxB9O/ZiEwNSD/JW1ISpgSSBcUQtPWtBWvR1UPaiq3pRAOEqnPkbBJ/So71w9vR71ikDBRz2pD6qeMU9V9aZJ6sPH4EQH9dE90fEo+KQemjA4x2Vfj3oKPgWfgs+YR+ofG5PUU/AZ81DP9Q3qST3q6fWob8FBs6rqLYMjHV3VCwVfU/W2kHpST68n9aQe9fR6Cj6pRz29HvVc2iqv3iT1pL4rXI/rm3YY3N5wactXmaSe77Po9VzcMeFzmEfqOcwj9Sql3iPgFHxSj3qg13Okw+0NRzpPEZOCT+q7w2PMo9dDMwYf6ZB6Uk/qUc+E/zSwYxIMh329qurFl3qdfX1U1Vvig3eYypyReg1Tf5ZdqVbymw69XjP1l0v5kojIbrbon3piH62CX9tMHcs15fy2G6lej3qf1Lv7qV2vsVbbuRKp1yP1J5m1mjRTyhZcjnQipt6UFkrfF8stRXIjX75FPQU/Kqmvrmf+SBvOs3seqY+weudXak/a46wvVNr9zOYuEuqP0z/rPvv8zEFr6D3GvAioL+aWKuJHfXXxqqXek3o11cca6isruaL8j5PM0b/ryJinpnr7JtA76UO5A7Xl5Zo04ZB6tdV7B6mtu0o8Sp/w+EZx9Y1Wf5pdrcqdqS6u1ZtSz5inburLPxZK0hH76dPGmEfFV1V9bTP9WzrlamHDuVlGvstUUr25l9rtyl4hU7xOPQVfUfWF9Zp0x2Vuy+Uc10d9lNveTvZcxKPX+6iPLBe5gkvB10x94yr3gtRrqV7kvEDq22Mw7jDmAft6IPVA6oHUA5s7YHMHpB5IPTDmAZs7IPVA6oExDyj4wL4eKPikntSTetSTetSTetSTetSTetQD6gH1XN+gHlDPmId6NndArwd6fdjERntYah17vf0mMWtjUL9e3zebmIxjU7/UD338OmpiT7teb76enxtkjfWb8OMziZleND5ZLLknXkwMsXHUMPWxkU9fhjGvX+qt8dHnrKyG6nsmhi3WVcOCPzA3P4Z5/VJvvBrrZ0k1PNKxpxLv/rJ3r71pW2EAxx+DjbkT7hBuBYPjQDB3MPbz/V91q7ppm6ZqmtSpSbNWnaqqa9M2ydRtqtN1Pseuj1Nwz+99XsDfPvg5cBRenonrvbrrUw3+SP9V3vXFk1mFl//67vporZoEsqtrvpEfvrte7i27lPJvT795yQvuGjH4/do/H59f8jc6ZHe9UNFp+7XXf/z47SkvH4LPeo/7tZdPT/lKH7q7PtFfdijlL367+4CXD9tnfb6eF4DsxePf+T+RDsGC73W/9vrZ6XNeMGw/0IrR92vfnX3zEy/PjLAbd336kLpf++r88TveK2wLfqmeA4rnZ095urAt+NHGQqOUv3py/3tePmwLvtwsi0D25smjNzxU2E7fZLVFnVL+5S93f+XlQ7bgCxVdp+/X3ju74m9nuH6bJ7UXahaILs/v/fCMBwvZE36yUYoC2cX52VteK2wLfn5IPSz54sHdh7x8yBb8SH02KghAcv30u/vn1+CCwHt6EPuiC36sUY4B2bsnj16DK8lehvd0T6nBTfnxxcWrV6/fwq1IqyZSLJoiuCMqJn6sFpZGiOxfmTjE/2XMhkqzmIpCkEpjpBmXwK3aGpGnd02eItlaP+rWD2RgT2wukMJU0+BWWkfk6d3LrNAdc3EyaFcyErASVwykWHdj4JY0sJCn96C0RY+M6bHSKCQj4E9Ws5BiVo+Aa4cbRJ7eg7aFn8lajY+6tVwMPodQnSCFNcyDe9kJIk/vQWKEvpnzUb9VTovgntRZIcV2kAT3YqqFPL0H0Z6J7GwmWu+wkBCAJjnYIsWyLYF7QtNA5Ok9KC8xANZyrHaq2Rg4yIwspNArAnhwMEPk6T1InmCgtrNhv1lKyWkZburSwptaFryQNUSenoCw6RW4dc9evTtIZigyeBHpbJGn96K6wtu0bcE/UhYSWdodTzNDcYHI03uQGuNtU+Fvquu9o46LvaPEEJGnZ7TW6/3hbItBaMB7S/RiOx8NWmWnSyDaNZGn96K2RifrKrwnZasddby0kKVNBAAEpCB8jVRKi5/MJzy9B2kdnZiKCDcJicJhT5tskI0SAIi+dw6URjEV/Xc+4enBPbFvoZNxyumP0uVWfzQ30Z87dnq/1vrQRJ7eyyurr9HJqgI0sVytezReWfh5+nZ6Fnh6D68sQ17r3Yokiw3leGrw9Luanv5ltu0kCd5JmUp7cLIw0aUBT/9l0h9u0MmyDH7E8/Wupq95+t1Mn52gE7MXBRaiqVJT5+l3LL2kWuhklABWJJXf9buVXmgQ1voSMFNdU7dyRfjE658TCTkux/ipCfZy3TQ4uDp7eAmMxJU80In4X4sPHxct+5mRranarReS0a/tro+p6GiYAFaE9hZpjkjp7Q3EhhLQtwjGbDjo1A4SkZCnp/9waVEEZjJTRAbpbXKu1tUmBgZiPRn229VcXAhx+twMnWzvRMA/e3eYZXqbmKl0VH1lYSCslX7cb5WzcujSyxo6Oo4DM6UluqJ5Tw+EBwGGzKWuKc1SRgpHeqFloJN5AZiRjxGDTm8/CLQwUNvF+KjbKKbFfU6fn6OTbVsAZhoGsktPl8DbYcxP7LFgT9LT13pNBmbSOrp3zCB9FglCPBbQ09MnrXkeCBgf4NgwT19EugDHgkouLuxy+sIcnRgtAZgpLCjhay3m6asYPPpYoDTL2djupY8f385aLx0hmSpBE28aMkjfRM9CMBZQ0tMPJMwOgJ3aBokWeYAA0nfRh30cC+jp6QcSjKYAzCTHSGR2IwAADbxpxCB9H33Yw7GAnp5+IOEoBswIHROJ9BRAMOk19GHvxgJ6evqBhGkO2MnNkMhoAASVfoQ+7OdYQE9fWhJaCMCMOLCQSLPXl0O86YRB+gn6oQ5GM2O/xgJ6+sQInViqBOyU10i0LIKtzjz9Av3IAgBEk/lah3ANBD4W9OyxwHd64t7KJAvsyEMkshQRHNOPGaT31ysNH3y4BoYz4wuNBWq3UUyJ/tITDp9tDoEdoblFomkGPlJjnV6w0I8k2JhfA+zHAnr6FTqxBhKwk57QztALEHB6CX2RwUa4Bqab3RwLFHRNzwA7UcVColGcsu2q+0+fRF8ksLG6BoIfC7ynX9eBoeISidYVgODTZ9GXKNh2/hqwxwKP6a2+BOzENLS5/2SpsE5fwr/Yu7eeNIIwjOPvwoKCiIAS8IwgCOpyPrm83/+uJk2v28t607smbdIUaNKYrCR1F3iGfZkyv09g/GdmdgeGgSCTXjJbYwj+WlDlZTRTpNDZmH11j4hCSV9khEuQc9bAsEgU4oZ9KULLpG/h6S8ZMf7v009ubVIncuOyLydJ78mrTl9mxFB1+mqueH1bb/aeeDs4KVIo02Vfo1OiJdO38fRVRvRVpy/RKzuZKVxW7pzuiOUMCqRQrMaBG/Y+TlSnrzOiu7H0nsh+On9+U3toDyehl0/Z4R2g7OVWeSDv4OkdRrRDSO+x4ofHp6Vqo9l3OSyjduP1Z6Yw+w/sy61Eyd+x6vRtRjTVp19O7CBbvKq0ODTDZr18lktGgAOU4PvjYvounr7PCEciveeawzbpO96dRcoOUI4vKFhOdfoxI+5l01dYitvzfqYePkB5v0crp+/B6S2GNGTT37E0t/cQdG3VyYB9DfK0lKzi9HGG3Mmmv9+m7w7++8aavUbwlpFM+gOGVGXTNxmn/oXAu8Ey+ABlJ03LyvBbfTj9EUNuZdN3eVsN/15alGmyBz2me6Q4/QlDyrLpR6y1xwSRXPpThpRk07sMcKF7CnCjAtH66Qdw+kuGXImmtxkxIiKKpwulmjOYcOhqMVpNWnH6MkMuRNMnGDFY/H3qi0qY3yLtZYmg9EM4fZUhp6LpDxnRowVqLysJPkC5skPF6RsMKYimzzGiQ+/BJ4HgA5Ro+hGc3mFIXjR9gREtWhTWJDA+p7WkFKfvMORYNP1FSJ86Wsmcd1MFqh4nFenHcPoBQzKi6W8Y8bjOTRXgJOAdoJRP/8SQtGj6W5lPHa2EzyQQeIBybQdq00cZkxJNX2dEnUC2z3U1AQco8fRPaPo9xiRF0z8wokZqWImsd3dhwAFKRFJt+hRj9kTTtxhRJbXsw7w3CQQcoMTTu2j6LGNioul7jKjQZuwXfQ5QAhJq0+cZY4umHzGiTBtyABzNDy/9GWNINP2EEdfhpXdIgX1+a0JkE8ImyIwkxSzwj5cnGC+mdXraqfRzestC00eF/3uyU5bmIjs84RNkqvWoJ8ukB/6VmjHpzag36c1aj7B1njNtM+rXZ0d0HjjRnV7rCUxPmJkZ9bqmj5FZ6/Wd8G2T3mzkCkz4c5M+PHO1E77O6S3zhC854ZtPb3Qd9TZhpia9rhu5UcLMzFJv3uvNqN+8udJRbyZ8bdOT8Hu92cwTY5kJf11zs9Zrmz5q1nqgvEWYqXnC13TUx8i83O3qqNc7vVnr1xc3o14rZtTv6qifh7fW/5xtc/pI1Iz6DaX/9fnDpx8CT/ii21H6j3r8zXj29fmFvn98mZOP2Vzj9FPS3IbW+m/PX37/YdfedtMGoigM7zSgPkGlXla96FXf/yEqBRuTcKbkRMKZYALY4PFUSipoGiAEEoUZ/98jsLXWnhkjIqp2OjVz1du/64/eJfW+Vwzk0TDb2jR6Um9V6oOK58tCVMmH60fPrrfoSSe6clryRN/pHGbh85D7lsHR7cyFkv9EpdKM1B+A99z1w2x55ZA7Ts+2D3eikny5Sx/JE9Ni7l5WmxcqkTyjKXxDUr+5MqPzTFfWazkDdr01qU/JUtw8udaySXhWVwdV+KT+TVLfd6tzeUnD9bnXW7Lr5a9xPj+RLUy9i5hdb1HqZ7/dvmzpKjs6kF8v9Yl7/Z6jj28yN1q2Nvau42XqDQ69qCS/5h0vv9NsT59740VweNExNPXHi+80r3K/+JSrWPWGpj6ueL7sIK7lpqTe6NSXW7Ij321qRm9i6venqvlAJKbwzUv9/gZum9Enc/QSlYsBo/84R5KSD9M1+Qlfi6UPufZL7RlqZXzqGf0qYfVXWzbT7HoLR68aTjMqF2Zc7hI2et3J1CMR6Tld2SBm15tn84c73yuF8mBeLM9lLc2uN1RaVgrK3kgW2s6Ae30y+j66zLTlX7OzWsSutz/1unVy+Wygt+6Q1Ns++ju3Mpfngty5khVidr0lo58UTsey2nXW54Rv7a6f152erDXJXcW85lk5+vj2pKFlA33h3ZN6WxzLQs+pRS//qayhOeZZlvpRrjCVl+l6bsIxz6bRh9XsULbjZ5talhSFb/LoVSPTlK2p6llA6s2XevxOo+Q17twWu96C0Q+9UiivFFUKIQ+5ZksHpdxIdtBzu/JAWdF8CaScWHYzL375nhYRTerNFMeys47TJ/UJNct//faJv2okU9MZCCf8ZAoLwpMOKHxQ+KDwQeGDwgeFDwofFD4ofFD4IPVg9KDwQerB5Q78Nw+kHhzzwDEPjJ7UU/ikHoweFD444YPCB4UPXvPArge7HqQe7HpQ+KDwQeGD1IPUg9SDEz74fANSD1IPUg9SDy53oPDBax4ofJB6Uk/qOeaBez1IPUg9SD243IHLHSh8cMwDqQepB8c8UPjgXg92PQ6k8D///PGnnTNdbuKIovCZUWu6xwbbZYKXGC8y5A9FKnFSlQrv/wb5RSVVlheMwSzG+9zbsyQa5DRgWhibnpE0/T1Cn6Ouo3N7bmdxdqLlD2e8kPiEIMQVwpm5pYePf3v658bjn1YXZmJ/MYwD4uHP1495YnJ2fvnRk9+f/vHL40fLc9My8Ac4ssxvLH4mdSDwVYIoQknBxJooIfZHOVrc6UzDYJXeTiAlSnJi1pQQaX+qI4BYmw9wFYEbEMYxSjJi1gkllPkDHloWViJcJc9EgVvQmphASUqkOSGi3B/1cHFnfQpf4hQiy0PcHiEm0aPQpLmMA4U/9SGgvTZnCedvIXA6hRtjj4S5pjIO+EhYJ4srbXyZ830IvJqCA8LPI2GSeiUq5m7HKi09yyFwsHAX7jCRMGUfCeu96w3v/yFAoHj2JEYFCDGBEk3sI6Fzlh60YYG2D0pBAPqrcz+o0o5tlBS63xCRF+p7M9W5Cwv5y+0Mfemh/965F0dSClSKiYTMPhJ+T6I1+2/5sHv+SaWT7AFAW8VK/keIagmVMpGQ2UfC2xEsPRCwkGy9+WKbp/UJekgVq0hKy7imukiYkI+E38505w4s5Ps72eAil+iodI/qWSBSESxUGAkT3xBdj6hzHzbedS+u2eEXFxeHANBSKpaRVAJ9fCQcVoIHSwIWLrbefvP4Jjs7Qw8RK6UiKVsw1BYJEz80vMpMZ9Iq4v5OfvPJXXpygh5RmQYjkwZriYQZM7e92jDIzg+w8babfI+hLfMxeqi4vASiAHXQimOvNgzB8lILFs633gG3l96QJJe/w1i1pfI/wTqZXZuAhWxvt4BF+tuRn5+jh1AfooDwOgzVXf+mS4AL6Q3p6Sk+Lob8Q96qCJd/tN/13UPAqfT2Ysi/43XNvbUYFtK95wWcS28vhmJVFkNeIyeo9dnBd30N0ptiCNUVQ/ek5oSYCzSDcGWxBQtnm0dA9dLbi6G2clkMxTF65Jo1M/G4DwF+WLXf9c/3CtQhvR2t3RZD5nmYGQQxjeVAOO7MwsbBFgN1Sz+4GAqkKYacDoJyZv3BAxnGgtbKYggLp5vHwHBKbygui6F+N9h23gBDlyYY9W+H7q8qWNDPXxQYYuntxVCZBlsup4GTMKMgJmLKMWJMrM/AQnGwpYHqpHdRDMWRKYZcXwTEOk2ISWMUaK0uhLBw0j0GqpTeZTEUR5GUQSXPApAxa01ETAWGlrlVCQt69wVQrfTOi6H+W4GoqnlgoZk1ExOlGC4m16cH3vXjIb2h6EeBVn9AICp7G4JUX/49LFA/YnU+hIXj7glQv/Tui6EyDYZwjhCXFwGzZmYiTlEX8ysSFnh3HxhH6e3FUC8OtgO4J/ikJ0o5IeKal2MYildbKcZZensxJKWKorbFA+56Ik2mJ6p+OYbhePMUaID01mLIvQfshTGVPRETV7Ycw8A7L4HmSW/3gJLVeQBCmJ6IUzI9kavlGIb81XYKL/3HHjiye6CinkhrnTCRdvrB9NHmGeClr98D9p6IiW7aE6mNaNAH0zckQJOo3AMG0xMxDe6JJjdwDcxd76UfJQ8gY9MT3Vz695vngJd+RD1Q/P/3MP1W6ZPt14CXfvQ9gPTyGUH0KwZjlmN46cfLA0WAr3O4eQF46cfQAwb7cgwvfaM8YJZjeOmb5QGzHMNL3ygPmOUYXvrmeSB7sZvDSz98BEpKVx4wyzG89I3ygFmO4aVvlAfMcgwvfbM8YD6Y9tI3ygNmOYaXvlEeMMsxvPTjRyi/4oHXXQa89I3ygFmO4aVvnAeyszcvXX308y+j+zgoXkbC/AAAAABJRU5ErkJggg==;" parent="1" vertex="1">
          <mxGeometry x="38.11499999999995" y="229" width="39.53" height="40" as="geometry" />
        </mxCell>
        <mxCell id="HKPMc-exNPZEN2zycEb5-63" value="Then..." style="text;html=1;align=left;verticalAlign=middle;whiteSpace=wrap;rounded=0;fontSize=12;" parent="1" vertex="1">
          <mxGeometry x="44.799999999999955" y="275.5" width="230" height="30" as="geometry" />
        </mxCell>
        <mxCell id="HKPMc-exNPZEN2zycEb5-67" value="Run model" style="text;html=1;align=center;verticalAlign=middle;whiteSpace=wrap;rounded=0;fontSize=12;" parent="1" vertex="1">
          <mxGeometry x="97.21999999999997" y="307.5" width="76.48" height="30" as="geometry" />
        </mxCell>
        <mxCell id="HKPMc-exNPZEN2zycEb5-68" value="Troubleshoot&lt;div&gt;(e.g. modify code)&lt;/div&gt;" style="text;html=1;align=center;verticalAlign=middle;whiteSpace=wrap;rounded=0;fontSize=12;" parent="1" vertex="1">
          <mxGeometry x="154.1300000000001" y="371" width="100" height="30" as="geometry" />
        </mxCell>
        <mxCell id="HKPMc-exNPZEN2zycEb5-69" value="Evaluate reproduction success" style="text;html=1;align=center;verticalAlign=middle;whiteSpace=wrap;rounded=0;fontSize=12;" parent="1" vertex="1">
          <mxGeometry x="40" y="407.5" width="74.8" height="30" as="geometry" />
        </mxCell>
        <mxCell id="HKPMc-exNPZEN2zycEb5-74" value="" style="html=1;shadow=0;dashed=0;align=center;verticalAlign=middle;shape=mxgraph.arrows2.jumpInArrow;dy=2.88;dx=11.22;arrowHead=25.43;rotation=-45;fillColor=#B3CEE5;" parent="1" vertex="1">
          <mxGeometry x="52.65" y="337.31" width="58.52" height="40" as="geometry" />
        </mxCell>
        <mxCell id="HKPMc-exNPZEN2zycEb5-86" value="" style="shape=image;imageAspect=0;aspect=fixed;verticalLabelPosition=bottom;verticalAlign=top;image=data:image/png,iVBORw0KGgoAAAANSUhEUgAAAgAAAAGqCAMAAABKyQzdAAAApVBMVEUAAAAAAAAAAAAAAAAAAAAAAAAAAAAAAAAAAAAAAAAAAAAAAAAAAAAAAAAAAAAAAAAAAAAAAAAAAAAAAAAAAAAAAAAAAAAAAAAAAAAAAAAAAAAAAAAAAAAAAAAAAAAAAAAAAAAAAAAAAAAAAAAAAAAAAAAAAAAAAAAAAAAAAAAAAAAAAAAAAAAAAAAAAAAAAAAAAAAAAAAAAAAAAAAAAAAAAAAAAABU/knhAAAANnRSTlMAUOdEzzhoo5eOCIyABbwt9/xV8u3HFD0xKeAZArBxDtqq1QsgSGK+XJSfhR22iXckVrmbe02TlgDRAAANHklEQVR42uzci1bqOhSF4VABAUVbe+FWyh0BRQFlvv+jna0b9knP5pKAY5yknd8jrPyO1OEyQhKVJgXKvEkpEgc0521QTvSrTZHWWnIq+bJpCUniciJ54yZiL65wHHlUicVvVc4in6ri24yTyKuZ+CUKOIi8CiJeALm/BHo+x5Bffo9fAPk2EwsOIc8Wosgh5FlR8BMg13zhcQh55gnOIN8YAAMgBkAMgBgAMQBiAMQAiAEQAyAGIPECh6wReD8agLecrmJBFolX06X3UwF0WxyojVrdHwnAnXKUtpq61wfgNjhHezXcqwMocIo2214bwJwztFv1ugCCHkdot15wVQD3nKDt7q8KYMUB2m51TQBtzs9+/SsC6HJ89uteEUCF47Pf/IoAqhyf/e4YAANgAAyAATAABsAAGAADYAAMgAEwAAbAABgAA2AADIABMAAGwAAYAANgAAyAATAABsAAGAAD+NEA4mZDFvFIchbAG//XJN8BPCDtkWfyS33UG9UYQF7FAw8AXKe4rCQ3EQPImxJS+otZhwHkLwCZFyYdBpAbLQDJtjBN3m5DHzvechszgHx4BdAQO6vZfIjf2uUaA8iDCMAkVUT5Gd+cct2+AOqPTcljjQGcUwewFmnjewdf+lvrAhggpcgAznKB6d9ZrIv40u1YFoCDtDoDOCQex/LIEnFAYQgAwYwBZExUuAt9rORXGz4PV1IOAOC2xwCyY5yEHpD67isCb8daGQDAsMUAsmE0DbGXiL3w1OsbTwEAf8IAMqBzFxx8dXEJ3IqjXkMA3pQB2K4zdyHbyL84dcVx9QoAJAzAarV7/+irax/Agzgl8QAkDMBikzb+y6tJL7iG4qS1B6DMAGzVW+CAlth5AYbitIILeAUGYKdS//Tb6+8Kr3CuPcBvMgAblV0clIidMhCIc8oA2hEDsE48xxEfYmcGeGr7tJuYAVim1sUxz2KnAGB0vqQlgIQB2GX0jKMcsXMDIBJnRW3Afcx2ANFYNsry+Us/9SXFt/gbHhDGWQ7gyYPMHwu71Zc4pSktBTZVj6+c5QDmSHsSdlvgpHVqKVBBrQ8EUYYDqGQrgHec9plaClSxBVBlAJaYeDhtkVoKVLIE3FcGYIWOgzPC1FKgkkcPmDMAK2xwTpBaClQzANyIAVigjPMieSlQTRPAJwMwX8fHeSV5KVDRA9COGYDxBlAwk5cCFRUATBiA6UpQcS8vBSqqO8AtAzDdM1QMpKVAnTP0awzAbDdQUpSXAlWVAEwYgNkeoMSXlwKVOcCcARitCUUdaSlQ2QLoMwCjfUBRQ1oKVDYD0GEABuv5UDSVlgKVjQEUGIDBplD1prMUKI/4ngEYbANVXXkpUNkS6DIAc/U8qBrKS4HK3oAhAzDXGsrcWFoKVFYG3JgBGKsCdWNpKVBJb9y8eQHQYQDG6kPdjbQUeOLI1+XPu0U3HDoedpoMwFQRNJQPLQWOXqUjd5HCAIx3Aw3VP0uBL19H/tF9lo78KL//xo9AYyXQsBTfXJzht4sPg8pLMt02WlGdG0Em+4CGvjS040feSQ2Ra+Fm20CDV//3XNzfR/4+LTQeOzWRwgDsMYSOlvjW+uvIGYCtAQTQsRV/MIBMBBB70JEwgIwFMIKWCgPIWAARtDwwgHwH4EcMIFsB9KCnwgCyFUANerz9CFbht+cvD182yy/dvcHe7e1tiQGYy4WeZ7Ezh7ICAzBXGxKd0xz1oYT/GGK2EJraNekVMDW8Agw2gK53sVOFojEDMNcLdPkdzUvAqzMAc62hbSH0LoE2fw00WAv6SnqXwIYBGCwOoC0UWpfAGwMw2RL6ZlqXwJoBmCyBPmekcwl0GEDWPgLwonEJ9Pm3ALP1oc8dq18CcwZgthdcYCAd0hk3RgfQ1gqgdfK5+IKw0iMu0ZAehT/JqRsdwL3vyj5EyixwZZu6kDUcV1aMhJ1CXKAYi52Sh+P+z8eiSdEUlygrHlOTAZiu5uACTk/pEggFAzDeJy5RFSqXwBMDMF8vwAW8lsJBDWMGYIF3XGIp9mpDHLEWDED8097daCWucwEY3hYQRZHWlkLLryCiyAc6Ovv+L+1znTMzS49IR1DSJO9zCdnvItjQWH6Nse5iVrgJVPsEYIUj3cWkKb+tdKOOEIAdBrqLYcEmsBACsEQv0R0k6dZNIEgJwBqXuosT2bYJzIQA7HGiO4haWzaBUyEAizTauoO5fLgJzJsEYJVerju4/OhcOe8JAdilFevn5Y3Nm0CSCQHYprNLAc8bN4G4JgRgn8oOBcS9DZtA3BEC8OUzoC7vNoGgKwRgp1a+x4tCIt1IX0wehABs1WvrZ7Xl7SYwGAkB2KvxpJ91+3oTiNYiBGC1y2TnF4VEul0hANstB/o59/IKATjgMtfPCHsE4JjGOtG/Vp3xCeCe9D75y/E/9oUAXDQ9rmqRaFAREQJwVe002Db99jAVIQCn9bvP81A3CK5ueiJCAB5odm9OB5Mk0n+Eebv+fLSUFwTglX66vF6mU/kXAYAAQAAgABAACAAEAAIAAcCiADrnJ85bXTYIYLP0Qr2Q1whgk0ZVPRFnBLDBUL3xgwA2aKs3opQA3kvUHzUCeC9Xf2QE8N5CvRH0CeC9LFRfDPkSuMltpH5Y8Bxgs+4gVueF7VueBH6s4TzOAkAAIAAQAAgABAACAAGAAEAAIAAQAAgABAACAAGAAEAAIAAQAAgABAACgKMBZPVASymoZ/JGZ5CoQ4J6VoYALkMtrfBIXlmra8JLXg7dLnyQP2bqnjAzHsCTltqJ43eZPBkPYKylNpbfGpE6aMwVMdsF8luqLkq4JGq7tvzWj9VBVeMBrK251WOhDlobD2A60RKbTOWPZaLOmUyNByC9tpZWuyevtMbqmHavFI+CZ2f1UjqbyVvNx7u6Q85mnAWAAEAAIAAQAAgABAACAAGAAEAAIAAQAAEQAAEQAAEQAAEQAAEQAAEQAAEQAAEQAAEQAAEQAAEQAAEQAAEQAAEQAAHsGED/oYbDuy5JAP1hoDBhfFuKAOpMwpj7EgRwwxgMqpgPoMoUDBoYD6DBEEwKjAcwYgh+ByA5UzBobj6Ac6Zg0K35ABp8CzRn0DcfgIx4EGBIdNosx6Pg5eMxDu8o5TAIBAACAAGAAEAAIAAQAAgABAACAAGAAAiAAAiAAAiAAAiAAAiAAAiAAAiAAAiAAAiAAAigIIA7ls9+d3sEcMXy2e9qjwDGLJ/9JnsEoEvWz3ZL3SeANQtou/VeAQQNVtBujWCvAPSeJbTbue4XQNRhDW3WifYMQJMWq2ivVqL7BqDxjHW01SzRIqLFnnospY16T6pfEoCGi9mI9bTLaLYI9RMBFAomVVhjEuhfEq5achMBgABAACAAEAAIAAQAAgABgAB+Ced36+Pj9d08JAD/hItKU35pVhYhAXglOuvJG72ziAD80c7knaxNAL44acoGzRMC8MO5fOCeAHxwKh86JQD3XfTlQ/0LAnBd3JMtejEBOG4oWw0JwG15o+hVOgJw2loKrAnAZVFPCvQiAnBYWwq1CcBhKym0IgC//93+LQE4rCaFagTgsEwKZQTgsAcp9EAADmtJoS4BOGwmhWYE4PpJAKcB/gZQl0J1AnBY0JcC/YAAXFaRAhUOg5x2JQWuCMBpUSZbZREBuO2HbPWDXwS57paTIL8DiFvyoVZMAO7Ll/KB65z3AnyQZ7JRlvNmkB+Sn7LBz0Q9JJH6aJHKf6QL9VEkiXopvl/KK8v7WL2USFU9Fc3XtZG8GNXW80g9VZWF+iwOglh9tpBbLsry2a1MY1bBX/FU5Ixl8NeZiKQJ6+CrJJUXjyyErx7lHytWwk8r+eWUtfDRqfxxHLIcvgmP5ZWHASvil8GDvJWtJqyKLyarTDYYdTsVOK/T5f8AAwAAAAAAAAAAAAAAACip0blRKRMw7EGNypiA3wHUmIBhXTWqwwQM66hRP5mAYT/VqBsmYNiNGrVmAoY9q1GnTMCwEzXqigkY9kONqjIBw3I1KmYCZk3VsCUzMKqjhlWYgVFDNeyZGRh1pYYNmIFRgRoWMAOTMjXumimY/grAaYC/LvQFzwK9lUZqXNJkDmaPAnkS4K+5lsAJczD5e0D2AI+ttBSOmIQZ00RL4X+MwoxjLYeIZ0FGNHMtiTOGYcKNlkXM9dsGNHItjXPGcXhDLY+Ej4CDSxMtkXsGcmhPWiZxj4kcVkfLpc5IDmo61nd4Tdgjd1o24wZTOZyKls+KsRxMGmj5RFwWcij9Cy2jnIcBB3Kvm/DrQF8caVkNGc4B1GItq2jGeL7ddaDlFXNt4HdLx1pmOY+Ev9eoreU24e7Y7zRta9m1+WPw+0znqhTgr9FclQL8lVbVDlW+CX6H5URtMeavwa/XytUeCb8O+GqVWG0Scm3E17qJ1DJ3vDL6dZp3ap82V0h+lXSuNkp4a/hrdHO11N2U6e3vOFRrjfmZ2L5GV2qz6IwPgf10jyzXKvkC/x8eJoty8WuPhAAAAABJRU5ErkJggg==;" parent="1" vertex="1">
          <mxGeometry x="535.75" y="85.57" width="46.27" height="38.5" as="geometry" />
        </mxCell>
        <mxCell id="HKPMc-exNPZEN2zycEb5-126" value="" style="shape=image;imageAspect=0;aspect=fixed;verticalLabelPosition=bottom;verticalAlign=top;image=data:image/png,iVBORw0KGgoAAAANSUhEUgAAAa4AAAIACAMAAADt1XirAAAAsVBMVEUAAAAAAAAAAAAAAAAAAAAAAAAAAAAAAAAAAAAAAAAAAAAAAAAAAAAAAAAAAAAAAAAAAAAAAAAAAAAAAAAAAAAAAAAAAAAAAAAAAAAAAAAAAAAAAAAAAAAAAAAAAAAAAAAAAAAAAAAAAAAAAAAAAAAAAAAAAAAAAAAAAAAAAAAAAAAAAAAAAAAAAAAAAAAAAAAAAAAAAAAAAAAAAAAAAAAAAAAAAAAAAAAAAAAAAAAAAAAk2wLSAAAAOnRSTlMAAwYKDRAUGBwiJysuMjY6P0RJUFdcYWZrcXZ4e4CDh4yQlZqfpKissLS4vMLHzdLW2t7i5+vu8vX6hRBzmQAAFpVJREFUeNrs3el+okgUhvEDoqKmXeIS97jEXdwgQJ37v7CZDz0zPd2aAmQpzfu/BJ5fiXqogtSlNRdnnzMi7HUnRxBY48QZczqoENSQFfChI0QgfVbCAiWCqAlWwxtaBHBgRbgGYkjVWRld1JCasjJ2qCFlsTI81JC6sDpw85JyWB0F5EAu5EIu5EIu5EIu5EIu5EIu5EIu5EIu5EIu5EIu5EIu5EIu5EIu5EIu5FLEidWBB3ml1qyMC2pIdVkZc9SQKvisihpqyE1YEVu0CCB3YiW4JloEUbJZAV4dJYIx95y58w90CEprHzlTlz42J4dSbg9GQQVq+zkKatjBykrSkgM44TohFyAXciEXcgFyIRdyIRcgF3IhF3IBciEXciEXIBdyIRdyAXIhF3IhFyAXciEXcgFyIRdyIRcgF3IhF3IBciEXciEXIBdyIRdyAXIhF3IhFyAXIBdyAXIBciEXIBf8tEIu5emlRnswXe6PjuAg7EYZZxRmoFDrjBeWwxE41mLcqeHdC+koNLpzy+W7udZHr4FoCTKb443DsXI24yYOs45drj5cO5wQZz1s4JYWl3xzYglOmLAmr3lc6zvlGpMDp0UcJlhl0ZV7W59TJnb9Cq58aPrr7MIZucxe8dKuEIzW0uVMecuWgQ5B5FornxXgr9ooJqE3lz4rw1828al4W3XmsmLcWRVdrikOTqyk86CIOv+nva4EK0usmxo9Ir3a7nZi/2e0MLRZcfaoSI+m9s/3gH1bo9hUF4IfgFjW6JEUVvyfU5ViobUsfhhWW6dHUbH5V+KN7mf0bH4odj//ILU++Td9ulNx7PLD8SZFUl/Z4T+80z3Mqc8PyZ+VSHGmzVfMNIqqNBf8sMRHLMH0YlGjJBTPfNVCUzSW+sGqs5NgFsfpD4pb4cg3rHUKz5THUp+YmxRdZcf/2pQpVvkD37QzQref+PwU/EmBIur4/Au/TTEyLP6Clacwcn2Xn4bbz1EUPf5Nj2KT2/GXjkUKrm3zU7HbGoX2xn/oU0z0DUucTQqoZvHTOdQopDZfMaJYaCuWsssUhLngp7Q0KYyW4GveY6n1wQE4LySlD3x+Uv5Qp8BeBV83ofvNOBC3ShKNMz+xc4MCavh8y4zuNeGAvAZ9pbjkJ7csUhA1n2+ba3SXEQcmmnST9uby03O7GklVPf7Kx129ehyCaNMN5T1/C/sySby4sjWqU2QtDqdL12h9n78Jf6DJphoyq8i9Sh6HNKA/lS3+RqwK3VayWW6jJ7Y3W/7bQev5/K34fY1uMC8cxDZHUZRYRj4AK+3529mXJDMomZ1BEQw5ioVO/2m7/A15HckMSmYfpdeOI1nn6Kf8klMnXOd8tKz9brvd7S3reHZcwalb5SUzKAkrQi+HJSRruXrhlLjHzXzcbdUrpkFXGGal3uqO55ujyymx65IZlMSaQhMsd3sApg0FJ87eznrNikGBGZVmb7a1OXFiqH0xg5J7izWXdABW2HKivP20U81TRPlqZ7r3OFHbwu0ZlNxnjkKyObJzy+bECGvaKlEMSq2pJTgxTl0yg4p3eW1YPd52UNMpRnptsPU4GaL3s9aCw9tSSF1Wi9gNqxolQKsOd4KTsMzR3+Ycga9ROAWf1WHPXg1KkPE6szl+xxLRlCMxKaQpK8IavlAKXoYWx81tjDmaMoVkXFgB+55JqTF7e1ZEicL64XHGDn2TUmb2D6wAoVNo9Ux7Oe8VykTl3eGsHSiC6uf33LytNdeCMzWmKCoOZ8EeFiljxUx3t4sSRVK6cOp2TY0UoDV3nJU5RWSeOFX+vELKqMx9zoKdp6gKB06POy6QUgpZbJ/2Xii6/J5TYvcMSpz6hxP4dbpHbpNOrDedlKS/pRpMvNJ99FVqsRBMNOPYh5Ksz16OlJbrfaZUq0UxmHKCvJFByjNGHqegQ7EYcVLErEgPoTgTnLQuxaTHydhW6GFUtn+xd6fdietIGIDLNvsetux9CSRhCWswGL///4fNmXNn5nTf6U6qZMkGXM/nfNIb2VKphOHWA1lzG8O+zx5dlN4nHHomi/oxLDs9B3RhgucTXBmRVd0TrFpU6QJVF3BjTAyZHYCFfbpQ/RBmnF2ddH8ANinSxSpOYN07I63MDsA+b+ii3XzCrplPDBkdgI0LdOEKYzDZuYSX4QFY2KUr0A1hzZKRVlYHYNMSXYXSFELmF7oyOwA73dLVuD3Bhk2RXAoWMLap0xWpb5DctkROFdYwNQnoqgQTJLWrkFPeDIZOA7o6gxMS2VfJrREM7Rp0hRo7JBDWyK0hDM2LdJWKcxg71MmtVgwzPzy6Ut4zDB2b5FY5hJFTj65Y7wQjYZmc8lcwsm/SVWvuYWTpk0sTGFlX6MpV1jAyPsNlxjygK2fePDsgZxonmJh4lAPeBCZOdXKkuIOJJ8qJJ5jYFsiNdxiIbykXzJvF3smJW8Mm4pwwbxa7JQfqJ8idupQr3dOZvL6CLeSiDuWHebPYJiDbxpoWSzs6h91XF3LHFuVQ6wi5LllVCiEWtYmIdH5xhCWyaWZ0xTanOieITcmiAcRON5RbN6dMi1GVo8kV2xzrxZA6lsmWOcQGlGsDiM0yrMPfUc7dZfYfXjpA6i/Kvb8gdShlVNl907SI3rIZth6kPnwNi8j/yGKzXNhDaFvUrP6tuIXQvpB+E+ihqkn9rXpI/TJ5PYZM3Nac/qt9gkxcp2SWEBpqSgm2QMuUt3svmtHPXlLdfBVCyHx4GtHPvA/IhIUU93r7kib0q9I+vQpDNdZlRtpXQOJqaqdc95pO8urhlAx1IDPVbGwU8dpkZgWRT61m/FbxEyIrMtLXF5cd7RgifTLgf0LkUXP5k0eI7Hz3r8il7rj+yFs678IOQkgcK5qKtWaXMCCpBy0VZlc8fCChwkHX8DZNIXEoOL1adixrIF8rHyHxJJ1c2qZm18Dl9HqCxFzTsN2s+ehuckW6KmSoRBA4BMR3r5VdtuwH1d9DYK0bZBZvDYG97+jSeEuT4Gm52cl6OwhMNAeuCQS2nou+3aOe97OVji56epd61+QcTpY/iKUJgY2uMwS8DQSa9q9OdDUDia71GynlGHwLTUBmAb64bLn+FDc0AJl6bLfQ6+3B96rjL/UKvr1ntaEm1rtBbltte/SdD/CNdfTlXmwuDargO+mhpIHyCXxVi5cYRnQWvN5kvvg/7w8VOk8j8P2gL3mhZHKd90eZTg+XP71Cj77Su7jJVTsK/zezN7K22Jhe3ORa4gvNi59eU/pCKb60g5PGJe4LJ2CLS3YqxnHtAmrcu8vfe93ZuSL0TmfhGV+J6Dy9W7k+VLu8I/8f+MrpCtoAqjaquyvSuBJY2ajzbsDW17iS6INtQ39Ql9SKNS4Z83OP+hevbaZH0rjSulD5nPhZGJc0LiHzHe4m8brwnTSu9NbytaT3JTsaV1KdpG+eFbh2pHEltku2aSoL4ta4Ul1slBPddo4rGldylRhcw0RnJwvSuCyYJzlF8SNwDTSudCsbkU//dAOuU6Bx2RCcwNVJ0FPzRhqXFW8JfkJ0Da6uxpX2/YY1/UMJXEdf47LDP4KrZPzeeyWNK/V++b5xt0dP47KlB66xaUkkCjQuW4IITDvTCtSUNC5rpuCqGL66hhqXPUPDl9cYXCWNy56S4ctrA6YVaVwWrYx2XoUYTM8al03PYIoLRgXDtsaVTX/ojUk/6NHTuGzyjibdoTMwTUnjsmpq8tHyEEx3Gpddd2AKTTbJdY3Lrjq4KvJK/oE0LssOYOrJl5NTjSuzl9eTfKVxr3HZdi+fKp9gamtctrXFRfkATHGgcdnmx2AqSLfWK9K4sisbtqRl/BeNy74X6dHVCExDjSvDM6+RtPu3oXHZ1wDTXNinEfsaV4ZrjZ3w79ekcTmwls2WGpheNa5Muw1rsorhg8blwgOYurIaflfjyrRV/k62jq9qXC5UwTQS1YRPpHE5cQLPVLQy2WhcbmxENcAQPDONy42Z5PzfB9NI43JjBCafiCpgutO43LiVrPXaYOpqXBmv5NuSyycNjSvjIm9PsksualxuFCWvo2fwRKRxORIJ7pOMwbPTuFzZCi55vYNnqXG5sgTPu+D7alONK+vW0A9BDWqscbkyBs9acPT/rHFlfYfyU9BTf69xuXIvuFESg2eocbkyAE8s6LjuaVyu9MDkUxFMHY3LlQ6YSlQBU1PjcqUJpgpVwVTXuFypgalKDTBVNS5XKmBqUAtMJY3LlRKYWtQGU0HjcqUApjZ1wBRoXK4EYOpoXGfA58d1AyZf43LFA9MNPy5P43JG47rS2dXRh2HmfF1qXOfK8Mr3XTVDVf9M910tMBUvMC5z8bx5ho2GLUE1OFdxAfEtpURyKlIDUy1ncSHuUDoEGQiqwXmLC+uza5KvUAlM7dzFhdq5/UheiQIwdfMXV+/cbgwF5IGpn7+4+pSOvqCyFIHnVuNy5VZwCWgPnkeNy5VH8OwFPxMw0riyvku+EdxWedO4XHkV3NmagWehcbmyAM9MEO1a43JlDZ5XwdfjQ43LlVDwLfl7MPkalxu+5CMZAzBVNS43qmAaSD5k2NG4Mr6AciMpBw80LjcGYGpIjjKfNC43nkQH+hF4XjWubHfJkeg3U5YalxtL8GxFe+pQ43IjFNWVJmAqaFyZtq1NZG+6lsblQku21uuDaaiH/y4MZf89TTCN8hZX46xOu9CU9ZAuchbXjlKxEPZRHy54afgjPwvDg/RjleVcxfWDUlGWfqh1AqZujuLa9ikdXQirSvcXXDWs9Zzo1igtT2C6l+Y7I2XdTPpsq4Ap1MG1LxTf2IrAVNXRzewoORKXhNHX4c2sP34p/475WIfXtjGYXuRVq40Or20becW2Aa6ijq9dRYMCph+DqacDbFcPBl/wX4HpRQfYrhdZCepvL/ryysjGZKIMwFXREbapAq6ByV4NQx1im4YwqlAcwPSmQ2zTG5gOZnXGo6djbI93NKuu34Oro4NsTwdc92afdcBIB9meEcw+aeJFYNrqINuzBVPk0S/m4KrrKNtSB9ecfvUAricdZluewPVAv2pCCxup28D0a1zeAVw1HWc7quA6ePQPb/o0TNsTzIsTQ+jaMGXbBKW/CtiaOtI2NJGksL7WnfK57pHXidqXQ60bWuCFibr1W4C2AKSoB7bW79PW5usUzRI+zV7BFZd1tJMqx+B6TXZzBXjU4U7qEUh2T8s/gutTFxsJeZ/gOvoJT6KBrg54Ml2wvSVfq8x1wJOZJ1+HBxG0zpuOGtii4Iu+HL2Lkoox2N5sPFAjvdyQQDGysUzwDmB70EE39wC2g2dljoa+jropP7Tz1mmD71aH3dQt+Np2Tsyw1a2yIU8yyt8+VPVeuWN98D3YKjxio9PLiLeBtWL6XKeXa33Yqx71oNMrs8klPwj29jq9zmdy7T36xjP4djq9xLwd+J7pO5VY917nsueKK/StKfj2gY6/TLAH35S+dwNAG7BdeYTADTFswBdpk41IOQLfhjiGEJhoBBJjCAyJIziAL25oBnz1GHyHwMGvR39oCHwfLn4YvXyC7pVd6EPgVHbyhN0XNAeewh4CY+KqxgD0/pBtIwjEVWJ7h642rGvEEHgnviYkVlo6ZPBWkGiSwAwSdxrG9+4gMSNyNr0i/RzAtyqRcHKJzCGx0Di+s4DE3OD7lXqSYs8tRFokNNfHYXaPwjlJNSCy1NXhF7wlRBqGPxOrPfNWPEDkjeSqMXSzbG2DLC1oyI0hstVGgD8IthAZm558irxqML83AZDCCf0TAD1KSawPmSfzrh2RSC8s/0YtApBKd9kAMht9ff2fYAOZAZny1tDXV0KvkFl7ZKwFaDEqkVsItdL834jbmtDP2nGqz6fyETKhfuDrJ5UQMscyJXIHobUuN/4nWEPonpLx1hCaarH3P7wp5OuMhFoxhP7SoP72A0Jxy+K3R/WDhzJDSI3tNDMKxTeaFdFNDAb7DbY9SEX6YQBqRpDqkRXvkAqrlHPVEFLvZEfpAKldmXKtvIPUoUSW9CG2KVKOFTcQ65M1U4gtA8qtYAmxKdlTCiH2EeQ2rQ+IhSWyqAu5RU7z8heQ65FVE8jN/VymNYfchOwq7CA3DzQtll2BLGvF+jxkCBaQi1tOOlF1vcFdZWTfAe0tYGBVpBwprmBg4ZED5RAGNmXKjfIGBsLyv9q51yVFcTCM46+cFLpVGtFRWlFsuxt1PAAqyXP/F7Zf9sNW7dbOTDhIAr8rgPyLIhySyt4xC0htagk7gYDqvl8sIeI2olYY3SBiSVXp7SGCedQCHoOIfY8qY6UQweekvDmHiNSiCg0ZhEQ9UlovghA2pEpNIWZvkMKMPcRMqWIbiLnYpCz7AjEbqlrvCDEPjxTlPSDm2KPKWQnE8ICUFHCISSyqgfOAoNgk5ZgxBD0cqoXLISgdkmKGKQTU+zfmDKLYnJQyZxA1o9qEEBZbpAwrhrCQarSDsMwlRbgZhO3q/n1E3EYjBWgbiDtoVCvjDHGXV5Le6wXizgbVzLpCHF9qJDVtySEusah2gwwFnIckseEZBWQDegLnjgL4WidJ6WuOAu4OPcXwgSJSj6TkpSjiMaQnGeUo5LNP0ul/opB8RE/jMhSSBxpJRQtyFMJceqI3hmKuHknEu6IY9kYkdS8cXkgSLwdIXovIzVEQ3/ZJAv0tR0G5S083zlEUW5vUcGbIUFQ+pgYYPVDY412nBtODMs5xRI3wekNx93eDGsp4v6O42ys1hJOilGAmNZBZSiykDjXG4IoyPNZ9apj++oEyXAfUINYJpeC7V2qQlx1HKU4WNYoeoyRHr0eN0POOKEmsU8P0PlCWJLDo6awgQVk+etQ8S5SGf7r0VO4nR2mW1Eg+Q3mS5YCeZLBMUB7my7R+UBw/zEyqnTk7cAiQce3o4IJSse+JTjXSJ18MAmRdeGPEQNnFpibVwpx+M5QsNqjZVigdPy5sqpi9OHKUbkWNN8lRgWs0MagixiS6ogL5hCTgXFEJfgo9o/RUXnjiqMTVISkYn6gKP0W+TSWx/ejEUZVPQ6ldC8Td9qFvFy0V7m8QoObeFKMUFctPu4XnaPSHNMdb7E45KpaOSCrmF+rA08PHcvrmmPQLpvM2XX4cUo46fJkkmxlDjVh6Onxt18tgPvP9ycTzJhPfn82D5Xr7dTil9R7LjCTknNFKZ4ekpIUcrcNDjWQ1StAyyZgkpm/RKlud5OYmaI3EJenpEVoi0kkF4wta4DImRWjvDIpj7xqpwz5AaQeb1OKnUFbmk3L0kEFJLNRJRXYMBcU2qco9QzFnl1Q2zaCQbEqK04M7FHEPdFKfGeZQQB6a1A5WxCA5FlnUHv2IyR2rT+3S3zBIim361D7W6g4J3VcWtZOxyCCZbGFQe2nTMyRynmrUcuNvDinw7zF1iAbhDY13Cwddqb9p/hGNdvS1rtI/OesMDZWtna7Pv/S8b97EO5bX69r8N/PHEY1y/GF2Vf7PIDijIc5BN7v4DXZwwtOdArsr8bsG8z3D07DDvLuu/pA++cjwBLePid6NvpCXxYHVe1ktXrpRL0JzV0eGGrDjyu2ehcugjYP4hgrd4mDcpSqV7Uc/c5Qu/xn53RywGj3HX+8zlCTbr32ne2VRNWM028QXBmHsEm9mI6MbyTr1x9Pldn+547fdL/vtcjrud2P3RNpg6E0Xq2gXH0/nJLs/csYBzvLHPUvOp2O8i1aLqTccKDCZ+Aslf6cqOJMv8AAAAABJRU5ErkJggg==;" parent="1" vertex="1">
          <mxGeometry x="259.25" y="407.5" width="25.2" height="30" as="geometry" />
        </mxCell>
        <mxCell id="HKPMc-exNPZEN2zycEb5-128" value="Share results using Quarto site" style="text;html=1;align=left;verticalAlign=middle;whiteSpace=wrap;rounded=0;" parent="1" vertex="1">
          <mxGeometry x="590" y="89.82" width="170" height="30" as="geometry" />
        </mxCell>
        <mxCell id="sqDV4bE9PQli710Vu9U6-3" value="&lt;b&gt;&lt;font style=&quot;font-size: 16px;&quot;&gt;Reproduction&lt;/font&gt;&lt;/b&gt;" style="text;html=1;align=center;verticalAlign=middle;whiteSpace=wrap;rounded=0;fontSize=18;" vertex="1" parent="1">
          <mxGeometry x="104.79999999999995" y="25.25" width="110" height="30" as="geometry" />
        </mxCell>
        <mxCell id="sqDV4bE9PQli710Vu9U6-9" value="" style="rounded=0;whiteSpace=wrap;html=1;strokeColor=none;fillColor=#ffd9b3;" vertex="1" parent="1">
          <mxGeometry x="299" y="20" width="201" height="40.5" as="geometry" />
        </mxCell>
        <mxCell id="sqDV4bE9PQli710Vu9U6-10" value="&lt;b&gt;&lt;font style=&quot;font-size: 16px;&quot;&gt;Evaluation&lt;/font&gt;&lt;/b&gt;" style="text;html=1;align=center;verticalAlign=middle;whiteSpace=wrap;rounded=0;fontSize=18;" vertex="1" parent="1">
          <mxGeometry x="339.5" y="25.25" width="110" height="30" as="geometry" />
        </mxCell>
        <mxCell id="sqDV4bE9PQli710Vu9U6-22" value="" style="rounded=0;whiteSpace=wrap;html=1;strokeColor=none;fillColor=#fcd4fc;" vertex="1" parent="1">
          <mxGeometry x="499" y="20" width="280" height="40.5" as="geometry" />
        </mxCell>
        <mxCell id="sqDV4bE9PQli710Vu9U6-23" value="&lt;b&gt;&lt;font style=&quot;font-size: 16px;&quot;&gt;Synthesis &amp;amp; Consolidation&lt;/font&gt;&lt;/b&gt;" style="text;html=1;align=center;verticalAlign=middle;whiteSpace=wrap;rounded=0;fontSize=18;" vertex="1" parent="1">
          <mxGeometry x="500" y="25.25" width="280" height="30" as="geometry" />
        </mxCell>
        <mxCell id="sqDV4bE9PQli710Vu9U6-33" value="Create research compendium..." style="text;html=1;align=center;verticalAlign=middle;whiteSpace=wrap;rounded=0;fontSize=12;" vertex="1" parent="1">
          <mxGeometry x="535.75" y="156.32" width="190" height="19.5" as="geometry" />
        </mxCell>
        <mxCell id="sqDV4bE9PQli710Vu9U6-34" value="" style="rounded=1;whiteSpace=wrap;html=1;fillColor=#FDE6FD;opacity=60;strokeColor=none;" vertex="1" parent="1">
          <mxGeometry x="552" y="184.69" width="218" height="180" as="geometry" />
        </mxCell>
        <mxCell id="sqDV4bE9PQli710Vu9U6-35" value="" style="shape=image;imageAspect=0;aspect=fixed;verticalLabelPosition=bottom;verticalAlign=top;image=data:image/png,iVBORw0KGgoAAAANSUhEUgAAAaAAAAIACAMAAADzHEgYAAAAn1BMVEUAAAAAAAAAAAAAAAAAAAAAAAAAAAAAAAAAAAAAAAAAAAAAAAAAAAAAAAAAAAAAAAAAAAAAAAAAAAAAAAAAAAAAAAAAAAAAAAAAAAAAAAAAAAAAAAAAAAAAAAAAAAAAAAAAAAAAAAAAAAAAAAAAAAAAAAAAAAAAAAAAAAAAAAAAAAAAAAAAAAAAAAAAAAAAAAAAAAAAAAAAAAAAAAAAAAC3kz5EAAAANHRSTlMAAwcLDxEUGh8mKTA1OkBFTFBVWlxkaW1yd32Di5KZnqKoq7CzuL3Cy8/X2eDk6Ozw9Pj8PXzLeAAADqxJREFUeNrt3dd6o8gWhuEFKAcrWDlnIYQSrPu/tu3pnt3Ttks2MhK1Cv3fwZzODO+DhEVVLRJZqbfwziEnWXj218OqRejbrJbLuvL7GQB8U23POjt1cBd9lT1m3W1yYLhaZsv680uAuObjsoROEFJnbVhGhzwwVA1ZShs8KSiqhCymDjg+t2U5nbPw+FiNJTUAyMcWLKkDvoU+5AQsqheQvK/OshqC5H1DltUGJO9bsKwOIHnfhmUVgOR9LgsLj3HCgWyYAAhAAHoskGMlUQtAEXL1XaRXAAEIQAACEIAABCAAAQhAAALQkwHZERIHlLG/KR00jbF7CjlKQoCiF/jrfomMLjc6sSIzgdS5DTK3zpk57UDM2xKZmbNkfgYgDtpkYlmXUwikbkTm5WzZZKD0LxSe8DMBcd3sdaLpBzpkyKisvdFA6V8p/MrPBnTOPOMy0ZASqcF3qE0GlQ35LvmUSBW+Q2syqAbfp7lBW5MuNpnTgO9Tk5JpyXeo9HR/BLFvm7Q9tk7mNOO71KCkWmm43XU253s0ocTK+Ry712cDmlqUXCUfQLd16VKi5dcAuiF/lKekq6/D5wbauZHaLoe1AmkpW2sPt8eD+11+OoFKlJbaAAIQgAAEIAABCEACgaxyaziZr+J0eEag3SpGy9m438hHWks9P3H80g70oPbjCn1ZdvCPDoASAVK3e7XoWlbvzAwgvUDM3gupK+2YAaQfiHnqkKLmhQEkA4i9In2qGzKApADxqUIf6jMDSA4Qnz8ItRlAooD4VKS/qgQAEgbEnkN/yvgMIGlAPKM/jRlA8oC4Rv9WDgEkEWhv0++WDCAZQOoNE6UQQDKBPPrViAEkA0g9gcU6AEgq0ITeqjCApAId6K0+gKQAqa/ZHEBygVpEtAOQXKAhEZ1Z0bHbiNPhCYHCRpw6/rWfe6yQPxeWKVbeMwJRrHJHVrQicljRjgCUMBDNrwzSy7CiLYASB5oqIQAEIAABCEAAAhCAAAQgAAEIQAACEIAABKAfAFVzaamXAqB0ByAAAQhAAAIQgAAUucAkIJefr7NJQEt+vjyTgIb8fC1NAqrx89U3Ccg+8dNVMgmIRvxsuWQUUCHgJ6uZNBAeE25qaxkG5Oz5mbqUyDAgKl/4iWqRcUDUDPGILRqI6hd+jsIOGQlERZefIb9KhgKR1d5z2jsNHDIWiMiqTf006yxaDpE5QOpylVo9jdWqeXpLExCKEoAABCAAIQABCAEIQAACEAIQgAAEIAQgACEAAQhAAEIASjlQFkAAQgACEAIQgAAEIAQgAAEIQAhAAEIAAhCAAIQABCAEIAABCEAIQAACEIAo31t6vjttWGCRCOSMAv7dvg4XeUD5Hf/XEDDSgLIe/90AMrKArDW/K6yCRhTQGA+MooHa/KkSbOQAVQP+VA82YoAKR/7cBDZSgJwdK5rDRgrQgjnGHeTUekPB9Zt504GGrKxHUSpOLyy9Tc1ooGaMuTvWIGATWmalAcWf5bCN4jNjQ/LypgLlfFYU8ZeEMRvTzjETyN6yukHaJuKNJQNZ1e5w0Coq/+3qFhShHRtUWBQLZPcO/Cu3Th/qxvlAqLJRjaQCFXf8p6lNf1cLWdmxkMKBhZ5QoOKB/2r9t1DxxMqCKkVpw2bliASyd1dv9IzH6trpnNxeFAnU4/eFL/Rv1orVjQlAiQFZB/7Q3vnmK2RtUbS2bFYZiUDVqzdIi9XtsxSxMRuVTxKBuvy5lz+v6BSdSxS1OhvVRCTQkD/nO0T5AysL6xQ522eTKosEGrCiCTnuPQaPttig5iQSqMWqanNWN6ObWrIxHXIygYqs6sLqXJtuytmyIZ3KJBOIXI7eIU835szYiHYlkgpU58hdKnR7dZfFd+jZJBaI5hy1V/pRpe5kvpDbdPBiEQkGyh35i7ChQTsQNThSK+za0gREM46QlwGFLqDsgb/tVISEBqDIT3LhCyA0AtGUv6kDBx1A6g85bGTQABRvBdvWBoNmIJrw9fwcFLQDZXy+1qUMBA1AkT/kwgYM9AGpP+RwIIJEIMdnbHSUDEQvoXIRNgSkANFYtQgbAHKAnD1/KMB5L5KAqBry+9q4/EKA1KvkRrj6woCsOf/VHK/opAGRNQz434IhfOQBERWnZ37rPMUbOplARFapVivh7sGxzABCAEIAAhACEIAABCAEIAAhAAEIQABCAAIQAhACEIBQqoDs2mixmvawXEEoUNvn360wHk0gkLPkP11eASMNyN7w30FIGtCE33XBF5EsoC5/aAkaKUDqKQ4htg4JAiqecPqIZKCMh+NHJANZK2wvFg00YlVT2AgBarGyPmxkAFUCVoYNxhKArk9x8EAjAsh2WV2DopXrLr3TWWwnfzMsmQw0Y47ziOCMLiy/VVE6ULb22qzY9Ll+vCkOxT0b0eVVNFBtE17ZOFwPY01xKB7ZlFpygTIL/n9Bn95VOsea4uB4bExBRSpQdnd1wmNuH2+Kw5ANamcJBVrzu7r0J2sTb4pD5swmVZcJ1OKrL+LGMac4tNioFjKBPP6Qa9Hv2nGnOMzYqE4igcpXf2N7CeJOcXDZrHLigNS3SVCitwqn2FMc9hgV/Zg5qq5F5OziT3HYsVkVTAHiAVnLO0xxWLFRBZZEoA4rCsrDe0xx6LNRbYU+JKg63GWKQ5GNqqsBKNY3efwpDks2qFNGJlCbFd1pikPxwubUJplA1pajNqBbe2VjmpFQICpeHjguvh2yGc1tsUDU5Ui5Dv2gqscGdO6KfqO64Qgd8/Sj7NYmYNl5gxyJBiqcWdH9pjg45eqL3CpZ+at6OvxtLSyv0ghEa/4UpjjoB4r+IbfGOecagKL/ueplwaABKPKH3BnbUfUD5U98rbAGBA1A0Vd49GAgAYiWzNinJRkof8KgddFA9IpB67KBaIFB67KBckf+WBPXXxAQNflDQ1x+IUDqxbpL/MIjDMjZ8l+5GLQuDYicBf9pAR95QET1Lf9qW8elFwlEVGj2ek2cNYZjmQGEAIQABCAEIAABCEAIQABCAAIQgACEAAQgBCAEIAAhAAEIQABCAAIQAhCAAAQgBCAAoZQD2aVas1mv4AQYiUDWy3gX8u8OsxY2CckCcvo+v+sywUk9coCszok/FU7wUScEqOCysiOOUxIBVDvxlcIBHPQDNQO+3gQ78nUD1UP+qjH9uEKt2UqgZi2fZqDy5THDQTJ9jxPL62fSCuR4j5kE2zhyoh2bKQUaPWYS7IATb5BKoFLwkAlIXdZQL41AM47QwabbKgesoaCcPqBC+JAZSBvW0jZ9QIOH/J+XWFPl1AHtOFr5G9k1NUwbUI4j1qJbWrOm1mkDanDEJnRLHmvKSxtQ/zFfv3vWlJ82oMlj/s9d1pSbNqA5R+x843+5pqZpA1pxxEIzpqi+4g6KlHNiLZ0cfAeJHoffJzzFRct2WUOuTfg7KGJ5nxPPLxDhl4TIQi4nnJsnIvwWFzm7d+QEO/VtSiNQ/4G/49vNyXbnJdBuO2k69E94H4RkvlHFODvhaxKAIXtVDxaXCl8XBwu9K0vxAWf22mxIYHcDgLA/CDvsAJT8HtUx9qgK3uV9nmDeoLRzEkZuyL/zp684J0HoSSONZr2SwdXHWT0AQgACEIAAhAAEIAABCAEIQAhAAAJQjJxsLl8olSuV6j+9vLy8/bNSKZfLpVKxUMjnc9mMY1sASjArX210BuP5xvUO55CjFQaX8+l48P393tu5rrvdbjdvrder1Wq5XCwW8/nsrT2A4mSVWqPVPuAHBqCfZlUH6zP/CkDyqk6O/BaAROZ0PGYGkNCszpEZQGKr7JgBJLd+wACSmz1jAbkAupK9YgmdAHSlGcvIBpCyHgvJAZCqSsAyuuAjTpW147fwkCC2NktpCCBF9oGFFBQAJPoGGhGAFO1YSDsHQIoqLKRDgQCkaMwyOpYIQKp8MT4AUlUW4wMgZT0pPgBSt2QBncoEoCsdZfgA6EoFGT4AulaDtXeuEICuNpDgAyDBr1LPVQLQF7n6fQD0VSfW2qVKAPoqR7PPCwHoy0q6fQD0dTWtPjUC0Dc1WV9BjQD0XR2tPgD6tqE+nzoB6PvGGn0AFKG5Lp8GAShKa20+AIrUlnUUNglA0XI1+QAoYp4On1cCkOA1V2GLABS5kw4fAEUvSNynTQC6oTB5HwDdkMUJ1yEA3ZKduA+AJL9Q7RKAbiuTsA+AbizHCdYjAEkG6hOAbi6fpA+AJAMNCECSgQYEIMlAQwKQZKAhAUgy0IgAJBloRACSDDQiAEn+Q3VMAJIMNCYAxSjLD25CAIpT5uE+AJL8PmhqAUgMkNoHQIJfec8sApAUILUPgASv6plbBKD4hQ/0AZDglaULiwB0jy78kJY2AegunR/lAyDBuxtWNgHoTh0f4wOge3Xgu7e2CUCCd9htHAKQFCC1D4Du2P7+PgASvMt76xCA7tru3j4AkgKk9gGQ4JNG3AwBSAqQ2gdAgg9TcrMEoPu34Tu1yxKABAPtcgSgR7S+mw+AHtLqXj4AEjwgzcsRgB7U4h4+eQKQ4FN/93kC0MOa3cMHQI9regcfAAkG8gsEoEc2ie0DoIc2jusDIClAah8APbgR/7xDkQAkBUjtAyDBQMcSAejxDWP4AEgKkNoHQFKA1D4AEgx0KhOApACpfQCUUIOf+QBIMNC5QgCSAqT2AVBy9W/2qRKApACpfQAkGOhSJQAlWu82nxcCkBQgtQ+ABANdagSgpOty5IIaAUgKkNoHQIKBgjoBSEOd6D4AEgwUNCipHAApgOT4kMWKznl60tocobCp/RDIfbP8nA3F+ZDH6KbCV0q0JS75TYUtSrYBrrloH6riot9Q2Kaks0+47JJ9iCa47pHrkIYquO6ifYg2uPLR6pKeXnDpRfsQzXHxI9QjbeXxIPd9fdJYHdf/Vh/8nCCrAWluDAPRPmSNoHC9IQmoGwBCsg9R1QeFshEJyRniJlI0JDkVxiD6kFshUeU6Wxj913lgk7icWn+y2u6ePO8SHtadrHaN/wF7IQzNiwuPowAAAABJRU5ErkJggg==;" vertex="1" parent="1">
          <mxGeometry x="639.4700000000003" y="283.62" width="35.06" height="43.13" as="geometry" />
        </mxCell>
        <mxCell id="sqDV4bE9PQli710Vu9U6-36" value="" style="group" vertex="1" connectable="0" parent="1">
          <mxGeometry x="631.3" y="194.69" width="74" height="48" as="geometry" />
        </mxCell>
        <mxCell id="sqDV4bE9PQli710Vu9U6-37" value="" style="shape=image;imageAspect=0;aspect=fixed;verticalLabelPosition=bottom;verticalAlign=top;image=data:image/png,iVBORw0KGgoAAAANSUhEUgAAAgAAAAGOCAMAAADW9Ev9AAAAq1BMVEUAAAAAAAAAAAAAAAAAAAAAAAAAAAAAAAAAAAAAAAAAAAAAAAAAAAAAAAAAAAAAAAAAAAAAAAAAAAAAAAAAAAAAAAAAAAAAAAAAAAAAAAAAAAAAAAAAAAAAAAAAAAAAAAAAAAAAAAAAAAAAAAAAAAAAAAAAAAAAAAAAAAAAAAAAAAAAAAAAAAAAAAAAAAAAAAAAAAAAAAAAAAAAAAAAAAAAAAAAAAAAAAAAAAA0NbREAAAAOHRSTlMABAkNEBQaICQpLjI1Oj5BRUpQVFhbYGZrcHV6foOIjZOYnaKorrO5vcDDyM3R1tvh5ujs7/P4/JHuogEAAAxNSURBVHja7N1dT+JAFIDhM7UiRQSFYvxi44qoq9i6aOX8/9+z997sxSZLTIlV183UOsO8DwY/Er0456UgmiLWou4g9cSgGwnq1Zs+qkcepzvsrEabU/XOecze6rKVq4eyFpurR5yrl7INdleLiXrqjN3VYVu91WF7NThTb31nezWYq7fu2J69lnpsk/1Z66ryICBkO+qxLvsjABAACAAEAAIAAYAAQAAgAFgEMEmdc04A74mkVk+/nPPEkt/D/0kTAAgABAACAAGAAEAAIAAQAAgABAACEEn20oq+eKyfrrvh3pbUZOt0rh91JM451lDlJ5tizxw/qhKAnx72xZaZqhKAv76JpYkSgNeO7B4EpiMeJ/ttvG0TgDlhgp4zY5sABm0m6LvdxCKAXebnvz2LADiRxhroWATAOTW9Zr/EQv/ToTjnSAN302QAQ3HOiAAaDKAtzkkIoLkAMnFQTgCNBXAgDjokgKYCyIw4KMoJoJkAio44absggCYCKPriqN2CAD4/gFkizurcEsDnBrC4HhlxmBldLwigngCytGLQi8V5cW+Yrr2HBgK44tl1d/0kAAIgAAIgAAIgAAIgAAIgAAIgAAIgAAIgAAIgAAIgAAIgAAIgAAIgAAIgAAIgAAIgAAIgAAIgAAIgAAIgAAIgAAIgAAIggIACiBmaP4x5fpPltVn5ipFIzIa8ggC+akWmXNPyEi3fL/f35qX8PlldspEPIIB/KBdkVj82z2sxRl6sqPykspPl1cqOxD+xyyuqHufKFVWWU66ouqDyZ3CQeiH+lLui8vLW8e7N2xAr+hLJyWU+v69Q+G9xXzG/+zHuSKk9ZUzhuWg/nyt4cDvkGBiccu3DBbeGMC3+FpAUTCJURSIiV8whXFciXaYQsh05ZQghO5UZQwjZLEr4fShkScTrxwct2jikgJD9loz7wZDdyCVDCNlEJgwhZGMZM4SQ7csBQwhZTwYMIWQt/hYQtEKkxRQClomYhVYV11g3M33FhYjcaVXOU2Rrp69/2ruvtUS2LQzDP6BiTpgDYrbNAWHe/5Xt52mP1nbMllB01xzj+47X0W+vosJLYXQm6cE6ArCXu/Zzv/VrimC+MeaubjLakmwRwkNid13lfu7/OBltMpizTPkzbEjaTUZ7DOatfvrea/bs8JjBnDWfQcHSUjI6ZzFXZfT3hSS1ktENizlrJ3+g71tYlMWcdZyMOpJkorA3FnPWRTJakTLfDRvyngZn/cre77NR2AKT+X+B3Ify9wjXmMxVTZsE/85EYbwywldLyehKvzNR2CGbuWrLJsH5WwRdNnPVYf6Gv43CLtnMVT2bBP+uMeSV0O67+dOl3hsozHn23b6BJAkUFqKBTYIlgcIi1M4/8QOFhSbBEigsQnt/vNezBwqLSoK/2gSFhSTBS3+8T9xjNe8kuClJWRR2zWoRSPBXn6Aw380lo1+SJFBYbBIsUFhwEgwKC0uCd364SlxlNzdd5P/AeRS2zW4RSHAehR2wm5te0/f6kiRQWISaw+x1PigsOAkGhYUlwd2fvjbyzHBeOvjxce8jKMxzZ8loQ1/lUViL5TyT4LYkgcIgwaCwyCQYFBahhTwJBoVFaD0vvkBhkODfzYHCHHeaJcF/RmEPTBeBBH/1Agrz20MyakoSKCxEH9n/u0FhkGBQmPtWbBL83w5BYW7rjHKTpwMKi0qCv1oDhbntPPvxDgoL0V0ympckUBgkGBTmvkaeBP+Ewvqs56BFkwR/V0OgsKgk+KtzUFgkErw/2sXiBvNFIMF5NLDLfJ5JMCgsLgluSBIoLESf2VeBg8LCkuBbSRIoDBL8Awp7Zb8IJPirX6Awl51mpQcoLEL233VZkkBhkGBQmP/esyQYFBahVjK6l5GJwk5ZsPCWR6ZebVBYGBJ8MjIcuWXBwjsa/SHfOygsCglekyRQWIhusyQYFBail+wLAEFhkOD/dgIK89di/ik/KCxANvTqjvHfHrGhRxJstgwKC0KCNyUJFBaia5sE2w1AYe56ypJgUBgkeCQUxoYeSbDdFSjMW2vJ6FyZzkBh3trNX9qDwiJ0kv2TgsIgwaAw/92P84TXRmEXrOiQBNs1EigsDAkGhUGCQWHu286T4NFRWJMdI5DgPApbZEeHJBgUBgkGhUGC/78tUJirGpbweJIkgcIi1B7XeM0noyuGdEWCzyRJoLAI7eef7oHCItQ1SfC4D48GDOmKBC9KEigsLAkeNsb+GsEKS0YgwXkUtsWSZTY/9uN9G4XtM6U7EgwKgwSDwiDB32uCwsKS4DwKe2JKjyTY7gkU5qe39L13SRIoLELNlH2yAwqDBI9z4rjOmCW2Pck1/T4ozE2HyWhPkkBhIeqZJHiSz40zxnRDghckCRQGCR4Lhd0zpi8SDAqDBIPC3Lcx0emcjcLmmdMVCQaFRaib1V2gsBBdTXZXfwcU5qTHyX4MfB0U5qR+9noOFBaWBN9JkkBhEVq1SfDPfYDCopLgPAr7YM/iOk5GHUkChYXoYtIbOhegML8keE6SQGFhSfDHxLeQdxjUDwkGhUVoKS97QGER2srf0QWFQYJBYe7rTX4u/woKc9BNlgSDwkL0nP0rgsJCNJj4x19sFLbMpOWT4BuN1BEozDUJBoVBgidAYSds6pAE2y2CwpyS4KUpHiPcsGn5JLgpSaAwSDAozH1zNgkesVtQmEsSfDGVJmuzakHtJKNjjdgpKMwvCQaFQYInwySHrFpQv2wSPGIroLDSe81eyIHCItQcZkkwKAwSPNkB5IVZXZBgUBgkGBQWkwRvSBIoDBIMCoME/9QuKMwrCQaFRWhhStJjo7Bzhi2l9WTUkySBwiK0N/XDnD4orOROpzyJt1HYO8OWT4JBYSF6yJJgUFiAbNb9Ov2HyBrLFkyCf03/zbIO05bRSp4Eg8Ii1MmTYFBYhI6zqBcUFpcEr0oSKCxEd1nOAQoLS4L7Gq8HUJgvEvwoSQKFQYJHrAcK80WCu5IkUFiEDirwXDYK22PcEjqzSfB4bYDCfJHgtiSBwuKS4IYkgcIgwVOhsEfG9UiC7Z5BYf5I8NQorMG8RZNgUFhYErwtSaCwEF3aJHjcDkBhhfZQjejeBoU5IsFvkiRQWAwSXI3lWQCFhSHBdkPLlrNv7evkn+KAwiJ0lIx2JQkUFqJzmwSP33UymmPgckkwKAwSPPVnySYD17xGngSDwiK0mL98B4VBgsdpCRQWhQTbtUBhvkgwKCxE11nHAQoL0VOWBFeCwoagsJr3Wd0d/EtQmBMSfCtJAoVFaC1PgkFhkGBQGCR42h+g7rJxeSR4ucLziUs2dkiC7RqgsPJ6z5JgUFiEWiYJrvJw8snIdW45/7ENCovQdpXP8G0UtsTKDkmw3TEozAUJXpMkUFiIbrMkuDIUdszKNe4le94OCgtLgp8kSaCwsCT4WpIECovQZqXf6bdR2Bsz17f9in/1/Q4U5oAEb1b8bHGBncsiwYuauC4orKyesodsUBgkGBTmvvk8CQaFRWgtf+cOFBah3WR0VPWdxTuGrmsnNgmeojdQmA8SDAoL0X0yakkSKCxEb9nvc4PCItRMRg+SJFAYJHii9kBhUUiw3SYorHQSvFf971D3mLqe9ap/dtcyiRFTF0SCFzRVn6AwDyQYFBahxiBLgkFhEWrnP69BYZDgKlHYKmMXQ4IPZvHq4W3GrmPdZLQ5i5tLB4xdFgkGhYXo8ecTdn4+0vlVYPV6pzHkTlAhLZkkeCbGYNBk7kIuAs5no4y2mLt+3czmfP2Cl0SU0fwgGa1r2g6T0WeLwQvAAJX4zbWECSmh5lsyetbUNQfJqD/P5PXqNM3K7twlUEj9Wx4kq+2ZfbakI0avUfMvyWrQqujFUzwQqHdzD8nsRlX0kOx63A6qSSsvyW5HVXSQMr3u80+gBrV7g2T30VQVtT5Trv71yd4O/bt297v3w5Srq2o6S1RigwVV08KAMUvsQuIQELhBW1U132fO8uqqug6Ys7heW6qwewYtqerNxuIni0Y5A7TbYdKiem7qK64EQtZfVOVdM2sxDTZUfc1bhi2k4bbEv4C4DTqaTY1Lxi2g/qZm1tGQfevey5Jm2PorC9e7qznNtNY5B4Ea99bRzFvhXLCufXZb+hut33AUqGH9swX9rdonzwxeqwa3e0391dr7l09IoVr0+dDrzOlf1GivbnWQmf+y7c3V6Q/8/wP3+u56iLcTmAAAAABJRU5ErkJggg==;" vertex="1" parent="sqDV4bE9PQli710Vu9U6-36">
          <mxGeometry width="61.746206896551726" height="48" as="geometry" />
        </mxCell>
        <mxCell id="sqDV4bE9PQli710Vu9U6-38" value="&lt;font style=&quot;font-size: 10px;&quot;&gt;Methods&lt;/font&gt;" style="text;html=1;align=center;verticalAlign=middle;whiteSpace=wrap;rounded=0;" vertex="1" parent="sqDV4bE9PQli710Vu9U6-36">
          <mxGeometry x="1.2403163114864064" y="16.171724137931037" width="59.50944913550462" height="24.82758620689655" as="geometry" />
        </mxCell>
        <mxCell id="sqDV4bE9PQli710Vu9U6-39" value="Docker" style="text;html=1;align=center;verticalAlign=middle;whiteSpace=wrap;rounded=0;" vertex="1" parent="1">
          <mxGeometry x="690.03" y="328.54999999999995" width="69.97" height="30" as="geometry" />
        </mxCell>
        <mxCell id="sqDV4bE9PQli710Vu9U6-40" value="Tests" style="text;html=1;align=center;verticalAlign=middle;whiteSpace=wrap;rounded=0;" vertex="1" parent="1">
          <mxGeometry x="617" y="328.55000000000007" width="80" height="30" as="geometry" />
        </mxCell>
        <mxCell id="sqDV4bE9PQli710Vu9U6-41" value="Organise repository" style="text;html=1;align=center;verticalAlign=middle;whiteSpace=wrap;rounded=0;" vertex="1" parent="1">
          <mxGeometry x="565" y="240.92000000000007" width="195" height="30" as="geometry" />
        </mxCell>
        <mxCell id="sqDV4bE9PQli710Vu9U6-42" value="" style="shape=image;imageAspect=0;aspect=fixed;verticalLabelPosition=bottom;verticalAlign=top;image=data:image/png,iVBORw0KGgoAAAANSUhEUgAAAYAAAAIACAMAAAC8QUvIAAAAkFBMVEUAAAAAAAAAAAAAAAAAAAAAAAAAAAAAAAAAAAAAAAAAAAAAAAAAAAAAAAAAAAAAAAAAAAAAAAAAAAAAAAAAAAAAAAAAAAAAAAAAAAAAAAAAAAAAAAAAAAAAAAAAAAAAAAAAAAAAAAAAAAAAAAAAAAAAAAAAAAAAAAAAAAAAAAAAAAAAAAAAAAAAAAAAAAAAAADDIYgjAAAAL3RSTlMAvgQH0/z44+scGCAMKCRfQ3repxTw2pwJhC70WDZ0rBA8xm64jGVRysGTSbLOJu7fnRIAAAiySURBVHja7N2NTuJAGIXhQ2VoAbVUaKEtP+VXUfS7/7vbmKyuykiZGWibzXnuwPNiptFOwGVl6cbvqPh1PJ3AUREO27HKk8O8D1eD7SpQKlhtB3DVnx+SXOXtYVigcQYr+RRHt3DQG3fkgzpkcBE+yKeHHVxkByUfOuMeGuV2KN/4S1ibxvKVSj3Y6q/km1Uf1lIlX8VTNEjxJD90HmEpkp8WtgUyX37wM9jxFvJThMbw9nKkM4OVUI49w8rIlyP+CFae5ViIppiLRnIDC91cNF5gYyEaC9h4EY28i2aYBKKzs/uk6TzBQiZaGSw8ic4zmuFRtPYw5wWi9QZzW9Hawty9aAUeGmErWjnMvYleCHP7y30uQtG7QyMMRa+AsaXozWEuEa3E6pDTGzQ7wAjGBqIXwdyDaD3AXMQADMAADMAADMAADMAADMAADMAADMAADMAADMAADMAADMAADMAADMAADPC/BfCyMB222olfJhc931wgerFvTomW8s3Fohf4v0jarWEaZh6sZVErF3KUt6IMFvppwvEuJUn7MLM8KM52SeqwNJl/z8Uub39ugu6QY13HsIszrGMudS3xGmV6G850TZseTpr53Oi6/BlOmHa40LV1pvjVmvNUYQ3oRdymGhE//038HZhyl+pMcWTG87ci+hvUIz5/VkV/WXzBTaq1wDchF6laiC9GAQepWjDCP2PuUb0xPmX870sNVMYTuCHn8B23qMcdT4BGnAIF3z2pSV7g3Y5L1GWHd3wFojZ7AOjxGbQ2qse/QtQr5DNQ/c9BfAW0RglQcIU6FVjKeVQcnNIRvcBcLHp5YE6JlgrM5aIXG/wMx5bYyRmSaDbhDRmTGzKTWZTIGUKkUioIPV5RKgmg4e0CKZViLGVeu7wjZhMA6L5KmTEWpfvf8pKeZQAUbSmxwEZOi/u8JWkdAPexnLZBS05b85qqQwCs5bRWWQD/hgFcAkwCxwBbXtR2CoCtY4AXBnAL8OIYoMsAbgH6jgEmDOAW4NYxgMcAbgFuGIABGMAlAL9D5q95swNs/7R3L0qJY1EARY8oKD5RXkEBFVFRtO///92UM9PVbUuLkkgktfYfeFZJUnK9Jy2sUYtPd1TgFqVJWtikwC1K598DYFjcT1rrFrd97TEt7LG4nXDd2vcAuFo8tZtYoX5a1E6s0Cgt7DpWaGfJIfNyAWKQFrR7GCt03EgLGsYqTdOCpsUtC2z8+C4A2XN6U31e3GLQy1ipg+6Sv7DnvJhwHN8FIJq9N/O/iyhqcexDFqt1/Uagex2rlT0seZiUCxCdaXpV9z5WbtxIr+pnsWrnvfSq3nmsWtZPr2qMoxSA5cvb829cP3pKv5q1IkfZaff3VfdZ5Kg1S796OopvBhC1eX+nkVLae7rpRM6OT7deBncxux1FzrJh+6yeUv2sPcwiZ6Pb2cUL5NbpcUQZAMu76mRRUIedqyioWqdTi4K66hzGS+sB0KIAABAAAAIAQAAACAAAAQAgAAAEAIAAABAAAAIAAAAAAAAAAAAAAAAAAAAAAAAAAAAAAAAAAAAAAAAAAAAAAAAAAAAAAAAAAAAAAAAAAHkBmkeV6bi2gQCXqULtHG4cwDxVquHGAZykSnUCAAAAAAAAAAAAAAAAAAAAAAAAAAAAAAAAAADw7QBGqVLdbxxAnO41KtNFu+ZYimMpAgBAAAAIAAABACAAAAQAgAAAEAAAAgBAAAAIAAABACAAAAQAAAAAAAAAAAAAAAAAAAAAAAAAAAAAAAAAAAAAAAAA1QTYP65MB5sI0E4V6vlw4wBalvi4tM+tiQAAAAAAAAAAAAAAAAAAAAAAAAAAAAAAAAAAS3ws8fnKJT7demVqXG47luJYigAAEAAAAgBAAAAIAAABACAAAAQAgAAAEAAAAgBAAAAIAAABAAAAAAAAAAAAAAAAAAAAAAAAAAAAAAAAAAAAqC5A56AyNa0wscLEChNXlrmyDAAAAAAAAAAAAAAAAAAAAAAAAAAAAAAAAAAAAAAAAD+7tsSnXIAYXKTKVLfEx8EsAQAgAAAEAIAAABAAAAIAQAAACAAAAQAgAAAEAIAAABAAAAIAAAAAAAAAAAAAAAAAAAAAAAAAAAAAAAAAAAAAAAAAAAAAVBHgqlmZ9jcRoJ8q1MQiN4vcXFsJAAAAAAAAAAAAAAAAAAAAAAAAAAAAAAAs8bHE588GjVSdnjZyiU+tOjkV4VSEAAAQAAACAEAAAAgAAAEAIAAABACAAAAQAAACAEAAAAgAAAEAAAAAAAAAAAAAAAAAAAAAAAAAAAAAAAAAAAAAAODLAA73K1NnEwH69VSdJpkVJq4sc2kfAAAAAAAAAAAAAAAAAAAAAAAAAAAAAAAAAACAJT6+Efut20aqTtNs8wCidliZMueCnAsSAAACAEAAAAgAAAEAIAAABACAAAAQAAACAEAAAAgAAAEAIAAAAOQDyIwwX1lOgH0jzFczJ0DLCPPVygkwMMJ8DXICnHkK56q2mxMgnRhinu7SMoBper89j+EcNffS+03jMi3pwZvoymWTtKTL6KdlbV2Z5Gp1HtKy+jFISzubm+Uq3e+mpQ3iLn2gyUnTPD9X826WPtBdtNLH6vZ29OF63fSxWtFJKrFOxK4plNduRLSNobzaEXFnDOV1FxFNYyivZkTEzBzKahYvjQ2irMbx0n7DJMqpsR8R3oPKqx3/NTKKchrF/03NooymEX4FSv8F8BQorXb86uDCPNbdxUH81o2BrLubeNWWiay3rTdf35vJOttrxh+16qayvuqt+DePgZK6iQUNzGVdDWJhjyaznh7jL92azTq6jb829iT+8urjeKf7rgl9bd37eLcfz2b0lT3/iCVtD3wMfVn1wXYs73xiUl/T5Dw+1rBnWMXXG8aHqw2dVSm42bAWn2rU90JUWN3+KD7f9vzRR1EB9R7n27Fq+/Nxf6u31/Bm9Onqjb3eVn88X/JPjv8AaOuulMpd2A4AAAAASUVORK5CYII=;" vertex="1" parent="1">
          <mxGeometry x="569.7000000000003" y="277.98" width="34.59" height="46.13" as="geometry" />
        </mxCell>
        <mxCell id="sqDV4bE9PQli710Vu9U6-43" value="README" style="text;html=1;align=center;verticalAlign=middle;whiteSpace=wrap;rounded=0;" vertex="1" parent="1">
          <mxGeometry x="549.9950000000001" y="328.55000000000007" width="80" height="30" as="geometry" />
        </mxCell>
        <mxCell id="sqDV4bE9PQli710Vu9U6-44" value="" style="shape=image;imageAspect=0;aspect=fixed;verticalLabelPosition=bottom;verticalAlign=top;image=data:image/png,iVBORw0KGgoAAAANSUhEUgAAAgAAAAHCBAMAAABrnmzrAAAABGdBTUEAALGPC/xhBQAAAAFzUkdCAK7OHOkAAAASUExURQAAAAAAAAAAAAAAAAAAAAAAAOArGaIAAAAFdFJOUwAqWZDOYxQ5eQAADGZJREFUeNrtXclyo0gQTRC+lz3mXraaO7LEHS3coZb//5WZOXTETDtZhGtLknfs6LDg8XIvEoiB19fPf/H6CuyQvZ0vnf0PHudPAVzwenxYDOb8weHZHzs7DnOWsGnkFzsH/cHo9nGY00bFf7FLYbaogqN9Bne5NfV39kl8wZbwyz4PLbdj/Y1dhRMj+eO4CdgA/rLroSUf88dhJCPzx3FidP84TozuH8eV0f3juJG+f8YaaKxlzUBlHeLEKP7jqIEY3q1jSCCFg3UNI4AQss46h2YUAHAoRgEAx5WcA2DqCDPrC0bwcQA4FMEMgF0+lNuFeJy/Pj8//h2RH88PuxRiGwZgvj6+jYwv2zCC9yV3LwBDtoiDlnoEMKfJ8Sn1SFD9dPKbXUgbwcHBwC9vCEeCzk5Bi4WjlG5aRVQ94MlVN/FK0gNq6W6eJgh6QO1yoqro5YA3t011SU0AJ8d/TxETwMl5Y7kmVQTU7lvrmlIOdPIxXKjpeICTl7+qyXiAqydeayICUL5ci6YhAO1vxlJTEIARQbiNj8xnxnYgkA6WXsu2Mv10sPN7hU3qEihGHIBnFzskngXXvhm2IukYqPxHmTZlF2iE/zBjUo6BbQg3U6frAnUQP6PSdYEyjKMRqbrAIZCnaVN1gSLQyTOdaBZ4DeZrZJKtMBPO2QxJWkAblev4FmBCxps6QQtoQ/6YSs8CTNiUQyRnAW1UvcW3ABM461SpWcAQkPD4NtCFvp4mrTiQB89MirRs4AXJTcNrLqlKWEfwOnVKvaA2wm8OKQXBGFM4k1AQHKKwLtMJgjLKr/bJBEEdR3c6mXZwH8n1JnMoQEQKvnUiLkDHUt6QiAtoY6UfOhEXIGLaXvZ2PF8e/+B+/vyIcxk6HvW3yx/2eP8S4V1An9bLufeP0C5ApvZ6ujkF1aEJ736irmgtI8aiLIWVfE3MbKRJYCFd1Hz0Jf4Sojxqay6Pv4zsJe6AorPPQIeIRDLlPVVaeHdDJu0tHdq7D1SJ7+nTvr1Qm/qeQuU5F5PJ72m8es0DDYE9lbVPN6Qo7OmUHn1gT2FLk/ZYjdQk1rQN/sYzgsaautpXIqyJbOkywlMQGKis6VOefFEbtgKMbwRIgCGyp1T7CQKE9nRefVijprSmUHioBFSaDgDH4CEK9qQWFUv39liTWtSr3EdBSWtRr3TekkxlDmIe/8CrBPAL0ikYwP3z9fflvR07rxI4dmGDQLFiEvx28SMBfN1hH9kA7gJdzulFAm+YuNqoBnAXo9fqJheYZ1VGjABGruqfibXqRyHiDcFuSyZIjkSbjf61aDWAkWt3cxqXnw3U0faUivXbSWuHnw1UkTzg7ScSUg7HsUOcIvD6Mw6Fu3F0H2UMcP3hH+ndjSPqGCHg9tNa2qy6/9BpQOnE7xzw5+ZsHCXCBwHtgMfBWS0WPg/WwoUvcdWNNMF7gUY4yafrlfEfl2PSWyNwJSlH3VgVuht2deVMHHVjh8AnApWzmqJ2cx6hD9sP0u5SisHNOKYN2xGV7hprZqUDCDwUKB3R3T1/6V0SH8HLHXnc4mkbKBP5/FeFZABuAoF2Mo8MeTKkdlxYCBcn0gKejR9C7nt4D334bt56jfPCQk3SFePtPByIATjKKn88jxMBV1UMITc+5Mu+GxgImaMzfi/L09gqpvTxy6l99FfUyhMJdxn8VX3lp7gGHE3M28cvSPiZtMvnBWA+IDyK1lOPsX9aADegjGqRE8gnx5HeEf+d92pqHEkb2ZJyIN+o/HHrbp8og69AGnguNCyvAk6wAeTzxVyx2eeP1wOIlRC4f4+vvecrxh+kA2G7yAVq2AqyOS/YrRhHknYCesVhArqYf++7WjH+I+4EBGohuEg2mQnUDr5kQtoJtHMWMMC2UE3cX7bxCIC/+R33Ew7xF2KbaQswsCHgMhfzM/Rte0E5VQdo2B6qUSN/YSEAKEc7ww0DD4AkO8OKATpp5GNmfuAhAICxuyyJJIHe3n1u0CqAQRgQK5aWk0aJh7oDAxeIh/t2LAuAjeKAJwIN0gneJnLc17PIAtFbVSOFAGwWHebsCxYWgFq7wdOgFjaLCtN6g/UJmCQC4xMTJomAwPLAHraLAkn5D2yCIHKzNZYHwoaRIwSUjFwAZEjAaxi5AADkZjtEFYwIwKcFbHLhASDH+mRscuHhe2BQrAhQI2tC2RQDCmmTsSJAA1RYP5hNNaS/pwHAiwC8R8KnHDRIl4wZARkSBFgRkGPtMEYNAaRA5kUA0iLhRQDSJGNOAHAjoERqQU4EILkxbwIUNwK+NQh2ApgT0LMjoEMI4FQL/ElAy44AuxPAqhaCcifgf9DsCKh2AtgSgE+GdgIQAlhNhzECWJ0P2AlAMkFWZ4SwWoDVKTFu1eCBOQHIGIRXRwgZg6AEMDotzq0r3MwRoHklggZpELDKgzTSIuKTBuDHBHmlAT0SGFmlAT2SGrGKgvV3AlpWUVB+dws9pyhoxff6cOBUDFssMnIKAhrLjTiVQgrzC4LPUMAO2D9KRkGgxWTRMvKBNbpeio8PtAKA0UtT+EvCrF6bq/CQb9mEAYtYe5RXZ19HEHqvcIsLowevyC4T3/AK6wJqvETUgR5D2F3u+K4UfIuO5/uPxUA2tjPxEHCVXtbF+5z1Af2pwEtUyogf8y1H77ML9hAyOw8T7CMr9ehW6VACwFEHsgArRsODDPQQcOhA5JtxbvpQbgiHCEP+MB6adGAL8FyQz68NRZ5BIAsIFwkrO2HoDUJOkBiAwwT5bTOVJKugLiCEAAtEZ5MRwlsxEikQdpOeJgvjh0q7EG0I8clJfpTHamwefYCfNjPPRsQkYAhQgw4zLqINGQW966+a8DPz29XpE5BjkWbu2iRlAuYFoGcd9ECcgCc/IlXYb9gOAc2EBcx/ZYU+AQVacs+zpOkSMN+G7JekqfU2CKgsArkkUmiqBMxXYHrZ1UmiBMz34dtllYreAAGVxSAWSqUmT8D7E38fMxXqBOQWRb1YLC1BAuYHcWa5uzSCNAHNc9U2eimUCagsDvnM/6/pEvDr2b9+wOf1VAl4f7rlil+gokXA/P3rZ7u2V5IE/LJjaFdETToEzN+/WRE2JDUCsmblzKEYIU3SIiCfuH+zbnopKRHw19TvtCuHVyc6BPyyEzCrT/HdiBCQNz+bOlZ2DFpSIOBoJ6F/NMK/idQJeOt+PnefVNCXSJmA/OLi7xZ2EvePVAnILnYW0slVPv6Pe1QCssdv2HlcV8xR5mHiEuDhSjv7FHRcE7DLUa+ZJMxDUSFggKVoKBHQrVCqWwkMXghw/7Skg2Yiip4GAVd4AhkhAiovmcW7XY42NQKctHYbMgSUDhwAgnxFdI1DwIuns8fvRAlw19dutkPAzevLDVamToCCdTjQIKDw9w7a+yYI0LAe1QYI0P7P94uUCVAOJkyJE3Bw5P9xZB0JAjxOc7KGMAESwAUDVAnQEtygoUnADZzhSJGAEzhE3lELg1q43vxDKhEyJ3COt44OATcBPnDsCBCAOH+nFKRPgPkAn3i7pN0QMSfwjrfz4w/EVsDjN85+nj6l0+I7ATsBOwE7ATsBOwGJIDt21iHuX0ALeWcdQ0taS7zdwwhC+u+sB2ggg9J6QUtGANYPDJ0t9p5QAw001hMGMhbA2wYO1hsEFRfA2wlU1ht6Kj6QtxfsrDcooAC7E+ANajeBnYA9Cux5wJ4J7rVA4si5V4PQsQoCuBfk3RQsrCfIvSnKuyk4APC2AQlUkPmzAM5xoOc2HMXTQL65kAJKKDy5QMZuUAMtlB7TYJYloQFqqJwLgLcEBJBD46UM4JoMCQDWEhiAIgovSRDLfFgBTRTMBQCZ+yyYZz5cA7CWgAbgLYEagLUENABvCbRAGTmjOhhH5UAArCVgAHhLoAVgLQEDwFsCVwDeEhCwATR8GiE4Dg4EwFQCAwBvCQgA1hIYAHhLQACwlsAAwFsCAoC1BAYA3hIQAKwlMMC2UDAXAEC3QgCcJSAAWEtAAfCWgARgLQEFwFsCcl+mxlsCEoC1BBQAbwlIANYSUAC8JSABWEtAAfCWgARgLQEF20bBXACQdbwFAPDOWQDzJ+c0bB/lzKFI1hLQwAHlpABYS0ADD5QTAmAtAQ1cUI4KgLUEDPBBhZ+K5YMcFwBvCbTACTkmAN4SGIAXDsg8nBcatgLAe2MS2KFDOmF8JVADQ3SIALgGAgksUSGvRrEMhTdgi1/Il+J5Ifv8iJwC/g3pupkVvUmckAAAAABJRU5ErkJggg==;" vertex="1" parent="1">
          <mxGeometry x="705.305" y="288.51999999999987" width="37.69" height="33.13" as="geometry" />
        </mxCell>
        <mxCell id="sqDV4bE9PQli710Vu9U6-45" value="" style="group;fontSize=10;" vertex="1" connectable="0" parent="1">
          <mxGeometry x="565" y="194.69" width="74" height="48" as="geometry" />
        </mxCell>
        <mxCell id="sqDV4bE9PQli710Vu9U6-46" value="" style="shape=image;imageAspect=0;aspect=fixed;verticalLabelPosition=bottom;verticalAlign=top;image=data:image/png,iVBORw0KGgoAAAANSUhEUgAAAgAAAAGOCAMAAADW9Ev9AAAAq1BMVEUAAAAAAAAAAAAAAAAAAAAAAAAAAAAAAAAAAAAAAAAAAAAAAAAAAAAAAAAAAAAAAAAAAAAAAAAAAAAAAAAAAAAAAAAAAAAAAAAAAAAAAAAAAAAAAAAAAAAAAAAAAAAAAAAAAAAAAAAAAAAAAAAAAAAAAAAAAAAAAAAAAAAAAAAAAAAAAAAAAAAAAAAAAAAAAAAAAAAAAAAAAAAAAAAAAAAAAAAAAAAAAAAAAAA0NbREAAAAOHRSTlMABAkNEBQaICQpLjI1Oj5BRUpQVFhbYGZrcHV6foOIjZOYnaKorrO5vcDDyM3R1tvh5ujs7/P4/JHuogEAAAxNSURBVHja7N1dT+JAFIDhM7UiRQSFYvxi44qoq9i6aOX8/9+z997sxSZLTIlV183UOsO8DwY/Er0456UgmiLWou4g9cSgGwnq1Zs+qkcepzvsrEabU/XOecze6rKVq4eyFpurR5yrl7INdleLiXrqjN3VYVu91WF7NThTb31nezWYq7fu2J69lnpsk/1Z66ryICBkO+qxLvsjABAACAAEAAIAAYAAQAAgAFgEMEmdc04A74mkVk+/nPPEkt/D/0kTAAgABAACAAGAAEAAIAAQAAgABAACEEn20oq+eKyfrrvh3pbUZOt0rh91JM451lDlJ5tizxw/qhKAnx72xZaZqhKAv76JpYkSgNeO7B4EpiMeJ/ttvG0TgDlhgp4zY5sABm0m6LvdxCKAXebnvz2LADiRxhroWATAOTW9Zr/EQv/ToTjnSAN302QAQ3HOiAAaDKAtzkkIoLkAMnFQTgCNBXAgDjokgKYCyIw4KMoJoJkAio44absggCYCKPriqN2CAD4/gFkizurcEsDnBrC4HhlxmBldLwigngCytGLQi8V5cW+Yrr2HBgK44tl1d/0kAAIgAAIgAAIgAAIgAAIgAAIgAAIgAAIgAAIgAAIgAAIgAAIgAAIgAAIgAAIgAAIgAAIgAAIgAAIgAAIgAAIgAAIgAAIggIACiBmaP4x5fpPltVn5ipFIzIa8ggC+akWmXNPyEi3fL/f35qX8PlldspEPIIB/KBdkVj82z2sxRl6sqPykspPl1cqOxD+xyyuqHufKFVWWU66ouqDyZ3CQeiH+lLui8vLW8e7N2xAr+hLJyWU+v69Q+G9xXzG/+zHuSKk9ZUzhuWg/nyt4cDvkGBiccu3DBbeGMC3+FpAUTCJURSIiV8whXFciXaYQsh05ZQghO5UZQwjZLEr4fShkScTrxwct2jikgJD9loz7wZDdyCVDCNlEJgwhZGMZM4SQ7csBQwhZTwYMIWQt/hYQtEKkxRQClomYhVYV11g3M33FhYjcaVXOU2Rrp69/2ruvtUS2LQzDP6BiTpgDYrbNAWHe/5Xt52mP1nbMllB01xzj+47X0W+vosJLYXQm6cE6ArCXu/Zzv/VrimC+MeaubjLakmwRwkNid13lfu7/OBltMpizTPkzbEjaTUZ7DOatfvrea/bs8JjBnDWfQcHSUjI6ZzFXZfT3hSS1ktENizlrJ3+g71tYlMWcdZyMOpJkorA3FnPWRTJakTLfDRvyngZn/cre77NR2AKT+X+B3Ify9wjXmMxVTZsE/85EYbwywldLyehKvzNR2CGbuWrLJsH5WwRdNnPVYf6Gv43CLtnMVT2bBP+uMeSV0O67+dOl3hsozHn23b6BJAkUFqKBTYIlgcIi1M4/8QOFhSbBEigsQnt/vNezBwqLSoK/2gSFhSTBS3+8T9xjNe8kuClJWRR2zWoRSPBXn6Aw380lo1+SJFBYbBIsUFhwEgwKC0uCd364SlxlNzdd5P/AeRS2zW4RSHAehR2wm5te0/f6kiRQWISaw+x1PigsOAkGhYUlwd2fvjbyzHBeOvjxce8jKMxzZ8loQ1/lUViL5TyT4LYkgcIgwaCwyCQYFBahhTwJBoVFaD0vvkBhkODfzYHCHHeaJcF/RmEPTBeBBH/1Agrz20MyakoSKCxEH9n/u0FhkGBQmPtWbBL83w5BYW7rjHKTpwMKi0qCv1oDhbntPPvxDgoL0V0ympckUBgkGBTmvkaeBP+Ewvqs56BFkwR/V0OgsKgk+KtzUFgkErw/2sXiBvNFIMF5NLDLfJ5JMCgsLgluSBIoLESf2VeBg8LCkuBbSRIoDBL8Awp7Zb8IJPirX6Awl51mpQcoLEL233VZkkBhkGBQmP/esyQYFBahVjK6l5GJwk5ZsPCWR6ZebVBYGBJ8MjIcuWXBwjsa/SHfOygsCglekyRQWIhusyQYFBail+wLAEFhkOD/dgIK89di/ik/KCxANvTqjvHfHrGhRxJstgwKC0KCNyUJFBaia5sE2w1AYe56ypJgUBgkeCQUxoYeSbDdFSjMW2vJ6FyZzkBh3trNX9qDwiJ0kv2TgsIgwaAw/92P84TXRmEXrOiQBNs1EigsDAkGhUGCQWHu286T4NFRWJMdI5DgPApbZEeHJBgUBgkGhUGC/78tUJirGpbweJIkgcIi1B7XeM0noyuGdEWCzyRJoLAI7eef7oHCItQ1SfC4D48GDOmKBC9KEigsLAkeNsb+GsEKS0YgwXkUtsWSZTY/9uN9G4XtM6U7EgwKgwSDwiDB32uCwsKS4DwKe2JKjyTY7gkU5qe39L13SRIoLELNlH2yAwqDBI9z4rjOmCW2Pck1/T4ozE2HyWhPkkBhIeqZJHiSz40zxnRDghckCRQGCR4Lhd0zpi8SDAqDBIPC3Lcx0emcjcLmmdMVCQaFRaib1V2gsBBdTXZXfwcU5qTHyX4MfB0U5qR+9noOFBaWBN9JkkBhEVq1SfDPfYDCopLgPAr7YM/iOk5GHUkChYXoYtIbOhegML8keE6SQGFhSfDHxLeQdxjUDwkGhUVoKS97QGER2srf0QWFQYJBYe7rTX4u/woKc9BNlgSDwkL0nP0rgsJCNJj4x19sFLbMpOWT4BuN1BEozDUJBoVBgidAYSds6pAE2y2CwpyS4KUpHiPcsGn5JLgpSaAwSDAozH1zNgkesVtQmEsSfDGVJmuzakHtJKNjjdgpKMwvCQaFQYInwySHrFpQv2wSPGIroLDSe81eyIHCItQcZkkwKAwSPNkB5IVZXZBgUBgkGBQWkwRvSBIoDBIMCoME/9QuKMwrCQaFRWhhStJjo7Bzhi2l9WTUkySBwiK0N/XDnD4orOROpzyJt1HYO8OWT4JBYSF6yJJgUFiAbNb9Ov2HyBrLFkyCf03/zbIO05bRSp4Eg8Ii1MmTYFBYhI6zqBcUFpcEr0oSKCxEd1nOAQoLS4L7Gq8HUJgvEvwoSQKFQYJHrAcK80WCu5IkUFiEDirwXDYK22PcEjqzSfB4bYDCfJHgtiSBwuKS4IYkgcIgwVOhsEfG9UiC7Z5BYf5I8NQorMG8RZNgUFhYErwtSaCwEF3aJHjcDkBhhfZQjejeBoU5IsFvkiRQWAwSXI3lWQCFhSHBdkPLlrNv7evkn+KAwiJ0lIx2JQkUFqJzmwSP33UymmPgckkwKAwSPPVnySYD17xGngSDwiK0mL98B4VBgsdpCRQWhQTbtUBhvkgwKCxE11nHAQoL0VOWBFeCwoagsJr3Wd0d/EtQmBMSfCtJAoVFaC1PgkFhkGBQGCR42h+g7rJxeSR4ucLziUs2dkiC7RqgsPJ6z5JgUFiEWiYJrvJw8snIdW45/7ENCovQdpXP8G0UtsTKDkmw3TEozAUJXpMkUFiIbrMkuDIUdszKNe4le94OCgtLgp8kSaCwsCT4WpIECovQZqXf6bdR2Bsz17f9in/1/Q4U5oAEb1b8bHGBncsiwYuauC4orKyesodsUBgkGBTmvvk8CQaFRWgtf+cOFBah3WR0VPWdxTuGrmsnNgmeojdQmA8SDAoL0X0yakkSKCxEb9nvc4PCItRMRg+SJFAYJHii9kBhUUiw3SYorHQSvFf971D3mLqe9ap/dtcyiRFTF0SCFzRVn6AwDyQYFBahxiBLgkFhEWrnP69BYZDgKlHYKmMXQ4IPZvHq4W3GrmPdZLQ5i5tLB4xdFgkGhYXo8ecTdn4+0vlVYPV6pzHkTlAhLZkkeCbGYNBk7kIuAs5no4y2mLt+3czmfP2Cl0SU0fwgGa1r2g6T0WeLwQvAAJX4zbWECSmh5lsyetbUNQfJqD/P5PXqNM3K7twlUEj9Wx4kq+2ZfbakI0avUfMvyWrQqujFUzwQqHdzD8nsRlX0kOx63A6qSSsvyW5HVXSQMr3u80+gBrV7g2T30VQVtT5Trv71yd4O/bt297v3w5Srq2o6S1RigwVV08KAMUvsQuIQELhBW1U132fO8uqqug6Ys7heW6qwewYtqerNxuIni0Y5A7TbYdKiem7qK64EQtZfVOVdM2sxDTZUfc1bhi2k4bbEv4C4DTqaTY1Lxi2g/qZm1tGQfevey5Jm2PorC9e7qznNtNY5B4Ea99bRzFvhXLCufXZb+hut33AUqGH9swX9rdonzwxeqwa3e0391dr7l09IoVr0+dDrzOlf1GivbnWQmf+y7c3V6Q/8/wP3+u56iLcTmAAAAABJRU5ErkJggg==;" vertex="1" parent="sqDV4bE9PQli710Vu9U6-45">
          <mxGeometry width="61.746206896551726" height="48" as="geometry" />
        </mxCell>
        <mxCell id="sqDV4bE9PQli710Vu9U6-47" value="&lt;font style=&quot;font-size: 10px;&quot;&gt;Data&lt;/font&gt;" style="text;html=1;align=center;verticalAlign=middle;whiteSpace=wrap;rounded=0;" vertex="1" parent="sqDV4bE9PQli710Vu9U6-45">
          <mxGeometry x="1.2403163114864064" y="16.171724137931037" width="59.50944913550462" height="24.82758620689655" as="geometry" />
        </mxCell>
        <mxCell id="sqDV4bE9PQli710Vu9U6-48" value="" style="group" vertex="1" connectable="0" parent="1">
          <mxGeometry x="697" y="194.69" width="74" height="48" as="geometry" />
        </mxCell>
        <mxCell id="sqDV4bE9PQli710Vu9U6-49" value="" style="shape=image;imageAspect=0;aspect=fixed;verticalLabelPosition=bottom;verticalAlign=top;image=data:image/png,iVBORw0KGgoAAAANSUhEUgAAAgAAAAGOCAMAAADW9Ev9AAAAq1BMVEUAAAAAAAAAAAAAAAAAAAAAAAAAAAAAAAAAAAAAAAAAAAAAAAAAAAAAAAAAAAAAAAAAAAAAAAAAAAAAAAAAAAAAAAAAAAAAAAAAAAAAAAAAAAAAAAAAAAAAAAAAAAAAAAAAAAAAAAAAAAAAAAAAAAAAAAAAAAAAAAAAAAAAAAAAAAAAAAAAAAAAAAAAAAAAAAAAAAAAAAAAAAAAAAAAAAAAAAAAAAAAAAAAAAA0NbREAAAAOHRSTlMABAkNEBQaICQpLjI1Oj5BRUpQVFhbYGZrcHV6foOIjZOYnaKorrO5vcDDyM3R1tvh5ujs7/P4/JHuogEAAAxNSURBVHja7N1dT+JAFIDhM7UiRQSFYvxi44qoq9i6aOX8/9+z997sxSZLTIlV183UOsO8DwY/Er0456UgmiLWou4g9cSgGwnq1Zs+qkcepzvsrEabU/XOecze6rKVq4eyFpurR5yrl7INdleLiXrqjN3VYVu91WF7NThTb31nezWYq7fu2J69lnpsk/1Z66ryICBkO+qxLvsjABAACAAEAAIAAYAAQAAgAFgEMEmdc04A74mkVk+/nPPEkt/D/0kTAAgABAACAAGAAEAAIAAQAAgABAACEEn20oq+eKyfrrvh3pbUZOt0rh91JM451lDlJ5tizxw/qhKAnx72xZaZqhKAv76JpYkSgNeO7B4EpiMeJ/ttvG0TgDlhgp4zY5sABm0m6LvdxCKAXebnvz2LADiRxhroWATAOTW9Zr/EQv/ToTjnSAN302QAQ3HOiAAaDKAtzkkIoLkAMnFQTgCNBXAgDjokgKYCyIw4KMoJoJkAio44absggCYCKPriqN2CAD4/gFkizurcEsDnBrC4HhlxmBldLwigngCytGLQi8V5cW+Yrr2HBgK44tl1d/0kAAIgAAIgAAIgAAIgAAIgAAIgAAIgAAIgAAIgAAIgAAIgAAIgAAIgAAIgAAIgAAIgAAIgAAIgAAIgAAIgAAIgAAIgAAIggIACiBmaP4x5fpPltVn5ipFIzIa8ggC+akWmXNPyEi3fL/f35qX8PlldspEPIIB/KBdkVj82z2sxRl6sqPykspPl1cqOxD+xyyuqHufKFVWWU66ouqDyZ3CQeiH+lLui8vLW8e7N2xAr+hLJyWU+v69Q+G9xXzG/+zHuSKk9ZUzhuWg/nyt4cDvkGBiccu3DBbeGMC3+FpAUTCJURSIiV8whXFciXaYQsh05ZQghO5UZQwjZLEr4fShkScTrxwct2jikgJD9loz7wZDdyCVDCNlEJgwhZGMZM4SQ7csBQwhZTwYMIWQt/hYQtEKkxRQClomYhVYV11g3M33FhYjcaVXOU2Rrp69/2ruvtUS2LQzDP6BiTpgDYrbNAWHe/5Xt52mP1nbMllB01xzj+47X0W+vosJLYXQm6cE6ArCXu/Zzv/VrimC+MeaubjLakmwRwkNid13lfu7/OBltMpizTPkzbEjaTUZ7DOatfvrea/bs8JjBnDWfQcHSUjI6ZzFXZfT3hSS1ktENizlrJ3+g71tYlMWcdZyMOpJkorA3FnPWRTJakTLfDRvyngZn/cre77NR2AKT+X+B3Ify9wjXmMxVTZsE/85EYbwywldLyehKvzNR2CGbuWrLJsH5WwRdNnPVYf6Gv43CLtnMVT2bBP+uMeSV0O67+dOl3hsozHn23b6BJAkUFqKBTYIlgcIi1M4/8QOFhSbBEigsQnt/vNezBwqLSoK/2gSFhSTBS3+8T9xjNe8kuClJWRR2zWoRSPBXn6Aw380lo1+SJFBYbBIsUFhwEgwKC0uCd364SlxlNzdd5P/AeRS2zW4RSHAehR2wm5te0/f6kiRQWISaw+x1PigsOAkGhYUlwd2fvjbyzHBeOvjxce8jKMxzZ8loQ1/lUViL5TyT4LYkgcIgwaCwyCQYFBahhTwJBoVFaD0vvkBhkODfzYHCHHeaJcF/RmEPTBeBBH/1Agrz20MyakoSKCxEH9n/u0FhkGBQmPtWbBL83w5BYW7rjHKTpwMKi0qCv1oDhbntPPvxDgoL0V0ympckUBgkGBTmvkaeBP+Ewvqs56BFkwR/V0OgsKgk+KtzUFgkErw/2sXiBvNFIMF5NLDLfJ5JMCgsLgluSBIoLESf2VeBg8LCkuBbSRIoDBL8Awp7Zb8IJPirX6Awl51mpQcoLEL233VZkkBhkGBQmP/esyQYFBahVjK6l5GJwk5ZsPCWR6ZebVBYGBJ8MjIcuWXBwjsa/SHfOygsCglekyRQWIhusyQYFBail+wLAEFhkOD/dgIK89di/ik/KCxANvTqjvHfHrGhRxJstgwKC0KCNyUJFBaia5sE2w1AYe56ypJgUBgkeCQUxoYeSbDdFSjMW2vJ6FyZzkBh3trNX9qDwiJ0kv2TgsIgwaAw/92P84TXRmEXrOiQBNs1EigsDAkGhUGCQWHu286T4NFRWJMdI5DgPApbZEeHJBgUBgkGhUGC/78tUJirGpbweJIkgcIi1B7XeM0noyuGdEWCzyRJoLAI7eef7oHCItQ1SfC4D48GDOmKBC9KEigsLAkeNsb+GsEKS0YgwXkUtsWSZTY/9uN9G4XtM6U7EgwKgwSDwiDB32uCwsKS4DwKe2JKjyTY7gkU5qe39L13SRIoLELNlH2yAwqDBI9z4rjOmCW2Pck1/T4ozE2HyWhPkkBhIeqZJHiSz40zxnRDghckCRQGCR4Lhd0zpi8SDAqDBIPC3Lcx0emcjcLmmdMVCQaFRaib1V2gsBBdTXZXfwcU5qTHyX4MfB0U5qR+9noOFBaWBN9JkkBhEVq1SfDPfYDCopLgPAr7YM/iOk5GHUkChYXoYtIbOhegML8keE6SQGFhSfDHxLeQdxjUDwkGhUVoKS97QGER2srf0QWFQYJBYe7rTX4u/woKc9BNlgSDwkL0nP0rgsJCNJj4x19sFLbMpOWT4BuN1BEozDUJBoVBgidAYSds6pAE2y2CwpyS4KUpHiPcsGn5JLgpSaAwSDAozH1zNgkesVtQmEsSfDGVJmuzakHtJKNjjdgpKMwvCQaFQYInwySHrFpQv2wSPGIroLDSe81eyIHCItQcZkkwKAwSPNkB5IVZXZBgUBgkGBQWkwRvSBIoDBIMCoME/9QuKMwrCQaFRWhhStJjo7Bzhi2l9WTUkySBwiK0N/XDnD4orOROpzyJt1HYO8OWT4JBYSF6yJJgUFiAbNb9Ov2HyBrLFkyCf03/zbIO05bRSp4Eg8Ii1MmTYFBYhI6zqBcUFpcEr0oSKCxEd1nOAQoLS4L7Gq8HUJgvEvwoSQKFQYJHrAcK80WCu5IkUFiEDirwXDYK22PcEjqzSfB4bYDCfJHgtiSBwuKS4IYkgcIgwVOhsEfG9UiC7Z5BYf5I8NQorMG8RZNgUFhYErwtSaCwEF3aJHjcDkBhhfZQjejeBoU5IsFvkiRQWAwSXI3lWQCFhSHBdkPLlrNv7evkn+KAwiJ0lIx2JQkUFqJzmwSP33UymmPgckkwKAwSPPVnySYD17xGngSDwiK0mL98B4VBgsdpCRQWhQTbtUBhvkgwKCxE11nHAQoL0VOWBFeCwoagsJr3Wd0d/EtQmBMSfCtJAoVFaC1PgkFhkGBQGCR42h+g7rJxeSR4ucLziUs2dkiC7RqgsPJ6z5JgUFiEWiYJrvJw8snIdW45/7ENCovQdpXP8G0UtsTKDkmw3TEozAUJXpMkUFiIbrMkuDIUdszKNe4le94OCgtLgp8kSaCwsCT4WpIECovQZqXf6bdR2Bsz17f9in/1/Q4U5oAEb1b8bHGBncsiwYuauC4orKyesodsUBgkGBTmvvk8CQaFRWgtf+cOFBah3WR0VPWdxTuGrmsnNgmeojdQmA8SDAoL0X0yakkSKCxEb9nvc4PCItRMRg+SJFAYJHii9kBhUUiw3SYorHQSvFf971D3mLqe9ap/dtcyiRFTF0SCFzRVn6AwDyQYFBahxiBLgkFhEWrnP69BYZDgKlHYKmMXQ4IPZvHq4W3GrmPdZLQ5i5tLB4xdFgkGhYXo8ecTdn4+0vlVYPV6pzHkTlAhLZkkeCbGYNBk7kIuAs5no4y2mLt+3czmfP2Cl0SU0fwgGa1r2g6T0WeLwQvAAJX4zbWECSmh5lsyetbUNQfJqD/P5PXqNM3K7twlUEj9Wx4kq+2ZfbakI0avUfMvyWrQqujFUzwQqHdzD8nsRlX0kOx63A6qSSsvyW5HVXSQMr3u80+gBrV7g2T30VQVtT5Trv71yd4O/bt297v3w5Srq2o6S1RigwVV08KAMUvsQuIQELhBW1U132fO8uqqug6Ys7heW6qwewYtqerNxuIni0Y5A7TbYdKiem7qK64EQtZfVOVdM2sxDTZUfc1bhi2k4bbEv4C4DTqaTY1Lxi2g/qZm1tGQfevey5Jm2PorC9e7qznNtNY5B4Ea99bRzFvhXLCufXZb+hut33AUqGH9swX9rdonzwxeqwa3e0391dr7l09IoVr0+dDrzOlf1GivbnWQmf+y7c3V6Q/8/wP3+u56iLcTmAAAAABJRU5ErkJggg==;" vertex="1" parent="sqDV4bE9PQli710Vu9U6-48">
          <mxGeometry width="61.746206896551726" height="48" as="geometry" />
        </mxCell>
        <mxCell id="sqDV4bE9PQli710Vu9U6-50" value="&lt;font style=&quot;font-size: 10px;&quot;&gt;Outputs&lt;/font&gt;" style="text;html=1;align=center;verticalAlign=middle;whiteSpace=wrap;rounded=0;" vertex="1" parent="sqDV4bE9PQli710Vu9U6-48">
          <mxGeometry x="1.2403163114864064" y="16.171724137931037" width="59.50944913550462" height="24.82758620689655" as="geometry" />
        </mxCell>
        <mxCell id="sqDV4bE9PQli710Vu9U6-51" value="Archive on Zenodo" style="text;html=1;align=left;verticalAlign=middle;whiteSpace=wrap;rounded=0;fontSize=12;" vertex="1" parent="1">
          <mxGeometry x="590" y="403.16" width="145.79" height="30" as="geometry" />
        </mxCell>
        <mxCell id="sqDV4bE9PQli710Vu9U6-52" value="" style="shape=image;imageAspect=0;aspect=fixed;verticalLabelPosition=bottom;verticalAlign=top;image=data:image/png,iVBORw0KGgoAAAANSUhEUgAAAhoAAAHkCAMAAABPF3bgAAAAkFBMVEUAAAAAAAAAAAAAAAAAAAAAAAAAAAAAAAAAAAAAAAAAAAAAAAAAAAAAAAAAAAAAAAAAAAAAAAAAAAAAAAAAAAAAAAAAAAAAAAAAAAAAAAAAAAAAAAAAAAAAAAAAAAAAAAAAAAAAAAAAAAAAAAAAAAAAAAAAAAAAAAAAAAAAAAAAAAAAAAAAAAAAAAAAAAAAAADDIYgjAAAAL3RSTlMABQoQFhoeISUoKzA3PUVPVlxkbHJ3eoCIkZacoqevtb3FzdPY3d7h4+To6/D2+/3FOm4AAAgXSURBVHja7NyJUhppGIbRrwGDCqi44c4i6Gig//u/u8liJi40VRMa08A5F2BZbz1FbzTx2u7J3ehxlrOFnkf9Xjvmy04mie329bIRHx0Jg5Sm57V4q9a3Cj+Md+O1xsgkvJgexG/NR4Pwn/x3G7V7c/DKdC9e3BqDNyb1+OHAFLxzEd9lDie8N/sS33QNwQc38c3ADnwwq0XUczvw0aHjCYVHlCsrMMc44s4KzDGN8PSEuWrh8QlzNePJCMyzKw2kgTSQBtJAGqxDGq06W+DpD9LYDbaANJAG0kAaSANpIA2kgTSQhjSkIQ1pSANpIA2kgTSQBtJAGkgDaSANaUhDGkgDaSANpIE0kAbSQBpIA2lIQxrSQBpIA2kgDaSBNJAG0kAaSEMa0pAG0kAaSANpIA2kgTSQBtJAGtKQhjSkIQ2kgTSQBtJAGkgDaSANpGE2aUhDGtJAGkgDaSANpIE0kAbSQBpIQxrSkAbSQBpIA2kgDaSBNJAG0kAa0pCGNJAG0kAaSANpIA2kgTSQBtKQhjSkwR+lkbMN0qI0QBpIA2kgDaSBNKh4GmMjME8jBkZgjjzixgrM8RjRswJzDCLaVmCO04iYmIGPvkTEhRn4YBjfNGeG4L2j+O7MELzTjx+ye1PwxqwZP7WmxuC14/ilow1e6cVvB05F+SXvxWv7zjf46fkg3soufHCQUn63Ex80LpxxbLv8Zj/myjq9wYMPj+2UP40uD+uxUK3+4jEVOOuyZqapwH79RfwfD4V/zuuA6+Zr8VO0F9KQhjSQBtJAGkgDaSANpIE0pCENaUhDGtKQBtJAGkgDaSANpIE0kIY0pCENaUhDGtJAGkgDaSANpIE0kAbSkIY0pCENaUhDGtKQBtJAGkgDaSANpIE0pCENaUhDGtKQhjSkgTSQBtJAGuXIWkfn1/3h/eSfqni8Hw5ue912TRp/Ueu8P01VlQ8vDjJp/A27vXGquq9XHWl8tk4/rYf7biaNT3QwTOtjcpxJ45Ps3Kb1MmpL41OcTtO6ya9r0li5Rj+to3FLGivWfkzraXYsjZU6nKW1dSGNFTrO0xq7zqSxKmdpvd1l0liN47TubqSxEod5euF8QxqvtWdpA5xIo3T1SdoEeVsaZbtLm+GhLo1ynaRNcSuNUjWmaWMcSKNMN2lzTGrSKE8nbZJzaZRnkDbJtC6NsrTTZjmThgvX+Z5r0ihHM22arjTKcZ4WG192O629qthvH/WGabGBNMpxnxbpd6J6mld5WiBvSKMMrbTA9CiqqbUw6BNplOE0FZs0o6pq/VSsL40VX5887ER1ZXep0FQaZZgWD7wbVVYbpUItaSxvPxU6imprzlKRE2ks77DMA3ZlLrsvpbHKs9BOVF1tWpi1NJZ3lQpMovquU4GxNJbXTwWuovqOUoGZNFb4QP44qq+ZikhjeaPiU43qy/JUoCaNpY1LvjVQkZsyDWlIY74daWz3ASXyVKAujaUNU4FuVN9OKpJJY3UXrxdRfQcuXv/GXaNRVN9FKjCRxiqfQ+xG1WWPqcBAGss7SqXeDq3K/y6NVX7/L9+PaqtNUpFTaSwvm6Uioywq7TIV6khjtW81XkeVdVOhWSaNEvSW/m2s6v322MB3Q1f+mvxVFhXVzVOxnjRK8ZQWGO5GFdWv0yJ70ijFZVpkdrUXVdM4e06LjLzY+Em/oTC+Pv+3vXtLSiOKwjC6m9aYKKIiRkSQi2hEgTP/2aV8DpVKNd1In6xvCD+rgKezb/tH02A036a/d4dGTS1SXm1O0Kip65RXI0+v1FXxknJqe4aGh+t3NvbMW30Vi5RP61M0aqy79cgbGrt7TLm0LNCotfI1JacN0Mj5J2Xg6IXDazubOpXjCfudPZdoNFAxS23v7Zvba41ULlK7W1+42NhQ5Ty1uY8LJ4AbqzNL7W31w+HwBus8pba2PHNTvtnutqmVTTqBRsP13lP72g4i0Gi88jG1rfl5oHGQLpepTa1vI9A4UEX/pT0w7stA44AVN4vUht4+YaBx4M6Hq3Tcbca9iEDjK7oYPH0cK4vZ/WURgcYXVnZvfg5H48mxNB4N7/u90/gMDf0ZGkIDDTTQQAMNNNBAAw2hITSEhtAQGkJDaKCBBhpooIEGGmigITSEhtAQGkJDaAgNNNBAAw000EADDTSEhtAQGkJDaAgNoSE00EADDTTQQAMNoSE0hIbQEBpCQ2gIDTTQQAMNNNBAQ2gIDaEhNISG0BAaQgMNNNBAAw000EADDaEhNISG0BAaQkNooIEGGmiggQYaaKAhNISG0BAaQkNoCA1To4EGGmiggQYaaAgNoSE0hIbQEBpCQ2iggQYaaKCBBhpCQ2gIDaEhNISG0BAaaKCBBhpooIGG0BAaQkNoCA2hITSEBhpooIEGGmiggQYaQkNoCA2hITSEhtBAAw000EADDTTQQENoCA2hITSEhtAQGkIDDTTQQAMNNNAQGkJDaAgNoSE0hIbQQAMNNNBAAw00hIbQEBpCQ2gIDaEhNNBAAw000EADDTTQEBpCQ2gIDaEhNIQGGmiggQYaaKCBRuM0uqVaVu00lE1oCA2hITSEhtAQGvrPaCwNl3+nUaW54bJvW0SVJpbLvlVUami57FtEpa4sl30PUanO2nS5dxnhz4Z2tIqKdW2XeXcRvja0o1+dqNqZfxtZdx3VuzZfxj3GPj0YMNvmndirkQkzbVrGnvU3VsyxhyL27nxqx+x6vopa6s22xsypZb+Iujq5mcxfN1u1vvfFdPD93z7038Wra16zw9bkAAAAAElFTkSuQmCC;" vertex="1" parent="1">
          <mxGeometry x="539.995" y="399.16499999999996" width="37.78" height="34" as="geometry" />
        </mxCell>
        <mxCell id="sqDV4bE9PQli710Vu9U6-56" value="STRESS-DES&lt;div&gt;Monks et al. (2019)&lt;/div&gt;" style="rounded=1;whiteSpace=wrap;html=1;strokeColor=none;fillColor=#FFF0D7;" vertex="1" parent="1">
          <mxGeometry x="361" y="181.72" width="120" height="41.68" as="geometry" />
        </mxCell>
        <mxCell id="sqDV4bE9PQli710Vu9U6-57" value="Generic checklist&lt;div&gt;Zhang et al. (2020)&lt;/div&gt;" style="rounded=1;whiteSpace=wrap;html=1;strokeColor=none;fillColor=#FFF0D7;" vertex="1" parent="1">
          <mxGeometry x="361" y="233.82" width="120" height="41.68" as="geometry" />
        </mxCell>
        <mxCell id="sqDV4bE9PQli710Vu9U6-58" value="Criteria from journal badges" style="rounded=1;whiteSpace=wrap;html=1;strokeColor=none;fillColor=#FFF0D7;" vertex="1" parent="1">
          <mxGeometry x="361" y="353.0799999999999" width="120" height="41.68" as="geometry" />
        </mxCell>
        <mxCell id="sqDV4bE9PQli710Vu9U6-59" value="STARS&lt;div&gt;Monks et al. (2024)&lt;/div&gt;" style="rounded=1;whiteSpace=wrap;html=1;strokeColor=none;fillColor=#FFF0D7;" vertex="1" parent="1">
          <mxGeometry x="361" y="403.61999999999995" width="120" height="41.68" as="geometry" />
        </mxCell>
        <mxCell id="sqDV4bE9PQli710Vu9U6-61" value="Evaluate original study materials..." style="text;html=1;align=left;verticalAlign=middle;whiteSpace=wrap;rounded=0;fontSize=12;" vertex="1" parent="1">
          <mxGeometry x="327.22" y="74.32" width="152.78" height="30" as="geometry" />
        </mxCell>
        <mxCell id="sqDV4bE9PQli710Vu9U6-67" value="" style="shape=image;imageAspect=0;aspect=fixed;verticalLabelPosition=bottom;verticalAlign=top;image=data:image/png,iVBORw0KGgoAAAANSUhEUgAAAgAAAAIABAMAAAAGVsnJAAAAJ1BMVEVHcEwAAAAAAAAAAAAAAAAAAAAAAAAAAAAAAAAAAAAAAAAAAAAAAAB+jSoGAAAADHRSTlMACSItSmp1lrvE6PawVMq8AAAIcklEQVR42u3cz2tcZRvG8fvMTJLa1UjT1/e172JwIaJdjIiINoupBlzYxYiIFbJIEVQkixRaRMmiFQoKWaRuRJhFW0FFZqFWsUgWYjJJZnL9UW4yYeQGM87peX70ur7/QT/cPXPy3JzHpmrxg0/6CN93b1kSFZcRq6uWQGd7iNawZdFr9BGxHYtdo4eotS1utU3EbdfidgGx61jM5gBQj8AaQD0CpwDuEdhACnW5ngC+gcVqCaAegdo20mjP4vQYUmnVonQJoB6Boo9kWuf6DfDtW4TOYaJbyy+EayXyCPjX4NGb4R8+8Uegj+OuWGwA3LDQ1XHcfYsP8KBpgZvHuMNWAgC4aYE77c7l4gIMQ4/AeYzrJgGA2xa2FRz1u0UD+MWNQIyzgN14AD8uYaK7FrRNHHUnIkAdE/0edgR6OGo9IoBdwET3LGTbOKoTE6C+PTkCLQsYxrVjAthzsUaghnHNqAC1PhDllayOcRYVwJ7FRPcJAf4+Am0+AHvSrcuJAPzRXJsPwP7nFmVkAI/3MFGHDMCPACFAselGgAvA/utGgAzANjFRlxBgARMNCAGKDTcCPAB+BPYIAWzDrcvJAObdCJABFGtuV8oD4EdgnxDAVtwIkAHMuREgAvAjcIMQoOHW5WQAxeTS9PAmF4AfgYMmF4Dfm98mBGi4dTkZgLl1ORuAW5cTAfgROLzHB/D3dfmoRQfg1uV8ALW+GwEmALcuZwPw63IyAL8uZwPw63IyAL8rZQPw63IyAD8CbAB+XU4G4NflZAB+BLpcAH5X+isbgF+XkwH4dTkbgF+XkwH4ESAEMLcuJwLw6/Lf2AD8upwMwK/L2QD8upwQYM6ty4kA/K70JhuAX5eTAfh1ORuAX5dzAfh1+W1CgDOYaNTkAvAjcI8PwH1dzgXg1+VsAH5dzgXg1+U/swH4dTkXgB+BHTYAvy7nAvC70p0IAMWLH/9D1y9WCuDX5UEB/KIOvs+qBPDr8uAAb+CkulUC+HV5YIAGTmxQJYBflwcGOI+Ta1UJ4L8uDwuwiZPbqhLAf10eFKCGKdqpFMCvy0MCNDBFg0oB/AiEBJjHFO1XC+DX5QEBTmGKhtUC+HU52wT4dTnZM8B/Xc72K+BHgOw9wK/LwwGcS+FN0K/L16n+FvAjgINmQn8NdsIAmPu6PAxAsRHwPKD8urw8gO+fT4SetyAAfl1OcCZ4wrqcDMCPACFA3a3LmQD81+VsAP7rcj4Adx8/F4Bfl5MB+HU5G4Bfl5MB+K/L2QD8upwQwK3LyQCscOtyNgC3LqcC8OtyMgC/LmcD8CPAB2BPYKIBG4Bfl5MB+HU5G4Bfl+cKMPph5vpuBLICeNi1yQEO75IDYMAO8IAdYMQOgCY7QFsAOQEssQP8nx3gNDvAAjtAjR3AVtgBFtgBbIUdoPYpGYDvzPLDKDJA/AQgAAEIQAACEIAABCAAAQhAAAKoDKC2PGuvNR8FgHcxe6Or+QM8gxIdjjq5A9RRrkHuAKdRsnbmAGso2VbeAAXKtps3QANl288bYB5lG+YNsIDSsQOM8gaYQ9kO8gaooWx7eQNYHyXbyRxgCSVbzRxgPu6vYHyAYgOl+jJ3AGv0oz4C4wPY4oc/zNr311o6ExSAAAQgAAEIQAACEIAABCAAAQhAAAIQgAAEIAABCEAAAhCAAAQgAAEIQAACEIAABCAAAQhAAAIQgAAEIAABCEAAAhCAAAQgAAEIIC2AxysteYCnP0WlPXgvbYA5VN6VlAGKHipv1EoYYAEB2koY4BICtJcuQLGNELWSBagjSJ2Er9EJ0nrCFykF6QY7wJb+C+ghmChAAfKfQVshfxGyUwjQ3YQBij4qb9ROGMD+g8q7aikD2Es9VNrwWvJHYk9VWlOHogIQgAAEIAABCEAAAhCAAAQgAAEIQAACEIAABCAAAQhAAAIQgAAEIAABCEAAAhCAAAQgAAEIQAACEIAABCAAAQhAAAIQgAAEIAABBAOov/PF1+G7/nwqAPUe4tRNBGANkTpoJgEwh2htJQFwHtHaSwKgh3i1EgCoIWKrCQA0ELEbSVykFLE77AB/JAAwzz4BDURsPQGAAhHrJgBgG4jWqJkCwJOI1q6lAHAG0VpPAsBeRqQGlgZA8RGi9FsrEoBv8e0IvaozQQEIQAACEIAABCAAAQhAAAIQgAAEIAABCEAAAhCAAAQgAAEIQAACEIAABCAAAQhAAAIQgAAEIAABCEAAAhCAAAQgAAEIQAACEIAAqgBYfD9KF8m/HAW+bSYB8Aqi9U0KAA1ErMN9fwBwl/sGCWCf/A4RoMl9iwzQ4b5HCFiNDvAEorZOdpWWB9AzgPo+QaDFfaMkhtx3igJ/ct8qC3QTALAVRGtgKQDUeojUsJUEgNVe/zxK11o6ExSAAAQgAAEIQAACEIAABCAAAQhAAAIQgAAEIAABCEAAAhCAAAQgAAEIQAACEIAABCAAAQhAAAIQgAAEIAABCEAAAhCAAAQgAAEIQAACEIAABCAAAQhAAAKY6n6gpmVbgXGtAHgBCjrG2+62qvxq4KhD+/f13H1l+bXgb5yavk0cdcey7TSOOrCp83eF7lq2XfJ3j07fCo4aWbb1TrhyarpL0g67lmlzGPdnmf8/2LFMW8K4LZs+f1vqYcuyrNbHuNVSLxG4b1l2AeVe5vo47opl2Fmg3HN8DceN3rTsWuzjuD2bpXOY6NbyC1m1fBkT/VTuRyT/ujZLRR+PSKNyL5L5t2uz9RgekbZstmrbyLnyL3LFEnLOvcrT/g50bOY2gPzbs9k7hbwrf6S3xjUAvjmyJ4DvAjLvGytXbRNZd9CykjV6yLhh20rX6CPbRp2mle9sD5k27NpDqbiMLLvVtIfV4gef9JFVo6+uX5zqn/YXOLoCZgoTxK0AAAAASUVORK5CYII=;" vertex="1" parent="1">
          <mxGeometry x="369" y="131.13" width="40" height="40" as="geometry" />
        </mxCell>
        <mxCell id="sqDV4bE9PQli710Vu9U6-68" value="" style="shape=image;imageAspect=0;aspect=fixed;verticalLabelPosition=bottom;verticalAlign=top;image=data:image/png,iVBORw0KGgoAAAANSUhEUgAAAgAAAAF+BAMAAAAGlr/lAAAABGdBTUEAALGPC/xhBQAAAAFzUkdCAK7OHOkAAAAYUExURQAAAAAAAAAAAAAAAAAAAAAAAAAAAAAAAFY3HCoAAAAIdFJOU/8ACSNilMnnf6FkIwAACPxJREFUeNrs3E1PGlEYhuGnOsDWlwHdOqHVLWNVtlBruwXpx1ZNu59YTf9+U6sW0E5STpyc43vf22d3RZkvBtlKg7cvugNbSbbY4ZdKL7zO95N/AvS+ykU3k6cBjio5qTN/CuBIjpo/BngjV52tAvQquaozWQboTuWsVrEEMJK7fiwC5HJYuQAwlsOyvwA9uWzyADCUyzbvAXI5rbwD2JPTLu8ApnJa6w9ALreVtwD7ctvVLcBYbsvMZF05rjBZX46bmWxXjtsw2ViOy0xWyXEdUy7XlerLdTNty3UX2pXrNjSW6zIApnJdS+dyXVuVXNcRERFR1HWqgDH9bk7MBqfrjvmpEu+b3fa6ChhT7rruS1zZGmNitQu7b1g3jurHdJvZQ3kVMKZayxYaBYypdmkL5QFjqpW22DhgTLPMltoOGNNsw5bqrT3mSrOJLVdpodn/jOdKstKWGweMKdaxlYYBY4q1bKWttccdpVhmK22HjekD9APGFNu0lfoBoy+A7NHIvwAfgr4Pg1ucCL2IU+Gph1Ph2uudgNHF5XD9mP6n4H7duFM7ckss0a5soTxgTLV23aGsXawxptZZ3eONyzXG1GqXdt84YEy4zPnDUem6sN8dBYyJ1zopbPBh/ZFv2BARERERERERERER0RMV5qU+AAAAAAAAAAAAAAAAAAAAAAAAAAAAAAAAAAAAAAAAAAAAAAAAAAAAAAAAAAAAAAAAAAAAAAAAAADOAQ4/x9a7JgG6HxVf8wYBRoqxWWMAPUVZu2gKYKg4mzUE0K0UZ1lDAD3FWtEMwJZibdIMwFCxdtEMwFSx9so7wIZ3gE3+AhoBGCvWXnEUaARgR7E2cX4m2OFagKvBZgByRVnLmgKwY8XYpDkAi/KeoO+7wp8OeC4AAAAAAAAAAAAAAAAAAAAAAAAAAAAAAAAAAAAAAAAAAAAAAAAAAAAAAAAAAAAAAAAAAAAAAAAAAEAowOD9M1bGD3CsZ20eO8CenrmzuAHyKvbfQ0n/tbmrqAHO438FLv1XZ0tbt+7pz1/tnUFv20YQhaemKF49omRfRaRxrmbSoFcSAdor2bTuVVLR9mpXSX5/AbdW6IH1weCaREbLdzQWMPlpd9/w7XL55YP/l6e32lcVzKKOXp8/0z46OFRWej9AYdZ3AGzkXnvvR2jMAieyuTMA4TZgx2cdWw+wF7eNFIA8KHE+CSbaS7khOAiAtYygO+2l5RgAVt/waQirMQAsZHhlhfbS+TAAxp8EklAXlDMHh6qGjYD3f3/5FX6bu267IgzAmF2AC1mbyn06btEttAsGkDcyqNLiudN9q491a/tQbjK23gDsM/dfAwp6rO2EqZ2fbaBwDRmbk3UBvtb62OxkiOxPC8BiY8NDewtz84esPCkAV0fs/sL+fQ3G6gcA5fKpHmTu1/pV7RcA5fIZ10GNGFQeAXAhdqRA2aoFIO3JAKiOAtjYu21guckHAL5Om/2ZEW9Y7T0BYAs8MrJzc9Umws9KlwB4aToxk4OZG89NY48AeGl6+/QdpAYJWKE3ANewhnhp6yB7Am7qH8ASwuMOnOQIr9Y9gMr2aY5D7IiZF94A8DXOIA55ejvT3jeARQMzQLcOqo1rghW6AnBlfk6IQ47dVuIRAAxoiENg2vAK4Bo205k4BIzDL4ClsKnbOASs0B8A7su27k145LgEwBZo4xD8POAfrgCwBWIcAlboBwBbINdBYIWOAPBAhjiEdrXUjgCwBVIcQlboCABbIMUhaIV+ALAFUhzCI8gNALZAikPYCr0AYAvkZSG2Qg8A2AKtKv7o2muwQgbgwAKhDAAr9APgDVggxCFsJIkjAA1YIMQh7CRZ4QZA/kTfxVbPG0m1GwAra4HQw00cQlZ45wbAhbFAaGXGCFph4gbAOVgg7pJlK5z5BFAE7ZJtfAIAD4Q4hJ3QE4BLqIKgDoI2zuaAFdTBsEtWlavh77zWASU0Mg3IBKR1A0A3UAhQHMJPxKUfANdQCkIcwoXgzNPTIORhsCzEoVIbBGDxro/eDpCIUhzCuWgIgO830kufywECAYhDKA4IAbAMeBdkuFURroN4bYQBsJ1YsfYDhIIQh0AkGADgSvorKweKhS0ctsCdhgBoRjsbgxcGeFmIJ5EQAPl4r4Xz0hDHIbwwFALgQoJUDGCFWAexBY5/iEo9QDaOcQhb4PjnB7QDrI5gHMIWOP4JEtsXWx/jXbJsgeMDgAsMsEKIQ2Bd1BEAtkKIQ3DycDQE2AphWYgt0NkkyFZo0fSwwHEPUSkHWCamMoBLyPEPUckG2CgAcQhYoJdSmK0Q4hCwwPBDVMafAvgHvTZxCHWZcACrUY9LZfql8rLQxvz3QADhRrh74Q2Drb3PlluHAQg/V/fTS2fkCe+SveQ4uS8AzW/6OQAcjwIi+inFIZZW7fLVWbbCOcchFVigIwDkbFwHNWCBbgDwhfIu2QYs0AsAtsLMvjRsAIAFegHAVjjnOKQCC/QCgK1wxnHIGizQCwC2wjOOQ1ZggV4AsBXWHIfkZnJ0CICtcK7KcUgFFugDAF/sDl4a7rLZq1cAbIVpYeMQaHdiABY/iXwuIQ4x7VwCYL16+7xdsvmhnXsAAbtkTxYA1EFRAqhjBcAXG88ckGlsAIwNphEAwCtPIgWQGxOIB4B95CliAQCPPHEC0J/NI08EAOCRJxYA9pFn+uzuBGACMAGYAEwAJgATgAnABGACMAGYAEwAJgATgAlACIDbuAFksokbwFwas+/q9MTn0Yn5Tl8cWsuDZl0AW41FVQfAmnfZ+xefRnYmF+bw0Ri07PR66VriLroRIK3k8lXzMrYOIKXorXxVGgOB5UYOylS0ko6y305eN9LRTEXXErHOVHQlEatV0YVErEJFtZJoNVMV1TcSrf65B5BLtCrvAWgjkSrV/wBcSaTa/Q8gj3gEqJh372NSog8AlhKl6gMArSItAg4AcolQZQeA/ijRaa9dAItGIlNaPAKgy1uJSlmtjwHoa4lKv6gFoO8lIn1UA+CeQDSjIPuoTwHQ/HeJQOZ9C9Gufrg5+V6Q/flBuxI1evXOi17m0xf/AmIkv67wjovcAAAAAElFTkSuQmCC;" vertex="1" parent="1">
          <mxGeometry x="360.99999999999994" y="305.5" width="45.57" height="34" as="geometry" />
        </mxCell>
        <mxCell id="sqDV4bE9PQli710Vu9U6-69" value="Article" style="text;html=1;align=left;verticalAlign=middle;whiteSpace=wrap;rounded=0;fontSize=12;" vertex="1" parent="1">
          <mxGeometry x="414.72" y="136.13" width="42.78" height="30" as="geometry" />
        </mxCell>
        <mxCell id="sqDV4bE9PQli710Vu9U6-70" value="Repository" style="text;html=1;align=left;verticalAlign=middle;whiteSpace=wrap;rounded=0;fontSize=12;" vertex="1" parent="1">
          <mxGeometry x="420" y="307.5" width="42.78" height="30" as="geometry" />
        </mxCell>
        <mxCell id="sqDV4bE9PQli710Vu9U6-73" value="" style="html=1;shadow=0;dashed=0;align=center;verticalAlign=middle;shape=mxgraph.arrows2.jumpInArrow;dy=2.88;dx=11.22;arrowHead=25.43;rotation=75;fillColor=#B3CEE5;" vertex="1" parent="1">
          <mxGeometry x="169.6" y="321.86" width="58.52" height="40" as="geometry" />
        </mxCell>
        <mxCell id="sqDV4bE9PQli710Vu9U6-74" value="" style="html=1;shadow=0;dashed=0;align=center;verticalAlign=middle;shape=mxgraph.arrows2.jumpInArrow;dy=2.88;dx=11.22;arrowHead=25.43;rotation=-170;fillColor=#B3CEE5;" vertex="1" parent="1">
          <mxGeometry x="125.72999999999999" y="402.14" width="58.52" height="43.16" as="geometry" />
        </mxCell>
      </root>
    </mxGraphModel>
  </diagram>
</mxfile>
